{
.appVersion = "1075";
DisplayStrings = (
"0he\U00AB?1_2/guilsinglleft a.4'3.2-(3):4//5a-c.:678/backslash",
/quotesinglbase,
/quotedblright,
/quotedblleft,
/quotedblbase
);
copyright = "Copyright © 2018 by Cadson Demak Co.,Ltd.. All rights reserved.";
customParameters = (
{
name = vendorID;
value = CDK;
},
{
name = description;
value = "Copyright (c) 2018, Cadson Demak (info@cadsondemak.com)";
},
{
name = license;

glyphs = (
{
color = 3;
glyphname = A;
lastChange = "2018-02-06 05:14:06 +0000";
layers = (
{
layerId = "0B1DFD06-3317-40CA-B510-4969A0718C16";
paths = (
{
closed = 1;
nodes = (
"374 654 LINE",
"378 659 OFFCURVE",
"381 665 OFFCURVE",
"381 674 CURVE SMOOTH",
"381 681 OFFCURVE",
"353 700 OFFCURVE",
"337 700 CURVE SMOOTH",
"319 700 OFFCURVE",
"305 691 OFFCURVE",
"295 662 CURVE SMOOTH",
"60 0 LINE",
"124 0 LINE",
"187 191 LINE",
"476 191 LINE",
"540 0 LINE",
"604 0 LINE"
);
},
{
closed = 1;
nodes = (
"205 244 LINE",
"331 612 LINE",
"460 244 LINE"
);
}
);
width = 664;
}
);
note = A;
unicode = 0041;
},
{
color = 3;
glyphname = B;
lastChange = "2018-02-06 05:14:16 +0000";
layers = (
{
layerId = "0B1DFD06-3317-40CA-B510-4969A0718C16";
paths = (
{
closed = 1;
nodes = (
"142 647 LINE",
"296 647 LINE SMOOTH",
"400 647 OFFCURVE",
"435 607 OFFCURVE",
"435 524 CURVE SMOOTH",
"435 439 OFFCURVE",
"349 390 OFFCURVE",
"266 390 CURVE SMOOTH",
"142 390 LINE"
);
},
{
closed = 1;
nodes = (
"142 53 LINE",
"142 338 LINE",
"279 338 LINE SMOOTH",
"396 338 OFFCURVE",
"455 269 OFFCURVE",
"455 195 CURVE SMOOTH",
"455 102 OFFCURVE",
"410 53 OFFCURVE",
"316 53 CURVE SMOOTH"
);
},
{
closed = 1;
nodes = (
"86 0 LINE",
"328 0 LINE SMOOTH",
"434 0 OFFCURVE",
"513 68 OFFCURVE",
"513 196 CURVE SMOOTH",
"513 296 OFFCURVE",
"434 351 OFFCURVE",
"353 368 CURVE",
"353 369 LINE",
"408 381 OFFCURVE",
"493 431 OFFCURVE",
"493 530 CURVE SMOOTH",
"493 619 OFFCURVE",
"446 700 OFFCURVE",
"308 700 CURVE SMOOTH",
"121 700 LINE",
"114 709 OFFCURVE",
"105 718 OFFCURVE",
"96 718 CURVE SMOOTH",
"77 718 OFFCURVE",
"60 699 OFFCURVE",
"60 683 CURVE SMOOTH",
"60 661 OFFCURVE",
"86 670 OFFCURVE",
"86 631 CURVE SMOOTH"
);
}
);
width = 573;
}
);
note = B;
unicode = 0042;
},
{
color = 3;
glyphname = C;
lastChange = "2018-02-06 05:36:01 +0000";
layers = (
{
layerId = "0B1DFD06-3317-40CA-B510-4969A0718C16";
paths = (
{
closed = 1;
nodes = (
"517 102 LINE",
"480 60 OFFCURVE",
"421 41 OFFCURVE",
"365 41 CURVE SMOOTH",
"209 41 OFFCURVE",
"118 181 OFFCURVE",
"118 353 CURVE SMOOTH",
"118 520 OFFCURVE",
"204 663 OFFCURVE",
"355 663 CURVE SMOOTH",
"421 663 OFFCURVE",
"473 639 OFFCURVE",
"511 599 CURVE",
"537 647 LINE",
"489 691 OFFCURVE",
"423 714 OFFCURVE",
"355 714 CURVE SMOOTH",
"175 714 OFFCURVE",
"60 563 OFFCURVE",
"60 353 CURVE SMOOTH",
"60 143 OFFCURVE",
"177 -10 OFFCURVE",
"363 -10 CURVE SMOOTH",
"433 -10 OFFCURVE",
"502 15 OFFCURVE",
"555 65 CURVE"
);
}
);
width = 615;
}
);
note = C;
unicode = 0043;
},
{
color = 3;
glyphname = D;
lastChange = "2018-02-06 05:36:01 +0000";
layers = (
{
layerId = "0B1DFD06-3317-40CA-B510-4969A0718C16";
paths = (
{
closed = 1;
nodes = (
"78 0 LINE",
"261 0 LINE SMOOTH",
"459 0 OFFCURVE",
"555 118 OFFCURVE",
"555 352 CURVE SMOOTH",
"555 582 OFFCURVE",
"447 700 OFFCURVE",
"256 700 CURVE SMOOTH",
"114 700 LINE",
"106 709 OFFCURVE",
"95 718 OFFCURVE",
"89 718 CURVE SMOOTH",
"69 718 OFFCURVE",
"56 696 OFFCURVE",
"53 687 CURVE",
"49 669 OFFCURVE",
"78 666 OFFCURVE",
"78 631 CURVE SMOOTH"
);
},
{
closed = 1;
nodes = (
"134 53 LINE",
"134 647 LINE",
"253 647 LINE SMOOTH",
"414 647 OFFCURVE",
"497 557 OFFCURVE",
"497 352 CURVE SMOOTH",
"497 159 OFFCURVE",
"438 53 OFFCURVE",
"261 53 CURVE SMOOTH"
);
}
);
width = 666;
}
);
note = D;
unicode = 0044;
},
{
color = 3;
glyphname = E;
lastChange = "2018-02-06 05:36:01 +0000";
layers = (
{
layerId = "0B1DFD06-3317-40CA-B510-4969A0718C16";
paths = (
{
closed = 1;
nodes = (
"86 0 LINE",
"459 0 LINE",
"459 53 LINE",
"142 53 LINE",
"142 341 LINE",
"366 341 LINE",
"366 393 LINE",
"142 393 LINE",
"142 647 LINE",
"450 647 LINE",
"450 700 LINE",
"121 700 LINE",
"114 709 OFFCURVE",
"102 718 OFFCURVE",
"96 718 CURVE SMOOTH",
"77 718 OFFCURVE",
"64 696 OFFCURVE",
"61 687 CURVE",
"56 669 OFFCURVE",
"86 666 OFFCURVE",
"86 631 CURVE SMOOTH"
);
}
);
width = 505;
}
);
note = E;
unicode = 0045;
},
{
color = 3;
glyphname = F;
lastChange = "2018-02-06 05:36:01 +0000";
layers = (
{
layerId = "0B1DFD06-3317-40CA-B510-4969A0718C16";
paths = (
{
closed = 1;
nodes = (
"86 0 LINE",
"142 0 LINE",
"142 331 LINE",
"366 331 LINE",
"366 383 LINE",
"142 383 LINE",
"142 647 LINE",
"450 647 LINE",
"450 700 LINE",
"121 700 LINE",
"114 709 OFFCURVE",
"102 718 OFFCURVE",
"96 718 CURVE SMOOTH",
"77 718 OFFCURVE",
"64 696 OFFCURVE",
"61 687 CURVE",
"56 669 OFFCURVE",
"86 666 OFFCURVE",
"86 631 CURVE SMOOTH"
);
}
);
width = 493;
}
);
note = F;
unicode = 0046;
},
{
color = 3;
glyphname = G;
lastChange = "2018-02-06 05:36:01 +0000";
layers = (
{
layerId = "0B1DFD06-3317-40CA-B510-4969A0718C16";
paths = (
{
closed = 1;
nodes = (
"199 41 OFFCURVE",
"118 181 OFFCURVE",
"118 353 CURVE SMOOTH",
"118 520 OFFCURVE",
"204 663 OFFCURVE",
"355 663 CURVE SMOOTH",
"421 663 OFFCURVE",
"473 639 OFFCURVE",
"511 599 CURVE",
"537 647 LINE",
"489 691 OFFCURVE",
"423 714 OFFCURVE",
"355 714 CURVE SMOOTH",
"175 714 OFFCURVE",
"60 563 OFFCURVE",
"60 353 CURVE SMOOTH",
"60 143 OFFCURVE",
"167 -10 OFFCURVE",
"363 -10 CURVE SMOOTH",
"446 -10 OFFCURVE",
"499 8 OFFCURVE",
"571 50 CURVE",
"571 278 LINE SMOOTH",
"571 315 OFFCURVE",
"594 307 OFFCURVE",
"594 325 CURVE SMOOTH",
"594 339 OFFCURVE",
"578 360 OFFCURVE",
"558 360 CURVE SMOOTH",
"549 360 OFFCURVE",
"543 356 OFFCURVE",
"536 347 CURVE",
"344 347 LINE",
"344 295 LINE",
"515 295 LINE",
"515 84 LINE",
"472 55 OFFCURVE",
"433 41 OFFCURVE",
"365 41 CURVE SMOOTH"
);
}
);
width = 654;
}
);
note = G;
unicode = 0047;
},
{
color = 3;
glyphname = H;
lastChange = "2018-02-06 05:37:53 +0000";
layers = (
{
layerId = "0B1DFD06-3317-40CA-B510-4969A0718C16";
paths = (
{
closed = 1;
nodes = (
"480 700 LINE",
"480 395 LINE",
"136 395 LINE",
"136 700 LINE",
"80 700 LINE",
"80 0 LINE",
"136 0 LINE",
"136 343 LINE",
"480 343 LINE",
"480 0 LINE",
"536 0 LINE",
"536 700 LINE"
);
}
);
width = 616;
}
);
note = H;
unicode = 0048;
},
{
color = 3;
glyphname = I;
lastChange = "2018-02-06 05:36:01 +0000";
layers = (
{
layerId = "0B1DFD06-3317-40CA-B510-4969A0718C16";
paths = (
{
closed = 1;
nodes = (
"80 700 LINE",
"80 0 LINE",
"136 0 LINE",
"136 700 LINE"
);
}
);
width = 216;
}
);
note = I;
unicode = 0049;
},
{
color = 3;
glyphname = J;
lastChange = "2018-02-06 05:36:01 +0000";
layers = (
{
layerId = "0B1DFD06-3317-40CA-B510-4969A0718C16";
paths = (
{
closed = 1;
nodes = (
"274 700 LINE",
"274 161 LINE SMOOTH",
"274 89 OFFCURVE",
"232 41 OFFCURVE",
"166 41 CURVE SMOOTH",
"133 41 OFFCURVE",
"94 52 OFFCURVE",
"73 70 CURVE",
"50 25 LINE",
"81 6 OFFCURVE",
"123 -10 OFFCURVE",
"162 -10 CURVE SMOOTH",
"263 -10 OFFCURVE",
"330 55 OFFCURVE",
"330 164 CURVE SMOOTH",
"330 700 LINE"
);
}
);
width = 410;
}
);
note = J;
unicode = 004A;
},
{
color = 3;
glyphname = K;
lastChange = "2018-02-06 05:36:01 +0000";
layers = (
{
layerId = "0B1DFD06-3317-40CA-B510-4969A0718C16";
paths = (
{
closed = 1;
nodes = (
"196 366 LINE",
"501 700 LINE",
"427 700 LINE",
"136 375 LINE",
"136 700 LINE",
"80 700 LINE",
"80 0 LINE",
"136 0 LINE",
"136 356 LINE",
"455 0 LINE",
"528 0 LINE"
);
}
);
width = 588;
}
);
note = K;
unicode = 004B;
},
{
color = 3;
glyphname = L;
lastChange = "2018-02-06 05:36:01 +0000";
layers = (
{
layerId = "0B1DFD06-3317-40CA-B510-4969A0718C16";
paths = (
{
closed = 1;
nodes = (
"86 69 LINE SMOOTH",
"86 35 OFFCURVE",
"60 34 OFFCURVE",
"60 17 CURVE SMOOTH",
"60 5 OFFCURVE",
"76 -18 OFFCURVE",
"96 -18 CURVE SMOOTH",
"103 -18 OFFCURVE",
"114 -9 OFFCURVE",
"121 0 CURVE",
"446 0 LINE",
"446 53 LINE",
"142 53 LINE",
"142 700 LINE",
"86 700 LINE"
);
}
);
width = 496;
}
);
note = L;
unicode = 004C;
},
{
color = 3;
glyphname = M;
lastChange = "2018-02-06 05:36:01 +0000";
layers = (
{
layerId = "0B1DFD06-3317-40CA-B510-4969A0718C16";
paths = (
{
closed = 1;
nodes = (
"675 679 LINE",
"681 688 OFFCURVE",
"661 718 OFFCURVE",
"642 718 CURVE SMOOTH",
"616 718 OFFCURVE",
"598 682 OFFCURVE",
"596 676 CURVE SMOOTH",
"406 89 LINE",
"215 676 LINE",
"213 682 OFFCURVE",
"195 718 OFFCURVE",
"169 718 CURVE SMOOTH",
"150 718 OFFCURVE",
"130 688 OFFCURVE",
"136 679 CURVE",
"147 666 LINE",
"60 0 LINE",
"115 -1 LINE",
"188 589 LINE",
"385 -7 LINE SMOOTH",
"397 -38 OFFCURVE",
"455 -18 OFFCURVE",
"440 12 CURVE SMOOTH",
"437 22 LINE",
"623 589 LINE",
"696 -1 LINE",
"751 0 LINE",
"664 666 LINE"
);
}
);
width = 811;
}
);
note = M;
unicode = 004D;
},
{
color = 3;
glyphname = N;
lastChange = "2018-02-06 05:36:01 +0000";
layers = (
{
layerId = "0B1DFD06-3317-40CA-B510-4969A0718C16";
paths = (
{
closed = 1;
nodes = (
"83 0 LINE",
"139 0 LINE",
"139 577 LINE",
"502 0 LINE",
"502 0 OFFCURVE",
"552 0 OFFCURVE",
"552 0 CURVE",
"552 700 LINE",
"496 700 LINE",
"496 104 LINE",
"121 699 LINE SMOOTH",
"115 708 OFFCURVE",
"102 716 OFFCURVE",
"96 716 CURVE SMOOTH",
"77 716 OFFCURVE",
"64 694 OFFCURVE",
"61 685 CURVE",
"56 668 OFFCURVE",
"83 668 OFFCURVE",
"83 632 CURVE SMOOTH"
);
}
);
width = 632;
}
);
note = N;
unicode = 004E;
},
{
color = 3;
glyphname = O;
lastChange = "2018-02-06 05:36:01 +0000";
layers = (
{
layerId = "0B1DFD06-3317-40CA-B510-4969A0718C16";
paths = (
{
closed = 1;
nodes = (
"602 570 OFFCURVE",
"513 714 OFFCURVE",
"331 714 CURVE SMOOTH",
"149 714 OFFCURVE",
"60 570 OFFCURVE",
"60 352 CURVE SMOOTH",
"60 134 OFFCURVE",
"149 -10 OFFCURVE",
"331 -10 CURVE SMOOTH",
"513 -10 OFFCURVE",
"602 134 OFFCURVE",
"602 352 CURVE SMOOTH"
);
},
{
closed = 1;
nodes = (
"544 180 OFFCURVE",
"491 41 OFFCURVE",
"331 41 CURVE SMOOTH",
"171 41 OFFCURVE",
"118 180 OFFCURVE",
"118 352 CURVE SMOOTH",
"118 524 OFFCURVE",
"171 663 OFFCURVE",
"331 663 CURVE SMOOTH",
"491 663 OFFCURVE",
"544 524 OFFCURVE",
"544 352 CURVE SMOOTH"
);
}
);
width = 662;
}
);
note = O;
unicode = 004F;
},
{
color = 3;
glyphname = P;
lastChange = "2018-02-06 05:36:01 +0000";
layers = (
{
layerId = "0B1DFD06-3317-40CA-B510-4969A0718C16";
paths = (
{
closed = 1;
nodes = (
"85 0 LINE",
"141 0 LINE",
"141 272 LINE",
"271 272 LINE SMOOTH",
"409 272 OFFCURVE",
"502 326 OFFCURVE",
"502 485 CURVE SMOOTH",
"502 646 OFFCURVE",
"413 700 OFFCURVE",
"265 700 CURVE SMOOTH",
"121 700 LINE",
"113 709 OFFCURVE",
"101 718 OFFCURVE",
"95 718 CURVE SMOOTH",
"76 718 OFFCURVE",
"63 696 OFFCURVE",
"60 687 CURVE",
"56 669 OFFCURVE",
"85 665 OFFCURVE",
"85 629 CURVE SMOOTH"
);
},
{
closed = 1;
nodes = (
"266 647 LINE SMOOTH",
"405 647 OFFCURVE",
"444 590 OFFCURVE",
"444 485 CURVE SMOOTH",
"444 371 OFFCURVE",
"399 324 OFFCURVE",
"268 324 CURVE SMOOTH",
"141 324 LINE",
"141 647 LINE"
);
}
);
width = 562;
}
);
note = P;
unicode = 0050;
},
{
color = 3;
glyphname = Q;
lastChange = "2018-02-06 05:36:01 +0000";
layers = (
{
layerId = "0B1DFD06-3317-40CA-B510-4969A0718C16";
paths = (
{
closed = 1;
nodes = (
"450 -163 LINE",
"523 -163 LINE",
"377 20 LINE",
"317 10 LINE"
);
},
{
closed = 1;
nodes = (
"602 570 OFFCURVE",
"513 714 OFFCURVE",
"331 714 CURVE SMOOTH",
"149 714 OFFCURVE",
"60 570 OFFCURVE",
"60 352 CURVE SMOOTH",
"60 134 OFFCURVE",
"149 -10 OFFCURVE",
"331 -10 CURVE SMOOTH",
"513 -10 OFFCURVE",
"602 134 OFFCURVE",
"602 352 CURVE SMOOTH"
);
},
{
closed = 1;
nodes = (
"544 180 OFFCURVE",
"491 41 OFFCURVE",
"331 41 CURVE SMOOTH",
"171 41 OFFCURVE",
"118 180 OFFCURVE",
"118 352 CURVE SMOOTH",
"118 524 OFFCURVE",
"171 663 OFFCURVE",
"331 663 CURVE SMOOTH",
"491 663 OFFCURVE",
"544 524 OFFCURVE",
"544 352 CURVE SMOOTH"
);
}
);
width = 662;
}
);
note = Q;
unicode = 0051;
},
{
color = 3;
glyphname = R;
lastChange = "2018-02-06 05:36:01 +0000";
layers = (
{
layerId = "0B1DFD06-3317-40CA-B510-4969A0718C16";
paths = (
{
closed = 1;
nodes = (
"56 669 OFFCURVE",
"85 665 OFFCURVE",
"85 629 CURVE SMOOTH",
"85 0 LINE",
"141 0 LINE",
"141 292 LINE",
"225.182 292 LINE",
"411 0 LINE",
"478 0 LINE",
"290.529 292.377 LINE",
"417.702 297.395 OFFCURVE",
"502 353.142 OFFCURVE",
"502 495 CURVE SMOOTH",
"502 646 OFFCURVE",
"413 700 OFFCURVE",
"265 700 CURVE SMOOTH",
"121 700 LINE",
"113 709 OFFCURVE",
"101 718 OFFCURVE",
"95 718 CURVE SMOOTH",
"76 718 OFFCURVE",
"63 696 OFFCURVE",
"60 687 CURVE"
);
},
{
closed = 1;
nodes = (
"141 647 LINE",
"266 647 LINE SMOOTH",
"405 647 OFFCURVE",
"444 590 OFFCURVE",
"444 495 CURVE SMOOTH",
"444 391 OFFCURVE",
"399 344 OFFCURVE",
"268 344 CURVE SMOOTH",
"141 344 LINE"
);
}
);
width = 578;
}
);
note = R;
unicode = 0052;
},
{
color = 3;
glyphname = S;
lastChange = "2018-02-06 05:39:10 +0000";
layers = (
{
layerId = "0B1DFD06-3317-40CA-B510-4969A0718C16";
paths = (
{
closed = 1;
nodes = (
"540 270 OFFCURVE",
"455 321 OFFCURVE",
"323 368 CURVE SMOOTH",
"209 409 OFFCURVE",
"136 441 OFFCURVE",
"136 532 CURVE SMOOTH",
"136 622 OFFCURVE",
"190 663 OFFCURVE",
"292 663 CURVE SMOOTH",
"370 663 OFFCURVE",
"429 633 OFFCURVE",
"466 607 CURVE",
"496 651 LINE",
"448 686 OFFCURVE",
"370 714 OFFCURVE",
"293 714 CURVE SMOOTH",
"153 714 OFFCURVE",
"78 640 OFFCURVE",
"78 531 CURVE SMOOTH",
"78 433 OFFCURVE",
"151 372 OFFCURVE",
"281 326 CURVE SMOOTH",
"431 273 OFFCURVE",
"482 248 OFFCURVE",
"482 160 CURVE SMOOTH",
"482 82 OFFCURVE",
"428 41 OFFCURVE",
"309 41 CURVE SMOOTH",
"228 41 OFFCURVE",
"152 70 OFFCURVE",
"96 124 CURVE",
"60 84 LINE",
"110 35 OFFCURVE",
"197 -9 OFFCURVE",
"309 -9 CURVE SMOOTH",
"471 -9 OFFCURVE",
"540 62 OFFCURVE",
"540 160 CURVE SMOOTH"
);
}
);
width = 600;
}
);
note = S;
unicode = 0053;
},
{
color = 3;
glyphname = T;
lastChange = "2018-02-06 05:44:17 +0000";
layers = (
{
layerId = "0B1DFD06-3317-40CA-B510-4969A0718C16";
paths = (
{
closed = 1;
nodes = (
"64 700 LINE SMOOTH",
"51 700 OFFCURVE",
"49 695 OFFCURVE",
"50 685 CURVE SMOOTH",
"53 659 LINE SMOOTH",
"54 650 OFFCURVE",
"57 647 OFFCURVE",
"63 647 CURVE SMOOTH",
"252 647 LINE",
"252 0 LINE",
"308 0 LINE",
"308 647 LINE",
"492 647 LINE SMOOTH",
"498 647 OFFCURVE",
"501 650 OFFCURVE",
"502 659 CURVE SMOOTH",
"505 685 LINE SMOOTH",
"506 695 OFFCURVE",
"504 700 OFFCURVE",
"491 700 CURVE SMOOTH"
);
}
);
width = 555;
}
);
note = T;
unicode = 0054;
},
{
color = 3;
glyphname = U;
lastChange = "2018-02-06 05:44:17 +0000";
layers = (
{
layerId = "0B1DFD06-3317-40CA-B510-4969A0718C16";
paths = (
{
closed = 1;
nodes = (
"474 0 OFFCURVE",
"569 92 OFFCURVE",
"569 242 CURVE SMOOTH",
"569 700 LINE",
"513 700 LINE",
"513 236 LINE SMOOTH",
"513 109 OFFCURVE",
"427 51 OFFCURVE",
"322 51 CURVE SMOOTH",
"217 51 OFFCURVE",
"131 109 OFFCURVE",
"131 236 CURVE SMOOTH",
"131 700 LINE",
"75 700 LINE",
"75 242 LINE SMOOTH",
"75 92 OFFCURVE",
"170 0 OFFCURVE",
"322 0 CURVE SMOOTH"
);
}
);
width = 644;
}
);
note = U;
unicode = 0055;
},
{
color = 3;
glyphname = V;
lastChange = "2018-02-06 05:44:17 +0000";
layers = (
{
layerId = "0B1DFD06-3317-40CA-B510-4969A0718C16";
paths = (
{
closed = 1;
nodes = (
"386 22 OFFCURVE",
"626 700 OFFCURVE",
"626 700 CURVE",
"570 700 LINE",
"354 79 LINE",
"137 700 LINE",
"80 700 LINE",
"318 31 LINE",
"309 18 LINE",
"304 7 OFFCURVE",
"324 -19 OFFCURVE",
"343 -19 CURVE SMOOTH",
"355 -19 OFFCURVE",
"380 10 OFFCURVE",
"388 22 CURVE"
);
}
);
width = 706;
}
);
note = V;
unicode = 0056;
},
{
color = 3;
glyphname = W;
lastChange = "2018-02-06 05:44:17 +0000";
layers = (
{
layerId = "0B1DFD06-3317-40CA-B510-4969A0718C16";
paths = (
{
closed = 1;
nodes = (
"457 678 LINE",
"460 688 LINE",
"473 710 OFFCURVE",
"415 730 OFFCURVE",
"405 707 CURVE",
"218 111 LINE",
"115 700 LINE",
"60 700 LINE",
"177 34 LINE",
"166 21 LINE",
"160 12 OFFCURVE",
"180 -15 OFFCURVE",
"199 -18 CURVE SMOOTH",
"218 -21 OFFCURVE",
"243 18 OFFCURVE",
"245 24 CURVE",
"426 609 LINE",
"606 24 LINE SMOOTH",
"610 10 OFFCURVE",
"627 -18 OFFCURVE",
"652 -18 CURVE SMOOTH",
"671 -18 OFFCURVE",
"691 12 OFFCURVE",
"685 21 CURVE",
"674 34 LINE",
"791 700 LINE",
"736 700 LINE",
"633 111 LINE"
);
}
);
width = 851;
}
);
note = W;
unicode = 0057;
},
{
color = 3;
glyphname = X;
lastChange = "2018-02-06 05:44:17 +0000";
layers = (
{
layerId = "0B1DFD06-3317-40CA-B510-4969A0718C16";
paths = (
{
closed = 1;
nodes = (
"467 700 LINE",
"529 700 LINE",
"310 375 LINE",
"551 0 LINE",
"489 0 LINE",
"281 334 LINE",
"73 0 LINE",
"11 0 LINE",
"252 375 LINE",
"33 700 LINE",
"95 700 LINE",
"281 419 LINE"
);
}
);
width = 555;
}
);
note = X;
unicode = 0058;
},
{
color = 3;
glyphname = Y;
lastChange = "2018-02-06 05:44:17 +0000";
layers = (
{
layerId = "0B1DFD06-3317-40CA-B510-4969A0718C16";
paths = (
{
closed = 1;
nodes = (
"458 700 LINE",
"515 700 LINE",
"288 277 LINE",
"288 0 LINE",
"236 0 LINE",
"236 277 LINE",
"9 700 LINE",
"66 700 LINE",
"262 323 LINE"
);
}
);
width = 527;
}
);
note = Y;
unicode = 0059;
},
{
color = 3;
glyphname = Z;
lastChange = "2018-02-06 05:44:17 +0000";
layers = (
{
layerId = "0B1DFD06-3317-40CA-B510-4969A0718C16";
paths = (
{
closed = 1;
nodes = (
"495 710 OFFCURVE",
"484 700 OFFCURVE",
"484 700 CURVE SMOOTH",
"57 700 LINE",
"57 647 LINE",
"456 647 LINE",
"65 64 LINE",
"59 56 OFFCURVE",
"53 49 OFFCURVE",
"44 41 CURVE SMOOTH",
"30 30 OFFCURVE",
"24 27 OFFCURVE",
"31 13 CURVE",
"47 -13 OFFCURVE",
"61 -16 OFFCURVE",
"68 -13 CURVE",
"77 -10 OFFCURVE",
"84 0 OFFCURVE",
"93 0 CURVE SMOOTH",
"541 0 LINE",
"541 53 LINE",
"124 53 LINE",
"517 637 LINE",
"536 663 LINE",
"549 676 OFFCURVE",
"555 684 OFFCURVE",
"538 705 CURVE SMOOTH",
"523 721 OFFCURVE",
"507 721 OFFCURVE",
"502 716 CURVE"
);
}
);
width = 585;
}
);
note = Z;
unicode = 005A;
},
{
color = 3;
glyphname = a;
lastChange = "2018-03-05 07:07:38 +0000";
layers = (
{
layerId = "0B1DFD06-3317-40CA-B510-4969A0718C16";
paths = (
{
closed = 1;
nodes = (
"489 485 LINE",
"435 485 LINE",
"435 402 LINE",
"403 457 OFFCURVE",
"355 495 OFFCURVE",
"271 495 CURVE SMOOTH",
"128 495 OFFCURVE",
"60 373 OFFCURVE",
"60 241 CURVE SMOOTH",
"60 110 OFFCURVE",
"128 -10 OFFCURVE",
"271 -10 CURVE SMOOTH",
"343 -10 OFFCURVE",
"401 23 OFFCURVE",
"438 81 CURVE",
"441 80 LINE",
"444 31 OFFCURVE",
"456 3 OFFCURVE",
"465 -10 CURVE",
"511 9 LINE",
"498 30 OFFCURVE",
"489 63 OFFCURVE",
"489 118 CURVE SMOOTH"
);
},
{
closed = 1;
nodes = (
"382 446 OFFCURVE",
"437 348 OFFCURVE",
"437 271 CURVE SMOOTH",
"437 213 LINE SMOOTH",
"437 118 OFFCURVE",
"380 39 OFFCURVE",
"271 39 CURVE SMOOTH",
"166 39 OFFCURVE",
"118 128 OFFCURVE",
"118 241 CURVE SMOOTH",
"118 353 OFFCURVE",
"166 446 OFFCURVE",
"271 446 CURVE SMOOTH"
);
}
);
width = 571;
}
);
note = a;
unicode = 0061;
},
{
color = 3;
glyphname = b;
lastChange = "2018-02-06 06:15:17 +0000";
layers = (
{
layerId = "0B1DFD06-3317-40CA-B510-4969A0718C16";
paths = (
{
closed = 1;
nodes = (
"170 30 OFFCURVE",
"226 -10 OFFCURVE",
"303 -10 CURVE SMOOTH",
"446 -10 OFFCURVE",
"514 110 OFFCURVE",
"514 241 CURVE SMOOTH",
"514 381 OFFCURVE",
"456 495 OFFCURVE",
"303 495 CURVE SMOOTH",
"226 495 OFFCURVE",
"171 457 OFFCURVE",
"137 402 CURVE",
"137 734 LINE",
"83 734 LINE",
"83 120 LINE SMOOTH",
"83 55 OFFCURVE",
"72 29 OFFCURVE",
"60 8 CURVE",
"109 -11 LINE",
"121 0 OFFCURVE",
"136 38 OFFCURVE",
"136 83 CURVE"
);
},
{
closed = 1;
nodes = (
"456 147 OFFCURVE",
"418 39 OFFCURVE",
"303 39 CURVE SMOOTH",
"199 39 OFFCURVE",
"137 126 OFFCURVE",
"137 213 CURVE SMOOTH",
"137 271 LINE SMOOTH",
"137 356 OFFCURVE",
"199 446 OFFCURVE",
"303 446 CURVE SMOOTH",
"428 446 OFFCURVE",
"456 343 OFFCURVE",
"456 241 CURVE SMOOTH"
);
}
);
width = 574;
}
);
note = b;
unicode = 0062;
},
{
color = 3;
glyphname = c;
lastChange = "2018-02-06 06:15:17 +0000";
layers = (
{
layerId = "0B1DFD06-3317-40CA-B510-4969A0718C16";
paths = (
{
closed = 1;
nodes = (
"339 -10 OFFCURVE",
"391 11 OFFCURVE",
"428 48 CURVE",
"394 85 LINE",
"367 54 OFFCURVE",
"326 39 OFFCURVE",
"286 39 CURVE SMOOTH",
"175 39 OFFCURVE",
"118 122 OFFCURVE",
"118 242 CURVE SMOOTH",
"118 369 OFFCURVE",
"176 446 OFFCURVE",
"276 446 CURVE SMOOTH",
"331 446 OFFCURVE",
"370 423 OFFCURVE",
"392 398 CURVE",
"415 442 LINE",
"378 477 OFFCURVE",
"327 495 OFFCURVE",
"275 495 CURVE SMOOTH",
"148 495 OFFCURVE",
"60 395 OFFCURVE",
"60 242 CURVE SMOOTH",
"60 87 OFFCURVE",
"146 -10 OFFCURVE",
"282 -10 CURVE SMOOTH"
);
}
);
width = 488;
}
);
note = c;
unicode = 0063;
},
{
color = 3;
glyphname = d;
lastChange = "2018-02-06 06:15:17 +0000";
layers = (
{
layerId = "0B1DFD06-3317-40CA-B510-4969A0718C16";
paths = (
{
closed = 1;
nodes = (
"438 38 OFFCURVE",
"453 0 OFFCURVE",
"465 -11 CURVE",
"514 8 LINE",
"502 29 OFFCURVE",
"491 55 OFFCURVE",
"491 120 CURVE SMOOTH",
"491 734 LINE",
"437 734 LINE",
"437 402 LINE",
"403 457 OFFCURVE",
"348 495 OFFCURVE",
"271 495 CURVE SMOOTH",
"118 495 OFFCURVE",
"60 374 OFFCURVE",
"60 234 CURVE SMOOTH",
"60 103 OFFCURVE",
"128 -10 OFFCURVE",
"271 -10 CURVE SMOOTH",
"348 -10 OFFCURVE",
"404 30 OFFCURVE",
"438 83 CURVE"
);
},
{
closed = 1;
nodes = (
"118 336 OFFCURVE",
"146 446 OFFCURVE",
"271 446 CURVE SMOOTH",
"375 446 OFFCURVE",
"437 356 OFFCURVE",
"437 271 CURVE SMOOTH",
"437 213 LINE SMOOTH",
"437 126 OFFCURVE",
"375 39 OFFCURVE",
"271 39 CURVE SMOOTH",
"156 39 OFFCURVE",
"118 140 OFFCURVE",
"118 234 CURVE SMOOTH"
);
}
);
width = 574;
}
);
note = d;
unicode = 0064;
},
{
color = 3;
glyphname = e;
lastChange = "2018-02-06 06:15:17 +0000";
layers = (
{
layerId = "0B1DFD06-3317-40CA-B510-4969A0718C16";
paths = (
{
closed = 1;
nodes = (
"118 268 LINE",
"118 345 OFFCURVE",
"151 446 OFFCURVE",
"272 446 CURVE SMOOTH",
"387 446 OFFCURVE",
"424 356 OFFCURVE",
"424 268 CURVE"
);
},
{
closed = 1;
nodes = (
"351 -10 OFFCURVE",
"409 13 OFFCURVE",
"448 48 CURVE",
"414 85 LINE",
"385 56 OFFCURVE",
"338 39 OFFCURVE",
"293 39 CURVE SMOOTH",
"185 39 OFFCURVE",
"119 118 OFFCURVE",
"119 218 CURVE",
"439 218 LINE SMOOTH",
"469 218 OFFCURVE",
"480 230 OFFCURVE",
"480 256 CURVE SMOOTH",
"480 335 OFFCURVE",
"454 495 OFFCURVE",
"275 495 CURVE SMOOTH",
"111 495 OFFCURVE",
"60 363 OFFCURVE",
"60 239 CURVE SMOOTH",
"60 94 OFFCURVE",
"150 -10 OFFCURVE",
"289 -10 CURVE SMOOTH"
);
}
);
width = 540;
}
);
note = e;
unicode = 0065;
},
{
color = 3;
glyphname = f;
lastChange = "2018-02-06 06:15:17 +0000";
layers = (
{
layerId = "0B1DFD06-3317-40CA-B510-4969A0718C16";
paths = (
{
closed = 1;
nodes = (
"130 0 LINE",
"184 0 LINE",
"184 441 LINE",
"292 441 LINE",
"304 485 LINE",
"184 485 LINE",
"184 603 LINE SMOOTH",
"184 668 OFFCURVE",
"211 687 OFFCURVE",
"256 687 CURVE SMOOTH",
"272 687 OFFCURVE",
"290 684 OFFCURVE",
"310 678 CURVE",
"321 724 LINE",
"297 731 OFFCURVE",
"272 736 OFFCURVE",
"251 736 CURVE SMOOTH",
"187 736 OFFCURVE",
"130 696 OFFCURVE",
"130 603 CURVE SMOOTH",
"130 485 LINE",
"62 485 LINE",
"50 441 LINE",
"130 441 LINE"
);
}
);
width = 371;
}
);
note = f;
unicode = 0066;
},
{
color = 3;
glyphname = g;
lastChange = "2018-03-12 09:24:07 +0000";
layers = (
{
layerId = "0B1DFD06-3317-40CA-B510-4969A0718C16";
paths = (
{
closed = 1;
nodes = (
"95 350 OFFCURVE",
"133 446 OFFCURVE",
"248 446 CURVE SMOOTH",
"352 446 OFFCURVE",
"414 359 OFFCURVE",
"414 272 CURVE SMOOTH",
"414 224 LINE SMOOTH",
"414 139 OFFCURVE",
"352 49 OFFCURVE",
"248 49 CURVE SMOOTH",
"123 49 OFFCURVE",
"95 154 OFFCURVE",
"95 256 CURVE SMOOTH"
);
},
{
closed = 1;
nodes = (
"414 -108 OFFCURVE",
"359 -164 OFFCURVE",
"232 -164 CURVE SMOOTH",
"191 -164 OFFCURVE",
"147 -152 OFFCURVE",
"124 -142 CURVE",
"106 -193 LINE",
"136 -205 OFFCURVE",
"189 -218 OFFCURVE",
"232 -218 CURVE SMOOTH",
"352 -218 OFFCURVE",
"468 -167 OFFCURVE",
"468 15 CURVE SMOOTH",
"468 365 LINE SMOOTH",
"468 430 OFFCURVE",
"479 456 OFFCURVE",
"491 477 CURVE",
"442 496 LINE",
"430 485 OFFCURVE",
"415 447 OFFCURVE",
"415 402 CURVE",
"381 455 OFFCURVE",
"325 495 OFFCURVE",
"248 495 CURVE SMOOTH",
"105 495 OFFCURVE",
"37 387 OFFCURVE",
"37 256 CURVE SMOOTH",
"37 116 OFFCURVE",
"95 0 OFFCURVE",
"248 0 CURVE SMOOTH",
"325 0 OFFCURVE",
"380 38 OFFCURVE",
"414 93 CURVE",
"414 28 LINE SMOOTH"
);
}
);
width = 530;
}
);
note = g;
unicode = 0067;
},
{
color = 3;
glyphname = h;
lastChange = "2018-02-06 06:20:55 +0000";
layers = (
{
layerId = "0B1DFD06-3317-40CA-B510-4969A0718C16";
paths = (
{
closed = 1;
nodes = (
"399 92 LINE SMOOTH",
"399 46 OFFCURVE",
"411 14 OFFCURVE",
"423 -10 CURVE",
"472 9 LINE",
"462 28 OFFCURVE",
"453 60 OFFCURVE",
"453 92 CURVE SMOOTH",
"453 306 LINE SMOOTH",
"453 428 OFFCURVE",
"397 495 OFFCURVE",
"288 495 CURVE SMOOTH",
"221 495 OFFCURVE",
"164 464 OFFCURVE",
"134 408 CURVE",
"134 734 LINE",
"80 734 LINE",
"80 0 LINE",
"134 0 LINE",
"134 273 LINE SMOOTH",
"134 361 OFFCURVE",
"191 446 OFFCURVE",
"278 446 CURVE SMOOTH",
"365 446 OFFCURVE",
"399 401 OFFCURVE",
"399 307 CURVE SMOOTH"
);
}
);
width = 532;
}
);
note = h;
unicode = 0068;
},
{
color = 3;
glyphname = i;
lastChange = "2018-02-06 06:21:01 +0000";
layers = (
{
guideLines = (
{
position = "{-110, 735}";
}
);
layerId = "0B1DFD06-3317-40CA-B510-4969A0718C16";
paths = (
{
closed = 1;
nodes = (
"104 0 LINE",
"158 0 LINE",
"158 495 LINE",
"104 495 LINE"
);
},
{
closed = 1;
nodes = (
"104 631 OFFCURVE",
"80 656 OFFCURVE",
"80 683 CURVE SMOOTH",
"80 711 OFFCURVE",
"104 735 OFFCURVE",
"132 735 CURVE SMOOTH",
"160 735 OFFCURVE",
"184 711 OFFCURVE",
"184 683 CURVE SMOOTH",
"184 656 OFFCURVE",
"160 631 OFFCURVE",
"132 631 CURVE SMOOTH"
);
}
);
width = 264;
}
);
note = i;
unicode = 0069;
},
{
color = 3;
glyphname = j;
lastChange = "2018-02-06 06:21:23 +0000";
layers = (
{
layerId = "0B1DFD06-3317-40CA-B510-4969A0718C16";
paths = (
{
closed = 1;
nodes = (
"244 -158 OFFCURVE",
"205 -202 OFFCURVE",
"70 -219 CURVE",
"50 -174 LINE",
"190 -161 OFFCURVE",
"190 -108 OFFCURVE",
"190 0 CURVE SMOOTH",
"190 495 LINE",
"244 495 LINE",
"244 -7 LINE SMOOTH"
);
},
{
closed = 1;
nodes = (
"190 631 OFFCURVE",
"166 656 OFFCURVE",
"166 683 CURVE SMOOTH",
"166 711 OFFCURVE",
"190 735 OFFCURVE",
"218 735 CURVE SMOOTH",
"246 735 OFFCURVE",
"270 711 OFFCURVE",
"270 683 CURVE SMOOTH",
"270 656 OFFCURVE",
"246 631 OFFCURVE",
"218 631 CURVE SMOOTH"
);
}
);
width = 350;
}
);
note = j;
unicode = 006A;
},
{
color = 3;
glyphname = k;
lastChange = "2018-02-06 06:21:28 +0000";
layers = (
{
layerId = "0B1DFD06-3317-40CA-B510-4969A0718C16";
paths = (
{
closed = 1;
nodes = (
"175 268 LINE",
"418 495 LINE",
"346 495 LINE",
"134 296 LINE",
"134 734 LINE",
"80 734 LINE",
"80 0 LINE",
"134 0 LINE",
"134 240 LINE",
"386 -2 LINE",
"455 0 LINE"
);
}
);
width = 505;
}
);
note = k;
unicode = 006B;
},
{
color = 3;
glyphname = l;
lastChange = "2018-02-06 06:21:35 +0000";
layers = (
{
layerId = "0B1DFD06-3317-40CA-B510-4969A0718C16";
paths = (
{
closed = 1;
nodes = (
"80 0 LINE",
"134 0 LINE",
"134 734 LINE",
"80 734 LINE"
);
}
);
width = 214;
}
);
note = l;
unicode = 006C;
},
{
color = 3;
glyphname = m;
lastChange = "2018-02-06 06:24:07 +0000";
layers = (
{
layerId = "0B1DFD06-3317-40CA-B510-4969A0718C16";
paths = (
{
closed = 1;
nodes = (
"677 46 OFFCURVE",
"689 14 OFFCURVE",
"701 -10 CURVE",
"750 9 LINE",
"740 28 OFFCURVE",
"731 60 OFFCURVE",
"731 92 CURVE SMOOTH",
"731 314 LINE SMOOTH",
"731 421 OFFCURVE",
"683 495 OFFCURVE",
"561 495 CURVE SMOOTH",
"492 495 OFFCURVE",
"435 454 OFFCURVE",
"411 392 CURVE",
"390 457 OFFCURVE",
"345 495 OFFCURVE",
"277 495 CURVE SMOOTH",
"218 495 OFFCURVE",
"163 462 OFFCURVE",
"136 408 CURVE",
"133 462 OFFCURVE",
"117 485 OFFCURVE",
"111 497 CURVE",
"60 478 LINE",
"73 457 OFFCURVE",
"82 428 OFFCURVE",
"82 373 CURVE SMOOTH",
"82 0 LINE",
"136 0 LINE",
"136 274 LINE SMOOTH",
"136 363 OFFCURVE",
"183 446 OFFCURVE",
"272 446 CURVE SMOOTH",
"343 446 OFFCURVE",
"381 387 OFFCURVE",
"381 309 CURVE SMOOTH",
"381 0 LINE",
"434 0 LINE",
"434 298 LINE SMOOTH",
"434 377 OFFCURVE",
"473 446 OFFCURVE",
"561 446 CURVE SMOOTH",
"645 446 OFFCURVE",
"677 394 OFFCURVE",
"677 309 CURVE SMOOTH",
"677 92 LINE SMOOTH"
);
}
);
width = 825;
}
);
note = m;
unicode = 006D;
},
{
color = 3;
glyphname = n;
lastChange = "2018-02-06 06:21:44 +0000";
layers = (
{
layerId = "0B1DFD06-3317-40CA-B510-4969A0718C16";
paths = (
{
closed = 1;
nodes = (
"82 0 LINE",
"136 0 LINE",
"136 273 LINE SMOOTH",
"136 361 OFFCURVE",
"193 446 OFFCURVE",
"280 446 CURVE SMOOTH",
"367 446 OFFCURVE",
"401 401 OFFCURVE",
"401 307 CURVE SMOOTH",
"401 92 LINE SMOOTH",
"401 46 OFFCURVE",
"413 14 OFFCURVE",
"425 -10 CURVE",
"474 9 LINE",
"464 28 OFFCURVE",
"455 60 OFFCURVE",
"455 92 CURVE SMOOTH",
"455 306 LINE SMOOTH",
"455 428 OFFCURVE",
"399 495 OFFCURVE",
"290 495 CURVE SMOOTH",
"223 495 OFFCURVE",
"164 462 OFFCURVE",
"134 402 CURVE",
"129 446 OFFCURVE",
"118 479 OFFCURVE",
"109 495 CURVE",
"60 476 LINE",
"74 455 OFFCURVE",
"82 423 OFFCURVE",
"82 372 CURVE SMOOTH"
);
}
);
width = 534;
}
);
note = n;
unicode = 006E;
},
{
color = 3;
glyphname = o;
lastChange = "2018-02-06 06:18:52 +0000";
layers = (
{
layerId = "0B1DFD06-3317-40CA-B510-4969A0718C16";
paths = (
{
closed = 1;
nodes = (
"379 446 OFFCURVE",
"424 356 OFFCURVE",
"424 243 CURVE SMOOTH",
"424 130 OFFCURVE",
"379 40 OFFCURVE",
"271 40 CURVE SMOOTH",
"163 40 OFFCURVE",
"118 130 OFFCURVE",
"118 243 CURVE SMOOTH",
"118 356 OFFCURVE",
"163 446 OFFCURVE",
"271 446 CURVE SMOOTH"
);
},
{
closed = 1;
nodes = (
"423 -9 OFFCURVE",
"482 111 OFFCURVE",
"482 243 CURVE SMOOTH",
"482 375 OFFCURVE",
"423 495 OFFCURVE",
"271 495 CURVE SMOOTH",
"119 495 OFFCURVE",
"60 375 OFFCURVE",
"60 243 CURVE SMOOTH",
"60 111 OFFCURVE",
"119 -9 OFFCURVE",
"271 -9 CURVE SMOOTH"
);
}
);
width = 542;
}
);
note = o;
unicode = 006F;
},
{
color = 3;
glyphname = p;
lastChange = "2018-02-06 06:18:52 +0000";
layers = (
{
layerId = "0B1DFD06-3317-40CA-B510-4969A0718C16";
paths = (
{
closed = 1;
nodes = (
"456 142 OFFCURVE",
"424 39 OFFCURVE",
"299 39 CURVE SMOOTH",
"195 39 OFFCURVE",
"137 129 OFFCURVE",
"137 214 CURVE SMOOTH",
"137 272 LINE SMOOTH",
"137 359 OFFCURVE",
"199 446 OFFCURVE",
"303 446 CURVE SMOOTH",
"418 446 OFFCURVE",
"456 344 OFFCURVE",
"456 244 CURVE SMOOTH"
);
},
{
closed = 1;
nodes = (
"83 -168 OFFCURVE",
"68 -211 OFFCURVE",
"64 -213 CURVE",
"113 -232 LINE",
"119 -220 OFFCURVE",
"137 -188 OFFCURVE",
"137 -130 CURVE SMOOTH",
"137 83 LINE",
"171 28 OFFCURVE",
"222 -10 OFFCURVE",
"299 -10 CURVE SMOOTH",
"452 -10 OFFCURVE",
"514 104 OFFCURVE",
"514 244 CURVE SMOOTH",
"514 381 OFFCURVE",
"446 495 OFFCURVE",
"303 495 CURVE SMOOTH",
"226 495 OFFCURVE",
"170 455 OFFCURVE",
"136 402 CURVE",
"136 447 OFFCURVE",
"121 485 OFFCURVE",
"109 496 CURVE",
"60 477 LINE",
"72 456 OFFCURVE",
"83 430 OFFCURVE",
"83 365 CURVE SMOOTH",
"83 -130 LINE SMOOTH"
);
}
);
width = 574;
}
);
note = p;
unicode = 0070;
},
{
color = 3;
glyphname = q;
lastChange = "2018-02-06 06:18:52 +0000";
layers = (
{
layerId = "0B1DFD06-3317-40CA-B510-4969A0718C16";
paths = (
{
closed = 1;
nodes = (
"118 347 OFFCURVE",
"152 446 OFFCURVE",
"267 446 CURVE SMOOTH",
"371 446 OFFCURVE",
"437 359 OFFCURVE",
"437 272 CURVE SMOOTH",
"437 214 LINE SMOOTH",
"437 129 OFFCURVE",
"379 39 OFFCURVE",
"275 39 CURVE SMOOTH",
"150 39 OFFCURVE",
"118 145 OFFCURVE",
"118 247 CURVE SMOOTH"
);
},
{
closed = 1;
nodes = (
"491 365 LINE SMOOTH",
"491 430 OFFCURVE",
"502 456 OFFCURVE",
"514 477 CURVE",
"465 496 LINE",
"453 485 OFFCURVE",
"438 447 OFFCURVE",
"438 402 CURVE",
"404 455 OFFCURVE",
"344 495 OFFCURVE",
"267 495 CURVE SMOOTH",
"124 495 OFFCURVE",
"60 384 OFFCURVE",
"60 247 CURVE SMOOTH",
"60 107 OFFCURVE",
"122 -10 OFFCURVE",
"275 -10 CURVE SMOOTH",
"352 -10 OFFCURVE",
"403 28 OFFCURVE",
"437 83 CURVE",
"437 -130 LINE SMOOTH",
"437 -188 OFFCURVE",
"455 -220 OFFCURVE",
"461 -232 CURVE",
"510 -213 LINE",
"506 -211 OFFCURVE",
"491 -168 OFFCURVE",
"491 -130 CURVE SMOOTH"
);
}
);
width = 574;
}
);
note = q;
unicode = 0071;
},
{
color = 3;
glyphname = r;
lastChange = "2018-02-06 06:38:23 +0000";
layers = (
{
layerId = "0B1DFD06-3317-40CA-B510-4969A0718C16";
paths = (
{
closed = 1;
nodes = (
"290 446 OFFCURVE",
"309 441 OFFCURVE",
"322 434 CURVE",
"345 477 LINE",
"319 489 OFFCURVE",
"301 495 OFFCURVE",
"273 495 CURVE SMOOTH",
"206 495 OFFCURVE",
"164 462 OFFCURVE",
"134 402 CURVE",
"129 446 OFFCURVE",
"118 479 OFFCURVE",
"109 495 CURVE",
"60 476 LINE",
"74 455 OFFCURVE",
"82 423 OFFCURVE",
"82 372 CURVE SMOOTH",
"82 0 LINE",
"136 0 LINE",
"136 273 LINE SMOOTH",
"136 361 OFFCURVE",
"181 446 OFFCURVE",
"268 446 CURVE"
);
}
);
width = 395;
}
);
note = r;
unicode = 0072;
},
{
color = 3;
glyphname = s;
lastChange = "2018-02-06 06:38:23 +0000";
layers = (
{
layerId = "0B1DFD06-3317-40CA-B510-4969A0718C16";
paths = (
{
closed = 1;
nodes = (
"427 197 OFFCURVE",
"380 217 OFFCURVE",
"263 265 CURVE SMOOTH",
"181 299 OFFCURVE",
"131 309 OFFCURVE",
"131 370 CURVE SMOOTH",
"131 417 OFFCURVE",
"169 446 OFFCURVE",
"241 446 CURVE SMOOTH",
"312 446 OFFCURVE",
"355 415 OFFCURVE",
"371 403 CURVE",
"394 449 LINE",
"365 470 OFFCURVE",
"312 495 OFFCURVE",
"242 495 CURVE SMOOTH",
"131 495 OFFCURVE",
"74 442 OFFCURVE",
"74 370 CURVE SMOOTH",
"74 290 OFFCURVE",
"131 256 OFFCURVE",
"239 217 CURVE SMOOTH",
"352 176 OFFCURVE",
"370 161 OFFCURVE",
"370 113 CURVE SMOOTH",
"370 61 OFFCURVE",
"323 39 OFFCURVE",
"255 39 CURVE SMOOTH",
"180 39 OFFCURVE",
"122 75 OFFCURVE",
"96 101 CURVE",
"60 58 LINE",
"93 30 OFFCURVE",
"152 -10 OFFCURVE",
"254 -10 CURVE SMOOTH",
"364 -10 OFFCURVE",
"427 36 OFFCURVE",
"427 114 CURVE SMOOTH"
);
}
);
width = 487;
}
);
note = s;
unicode = 0073;
},
{
color = 3;
glyphname = t;
lastChange = "2018-02-06 06:38:23 +0000";
layers = (
{
layerId = "0B1DFD06-3317-40CA-B510-4969A0718C16";
paths = (
{
closed = 1;
nodes = (
"201 39 OFFCURVE",
"186 59 OFFCURVE",
"186 116 CURVE SMOOTH",
"186 441 LINE",
"293 441 LINE",
"304 485 LINE",
"185 485 LINE",
"185 649 LINE",
"166 649 LINE",
"132 622 LINE",
"132 485 LINE",
"62 485 LINE",
"50 441 LINE",
"132 441 LINE",
"132 112 LINE SMOOTH",
"132 37 OFFCURVE",
"158 -9 OFFCURVE",
"237 -9 CURVE SMOOTH",
"266 -9 OFFCURVE",
"296 -3 OFFCURVE",
"313 4 CURVE",
"299 50 LINE",
"285 44 OFFCURVE",
"267 39 OFFCURVE",
"242 39 CURVE SMOOTH"
);
}
);
width = 363;
}
);
note = t;
unicode = 0074;
},
{
color = 3;
glyphname = u;
lastChange = "2018-02-06 06:38:23 +0000";
layers = (
{
layerId = "0B1DFD06-3317-40CA-B510-4969A0718C16";
paths = (
{
closed = 1;
nodes = (
"75 485 LINE",
"75 169 LINE SMOOTH",
"75 53 OFFCURVE",
"147 -10 OFFCURVE",
"247 -10 CURVE SMOOTH",
"314 -10 OFFCURVE",
"366 23 OFFCURVE",
"396 83 CURVE",
"401 39 OFFCURVE",
"412 6 OFFCURVE",
"421 -10 CURVE",
"470 9 LINE",
"456 30 OFFCURVE",
"448 62 OFFCURVE",
"448 113 CURVE SMOOTH",
"448 485 LINE",
"394 485 LINE",
"394 212 LINE SMOOTH",
"394 124 OFFCURVE",
"337 39 OFFCURVE",
"253 39 CURVE SMOOTH",
"174 39 OFFCURVE",
"129 83 OFFCURVE",
"129 168 CURVE SMOOTH",
"129 485 LINE"
);
}
);
width = 530;
}
);
note = u;
unicode = 0075;
},
{
color = 3;
glyphname = v;
lastChange = "2018-02-06 06:38:23 +0000";
layers = (
{
layerId = "0B1DFD06-3317-40CA-B510-4969A0718C16";
paths = (
{
closed = 1;
nodes = (
"269 73 LINE",
"115 495 LINE",
"60 495 LINE",
"238 22 LINE",
"235 16 LINE SMOOTH",
"222 -10 OFFCURVE",
"280 -32 OFFCURVE",
"292 0 CURVE SMOOTH",
"477 495 LINE",
"421 495 LINE"
);
}
);
width = 537;
}
);
note = v;
unicode = 0076;
},
{
color = 3;
glyphname = w;
lastChange = "2018-02-06 06:38:23 +0000";
layers = (
{
layerId = "0B1DFD06-3317-40CA-B510-4969A0718C16";
paths = (
{
closed = 1;
nodes = (
"230 72 LINE",
"115 495 LINE",
"60 495 LINE",
"196 30 LINE",
"191 15 LINE SMOOTH",
"186 0 OFFCURVE",
"206 -10 OFFCURVE",
"225 -10 CURVE SMOOTH",
"241 -10 OFFCURVE",
"251 -4 OFFCURVE",
"256 12 CURVE SMOOTH",
"371 390 LINE",
"486 12 LINE SMOOTH",
"491 -4 OFFCURVE",
"501 -10 OFFCURVE",
"517 -10 CURVE SMOOTH",
"536 -10 OFFCURVE",
"556 0 OFFCURVE",
"551 15 CURVE SMOOTH",
"546 30 LINE",
"682 495 LINE",
"627 495 LINE",
"512 72 LINE",
"402 447 LINE",
"406 466 LINE",
"419 489 OFFCURVE",
"363 508 OFFCURVE",
"353 486 CURVE"
);
}
);
width = 742;
}
);
note = w;
unicode = 0077;
},
{
color = 3;
glyphname = x;
lastChange = "2018-02-06 06:38:23 +0000";
layers = (
{
layerId = "0B1DFD06-3317-40CA-B510-4969A0718C16";
paths = (
{
closed = 1;
nodes = (
"383 0 LINE",
"442 0 LINE",
"280 256 LINE",
"442 495 LINE",
"385 495 LINE",
"251 291 LINE",
"117 495 LINE",
"60 495 LINE",
"222 256 LINE",
"60 0 LINE",
"119 0 LINE",
"251 220 LINE"
);
}
);
width = 502;
}
);
note = x;
unicode = 0078;
},
{
color = 3;
glyphname = y;
lastChange = "2018-02-06 06:38:23 +0000";
layers = (
{
layerId = "0B1DFD06-3317-40CA-B510-4969A0718C16";
paths = (
{
closed = 1;
nodes = (
"509 495 LINE",
"458 495 LINE",
"292 60 LINE",
"115 495 LINE",
"60 495 LINE",
"263 15 LINE",
"222 -131 OFFCURVE",
"188 -157 OFFCURVE",
"103 -185 CURVE",
"119 -232 LINE",
"206 -202 OFFCURVE",
"253 -166 OFFCURVE",
"291 -67 CURVE SMOOTH"
);
}
);
width = 569;
}
);
note = y;
unicode = 0079;
},
{
color = 3;
glyphname = z;
lastChange = "2018-02-06 06:38:23 +0000";
layers = (
{
layerId = "0B1DFD06-3317-40CA-B510-4969A0718C16";
paths = (
{
closed = 1;
nodes = (
"427 505 OFFCURVE",
"416 495 OFFCURVE",
"416 495 CURVE SMOOTH",
"89 495 LINE",
"89 451 LINE",
"401 451 LINE",
"97 64 LINE",
"91 56 OFFCURVE",
"85 49 OFFCURVE",
"76 41 CURVE SMOOTH",
"62 30 OFFCURVE",
"56 27 OFFCURVE",
"63 13 CURVE",
"79 -13 OFFCURVE",
"93 -16 OFFCURVE",
"100 -13 CURVE",
"109 -10 OFFCURVE",
"116 0 OFFCURVE",
"125 0 CURVE SMOOTH",
"473 0 LINE",
"473 44 LINE",
"143 44 LINE",
"468 458 LINE SMOOTH",
"479 473 OFFCURVE",
"487 479 OFFCURVE",
"470 500 CURVE SMOOTH",
"456 517 OFFCURVE",
"439 516 OFFCURVE",
"434 511 CURVE"
);
}
);
width = 540;
}
);
note = z;
unicode = 007A;
},
{
glyphname = AE;
lastChange = "2017-12-19 06:12:08 +0000";
layers = (
{
layerId = "0B1DFD06-3317-40CA-B510-4969A0718C16";
paths = (
{
closed = 1;
nodes = (
"798 645 LINE",
"799 703 LINE",
"433 703 LINE SMOOTH",
"405 703 OFFCURVE",
"384 681 OFFCURVE",
"372 656 CURVE",
"3 16 LINE",
"53 -10 LINE",
"173 188 LINE",
"449 188 LINE",
"448 56 LINE SMOOTH",
"448 31 OFFCURVE",
"467 1 OFFCURVE",
"502 1 CURVE SMOOTH",
"798 1 LINE",
"798 59 LINE",
"508 59 LINE",
"508 335 LINE",
"767 335 LINE",
"765 393 LINE",
"508 393 LINE",
"508 645 LINE"
);
},
{
closed = 1;
nodes = (
"201 241 LINE",
"422 642 LINE",
"449 644 LINE",
"449 642 OFFCURVE",
"449 642 OFFCURVE",
"449 641 CURVE SMOOTH",
"449 241 LINE"
);
}
);
width = 832;
}
);
note = AE;
unicode = 00C6;
},
{
glyphname = Eth;
lastChange = "2017-12-19 06:12:24 +0000";
layers = (
{
layerId = "0B1DFD06-3317-40CA-B510-4969A0718C16";
paths = (
{
closed = 1;
nodes = (
"97 0 LINE",
"269 0 LINE SMOOTH",
"476 0 OFFCURVE",
"631 118 OFFCURVE",
"631 352 CURVE SMOOTH",
"631 582 OFFCURVE",
"476 700 OFFCURVE",
"269 700 CURVE SMOOTH",
"133 700 LINE",
"126 707 OFFCURVE",
"117 713 OFFCURVE",
"111 713 CURVE SMOOTH",
"92 713 OFFCURVE",
"78 697 OFFCURVE",
"75 688 CURVE",
"71 671 OFFCURVE",
"96 659 OFFCURVE",
"97 642 CURVE",
"97 384 LINE",
"3 384 LINE",
"3 328 LINE",
"97 328 LINE"
);
},
{
closed = 1;
nodes = (
"155 58 LINE",
"155 328 LINE",
"315 328 LINE",
"315 384 LINE",
"155 384 LINE",
"155 642 LINE",
"244 642 LINE SMOOTH",
"424 642 OFFCURVE",
"569 557 OFFCURVE",
"569 352 CURVE SMOOTH",
"569 174 OFFCURVE",
"459 58 OFFCURVE",
"282 58 CURVE SMOOTH"
);
}
);
width = 703;
}
);
note = Eth;
unicode = 00D0;
},
{
glyphname = Dcroat;
lastChange = "2017-12-19 07:48:04 +0000";
layers = (
{
layerId = "0B1DFD06-3317-40CA-B510-4969A0718C16";
paths = (
{
closed = 1;
nodes = (
"97 0 LINE",
"269 0 LINE SMOOTH",
"476 0 OFFCURVE",
"631 118 OFFCURVE",
"631 352 CURVE SMOOTH",
"631 582 OFFCURVE",
"476 700 OFFCURVE",
"269 700 CURVE SMOOTH",
"133 700 LINE",
"126 707 OFFCURVE",
"117 713 OFFCURVE",
"111 713 CURVE SMOOTH",
"92 713 OFFCURVE",
"78 697 OFFCURVE",
"75 688 CURVE",
"71 671 OFFCURVE",
"96 659 OFFCURVE",
"97 642 CURVE",
"97 384 LINE",
"3 384 LINE",
"3 328 LINE",
"97 328 LINE"
);
},
{
closed = 1;
nodes = (
"155 58 LINE",
"155 328 LINE",
"315 328 LINE",
"315 384 LINE",
"155 384 LINE",
"155 642 LINE",
"244 642 LINE SMOOTH",
"424 642 OFFCURVE",
"569 557 OFFCURVE",
"569 352 CURVE SMOOTH",
"569 174 OFFCURVE",
"459 58 OFFCURVE",
"282 58 CURVE SMOOTH"
);
}
);
width = 703;
}
);
note = Dcroat;
unicode = 0110;
},
{
glyphname = Eacute;
lastChange = "2018-03-04 14:29:51 +0000";
layers = (
{
background = {
paths = (
{
closed = 1;
nodes = (
"554 0 LINE",
"571 179 LINE",
"544 179 LINE",
"538 124 OFFCURVE",
"520 40 OFFCURVE",
"456 40 CURVE SMOOTH",
"201 40 LINE",
"201 659 LINE",
"441 659 LINE SMOOTH",
"516 659 OFFCURVE",
"525 567 OFFCURVE",
"528 527 CURVE",
"555 527 LINE",
"555 700 LINE",
"16 700 LINE",
"16 673 LINE",
"44 673 LINE SMOOTH",
"83 673 OFFCURVE",
"103 662 OFFCURVE",
"103 637 CURVE SMOOTH",
"103 62 LINE SMOOTH",
"103 37 OFFCURVE",
"83 26 OFFCURVE",
"44 26 CURVE SMOOTH",
"16 26 LINE",
"16 0 LINE"
);
},
{
closed = 1;
nodes = (
"455 251 LINE",
"455 485 LINE",
"431 485 LINE",
"427 436 OFFCURVE",
"424 388 OFFCURVE",
"379 388 CURVE SMOOTH",
"162 388 LINE",
"162 348 LINE",
"379 348 LINE SMOOTH",
"424 348 OFFCURVE",
"427 300 OFFCURVE",
"431 251 CURVE"
);
},
{
closed = 1;
nodes = (
"398 865 LINE SMOOTH",
"420 877 OFFCURVE",
"432 890 OFFCURVE",
"432 907 CURVE SMOOTH",
"432 922 OFFCURVE",
"420 937 OFFCURVE",
"398 937 CURVE SMOOTH",
"377 937 OFFCURVE",
"362 921 OFFCURVE",
"354 914 CURVE SMOOTH",
"239 807 LINE",
"256 782 LINE"
);
}
);
};
components = (
{
name = E;
},
{
name = acute;
transform = "{1, 0, 0, 1, 56, 230}";
}
);
layerId = "0B1DFD06-3317-40CA-B510-4969A0718C16";
width = 505;
}
);
note = Eacute;
unicode = 00C9;
},
{
glyphname = Ebreve;
lastChange = "2018-03-04 14:29:51 +0000";
layers = (
{
background = {
paths = (
{
closed = 1;
nodes = (
"554 0 LINE",
"571 179 LINE",
"544 179 LINE",
"538 124 OFFCURVE",
"520 40 OFFCURVE",
"456 40 CURVE SMOOTH",
"201 40 LINE",
"201 659 LINE",
"441 659 LINE SMOOTH",
"516 659 OFFCURVE",
"525 567 OFFCURVE",
"528 527 CURVE",
"555 527 LINE",
"555 700 LINE",
"16 700 LINE",
"16 673 LINE",
"44 673 LINE SMOOTH",
"83 673 OFFCURVE",
"103 662 OFFCURVE",
"103 637 CURVE SMOOTH",
"103 62 LINE SMOOTH",
"103 37 OFFCURVE",
"83 26 OFFCURVE",
"44 26 CURVE SMOOTH",
"16 26 LINE",
"16 0 LINE"
);
},
{
closed = 1;
nodes = (
"455 251 LINE",
"455 485 LINE",
"431 485 LINE",
"427 436 OFFCURVE",
"424 388 OFFCURVE",
"379 388 CURVE SMOOTH",
"162 388 LINE",
"162 348 LINE",
"379 348 LINE SMOOTH",
"424 348 OFFCURVE",
"427 300 OFFCURVE",
"431 251 CURVE"
);
},
{
closed = 1;
nodes = (
"432 776 OFFCURVE",
"474 832 OFFCURVE",
"478 907 CURVE",
"445 907 LINE",
"439 848 OFFCURVE",
"397 822 OFFCURVE",
"333 822 CURVE SMOOTH",
"269 822 OFFCURVE",
"226 848 OFFCURVE",
"219 907 CURVE",
"186 907 LINE",
"190 829 OFFCURVE",
"232 776 OFFCURVE",
"333 776 CURVE SMOOTH"
);
}
);
};
components = (
{
name = E;
},
{
name = breve;
transform = "{1, 0, 0, 1, 68, 230}";
}
);
layerId = "0B1DFD06-3317-40CA-B510-4969A0718C16";
width = 505;
}
);
note = Ebreve;
unicode = 0114;
},
{
glyphname = Ecaron;
lastChange = "2018-03-04 14:29:51 +0000";
layers = (
{
background = {
paths = (
{
closed = 1;
nodes = (
"554 0 LINE",
"571 179 LINE",
"544 179 LINE",
"538 124 OFFCURVE",
"520 40 OFFCURVE",
"456 40 CURVE SMOOTH",
"201 40 LINE",
"201 659 LINE",
"441 659 LINE SMOOTH",
"516 659 OFFCURVE",
"525 567 OFFCURVE",
"528 527 CURVE",
"555 527 LINE",
"555 700 LINE",
"16 700 LINE",
"16 673 LINE",
"44 673 LINE SMOOTH",
"83 673 OFFCURVE",
"103 662 OFFCURVE",
"103 637 CURVE SMOOTH",
"103 62 LINE SMOOTH",
"103 37 OFFCURVE",
"83 26 OFFCURVE",
"44 26 CURVE SMOOTH",
"16 26 LINE",
"16 0 LINE"
);
},
{
closed = 1;
nodes = (
"455 251 LINE",
"455 485 LINE",
"431 485 LINE",
"427 436 OFFCURVE",
"424 388 OFFCURVE",
"379 388 CURVE SMOOTH",
"162 388 LINE",
"162 348 LINE",
"379 348 LINE SMOOTH",
"424 348 OFFCURVE",
"427 300 OFFCURVE",
"431 251 CURVE"
);
},
{
closed = 1;
nodes = (
"357 782 LINE",
"481 911 LINE",
"462 932 LINE",
"354 847 LINE",
"346 840 OFFCURVE",
"337 836 OFFCURVE",
"331 836 CURVE SMOOTH",
"325 836 OFFCURVE",
"317 840 OFFCURVE",
"307 847 CURVE",
"199 932 LINE",
"180 911 LINE",
"304 782 LINE"
);
}
);
};
components = (
{
name = E;
},
{
name = caron;
transform = "{1, 0, 0, 1, 68, 230}";
}
);
layerId = "0B1DFD06-3317-40CA-B510-4969A0718C16";
width = 505;
}
);
note = Ecaron;
unicode = 011A;
},
{
glyphname = Ecircumflex;
lastChange = "2018-03-04 14:29:51 +0000";
layers = (
{
background = {
paths = (
{
closed = 1;
nodes = (
"554 0 LINE",
"571 179 LINE",
"544 179 LINE",
"538 124 OFFCURVE",
"520 40 OFFCURVE",
"456 40 CURVE SMOOTH",
"201 40 LINE",
"201 659 LINE",
"441 659 LINE SMOOTH",
"516 659 OFFCURVE",
"525 567 OFFCURVE",
"528 527 CURVE",
"555 527 LINE",
"555 700 LINE",
"16 700 LINE",
"16 673 LINE",
"44 673 LINE SMOOTH",
"83 673 OFFCURVE",
"103 662 OFFCURVE",
"103 637 CURVE SMOOTH",
"103 62 LINE SMOOTH",
"103 37 OFFCURVE",
"83 26 OFFCURVE",
"44 26 CURVE SMOOTH",
"16 26 LINE",
"16 0 LINE"
);
},
{
closed = 1;
nodes = (
"455 251 LINE",
"455 485 LINE",
"431 485 LINE",
"427 436 OFFCURVE",
"424 388 OFFCURVE",
"379 388 CURVE SMOOTH",
"162 388 LINE",
"162 348 LINE",
"379 348 LINE SMOOTH",
"424 348 OFFCURVE",
"427 300 OFFCURVE",
"431 251 CURVE"
);
},
{
closed = 1;
nodes = (
"304 868 LINE SMOOTH",
"312 874 OFFCURVE",
"322 879 OFFCURVE",
"328 879 CURVE SMOOTH",
"334 879 OFFCURVE",
"342 874 OFFCURVE",
"351 868 CURVE",
"459 782 LINE",
"478 803 LINE",
"354 932 LINE",
"301 932 LINE",
"177 803 LINE",
"196 782 LINE"
);
}
);
};
components = (
{
name = E;
},
{
name = circumflex;
transform = "{1, 0, 0, 1, 68, 230}";
}
);
layerId = "0B1DFD06-3317-40CA-B510-4969A0718C16";
width = 505;
}
);
note = Ecircumflex;
unicode = 00CA;
},
{
glyphname = Ecircumflexacute;
lastChange = "2017-12-19 05:21:12 +0000";
layers = (
{
background = {
paths = (
{
closed = 1;
nodes = (
"554 0 LINE",
"571 179 LINE",
"544 179 LINE",
"538 124 OFFCURVE",
"520 40 OFFCURVE",
"456 40 CURVE SMOOTH",
"201 40 LINE",
"201 659 LINE",
"441 659 LINE SMOOTH",
"516 659 OFFCURVE",
"525 567 OFFCURVE",
"528 527 CURVE",
"555 527 LINE",
"555 700 LINE",
"16 700 LINE",
"16 673 LINE",
"44 673 LINE SMOOTH",
"83 673 OFFCURVE",
"103 662 OFFCURVE",
"103 637 CURVE SMOOTH",
"103 62 LINE SMOOTH",
"103 37 OFFCURVE",
"83 26 OFFCURVE",
"44 26 CURVE SMOOTH",
"16 26 LINE",
"16 0 LINE"
);
},
{
closed = 1;
nodes = (
"455 251 LINE",
"455 485 LINE",
"431 485 LINE",
"427 436 OFFCURVE",
"424 388 OFFCURVE",
"379 388 CURVE SMOOTH",
"162 388 LINE",
"162 348 LINE",
"379 348 LINE SMOOTH",
"424 348 OFFCURVE",
"427 300 OFFCURVE",
"431 251 CURVE"
);
},
{
closed = 1;
nodes = (
"290 862 LINE SMOOTH",
"300 870 OFFCURVE",
"310 878 OFFCURVE",
"318 878 CURVE SMOOTH",
"324 878 OFFCURVE",
"332 873 OFFCURVE",
"341 867 CURVE",
"447 781 LINE",
"466 803 LINE",
"344 932 LINE",
"293 932 LINE",
"171 803 LINE",
"189 781 LINE"
);
},
{
closed = 1;
nodes = (
"555 960 LINE SMOOTH",
"578 972 OFFCURVE",
"591 988 OFFCURVE",
"591 1003 CURVE SMOOTH",
"591 1017 OFFCURVE",
"580 1034 OFFCURVE",
"557 1034 CURVE SMOOTH",
"538 1034 OFFCURVE",
"521 1018 OFFCURVE",
"511 1008 CURVE SMOOTH",
"415 915 LINE",
"433 893 LINE"
);
}
);
};
components = (
{
name = E;
},
{
name = circumflexacute;
transform = "{1, 0, 0, 1, 564, 230}";
}
);
layerId = "0B1DFD06-3317-40CA-B510-4969A0718C16";
width = 607;
}
);
note = Ecircumflexacute;
unicode = 1EBE;
},
{
glyphname = Ecircumflexdotbelow;
lastChange = "2018-03-04 14:29:51 +0000";
layers = (
{
background = {
paths = (
{
closed = 1;
nodes = (
"554 0 LINE",
"571 179 LINE",
"544 179 LINE",
"538 124 OFFCURVE",
"520 40 OFFCURVE",
"456 40 CURVE SMOOTH",
"201 40 LINE",
"201 659 LINE",
"441 659 LINE SMOOTH",
"516 659 OFFCURVE",
"525 567 OFFCURVE",
"528 527 CURVE",
"555 527 LINE",
"555 700 LINE",
"16 700 LINE",
"16 673 LINE",
"44 673 LINE SMOOTH",
"83 673 OFFCURVE",
"103 662 OFFCURVE",
"103 637 CURVE SMOOTH",
"103 62 LINE SMOOTH",
"103 37 OFFCURVE",
"83 26 OFFCURVE",
"44 26 CURVE SMOOTH",
"16 26 LINE",
"16 0 LINE"
);
},
{
closed = 1;
nodes = (
"350 -159 OFFCURVE",
"368 -140 OFFCURVE",
"368 -112 CURVE SMOOTH",
"368 -84 OFFCURVE",
"350 -64 OFFCURVE",
"322 -64 CURVE SMOOTH",
"294 -64 OFFCURVE",
"275 -84 OFFCURVE",
"275 -112 CURVE SMOOTH",
"275 -140 OFFCURVE",
"294 -159 OFFCURVE",
"322 -159 CURVE SMOOTH"
);
},
{
closed = 1;
nodes = (
"455 251 LINE",
"455 485 LINE",
"431 485 LINE",
"427 436 OFFCURVE",
"424 388 OFFCURVE",
"379 388 CURVE SMOOTH",
"162 388 LINE",
"162 348 LINE",
"379 348 LINE SMOOTH",
"424 348 OFFCURVE",
"427 300 OFFCURVE",
"431 251 CURVE"
);
},
{
closed = 1;
nodes = (
"294 868 LINE SMOOTH",
"302 874 OFFCURVE",
"312 879 OFFCURVE",
"318 879 CURVE SMOOTH",
"324 879 OFFCURVE",
"332 874 OFFCURVE",
"341 868 CURVE",
"449 782 LINE",
"468 803 LINE",
"344 932 LINE",
"291 932 LINE",
"167 803 LINE",
"186 782 LINE"
);
}
);
};
components = (
{
name = E;
},
{
name = dotbelowcomb;
transform = "{1, 0, 0, 1, 565, 0}";
},
{
name = circumflex;
transform = "{1, 0, 0, 1, 68, 230}";
}
);
layerId = "0B1DFD06-3317-40CA-B510-4969A0718C16";
width = 505;
}
);
note = Ecircumflexdotbelow;
unicode = 1EC6;
},
{
glyphname = Ecircumflexgrave;
lastChange = "2017-12-19 05:21:12 +0000";
layers = (
{
background = {
paths = (
{
closed = 1;
nodes = (
"554 0 LINE",
"571 179 LINE",
"544 179 LINE",
"538 124 OFFCURVE",
"520 40 OFFCURVE",
"456 40 CURVE SMOOTH",
"201 40 LINE",
"201 659 LINE",
"441 659 LINE SMOOTH",
"516 659 OFFCURVE",
"525 567 OFFCURVE",
"528 527 CURVE",
"555 527 LINE",
"555 700 LINE",
"16 700 LINE",
"16 673 LINE",
"44 673 LINE SMOOTH",
"83 673 OFFCURVE",
"103 662 OFFCURVE",
"103 637 CURVE SMOOTH",
"103 62 LINE SMOOTH",
"103 37 OFFCURVE",
"83 26 OFFCURVE",
"44 26 CURVE SMOOTH",
"16 26 LINE",
"16 0 LINE"
);
},
{
closed = 1;
nodes = (
"455 251 LINE",
"455 485 LINE",
"431 485 LINE",
"427 436 OFFCURVE",
"424 388 OFFCURVE",
"379 388 CURVE SMOOTH",
"162 388 LINE",
"162 348 LINE",
"379 348 LINE SMOOTH",
"424 348 OFFCURVE",
"427 300 OFFCURVE",
"431 251 CURVE"
);
},
{
closed = 1;
nodes = (
"227 915 LINE",
"132 1008 LINE SMOOTH",
"122 1018 OFFCURVE",
"105 1034 OFFCURVE",
"85 1034 CURVE SMOOTH",
"63 1034 OFFCURVE",
"52 1017 OFFCURVE",
"52 1003 CURVE SMOOTH",
"52 988 OFFCURVE",
"65 972 OFFCURVE",
"88 960 CURVE SMOOTH",
"210 893 LINE"
);
},
{
closed = 1;
nodes = (
"290 862 LINE SMOOTH",
"300 870 OFFCURVE",
"310 878 OFFCURVE",
"318 878 CURVE SMOOTH",
"324 878 OFFCURVE",
"332 873 OFFCURVE",
"341 867 CURVE",
"447 781 LINE",
"466 803 LINE",
"344 932 LINE",
"293 932 LINE",
"171 803 LINE",
"189 781 LINE"
);
}
);
};
components = (
{
name = E;
},
{
name = circumflexgrave;
transform = "{1, 0, 0, 1, 564, 230}";
}
);
layerId = "0B1DFD06-3317-40CA-B510-4969A0718C16";
width = 607;
}
);
note = Ecircumflexgrave;
unicode = 1EC0;
},
{
glyphname = Ecircumflexhookabove;
lastChange = "2017-12-19 05:21:12 +0000";
layers = (
{
background = {
paths = (
{
closed = 1;
nodes = (
"554 0 LINE",
"571 179 LINE",
"544 179 LINE",
"538 124 OFFCURVE",
"520 40 OFFCURVE",
"456 40 CURVE SMOOTH",
"201 40 LINE",
"201 659 LINE",
"441 659 LINE SMOOTH",
"516 659 OFFCURVE",
"525 567 OFFCURVE",
"528 527 CURVE",
"555 527 LINE",
"555 700 LINE",
"16 700 LINE",
"16 673 LINE",
"44 673 LINE SMOOTH",
"83 673 OFFCURVE",
"103 662 OFFCURVE",
"103 637 CURVE SMOOTH",
"103 62 LINE SMOOTH",
"103 37 OFFCURVE",
"83 26 OFFCURVE",
"44 26 CURVE SMOOTH",
"16 26 LINE",
"16 0 LINE"
);
},
{
closed = 1;
nodes = (
"455 251 LINE",
"455 485 LINE",
"431 485 LINE",
"427 436 OFFCURVE",
"424 388 OFFCURVE",
"379 388 CURVE SMOOTH",
"162 388 LINE",
"162 348 LINE",
"379 348 LINE SMOOTH",
"424 348 OFFCURVE",
"427 300 OFFCURVE",
"431 251 CURVE"
);
},
{
closed = 1;
nodes = (
"286 858 LINE",
"297 868 OFFCURVE",
"309 878 OFFCURVE",
"318 878 CURVE SMOOTH",
"324 878 OFFCURVE",
"332 873 OFFCURVE",
"341 867 CURVE",
"447 781 LINE",
"466 803 LINE",
"344 932 LINE",
"293 932 LINE",
"171 803 LINE",
"189 781 LINE"
);
},
{
closed = 1;
nodes = (
"493 898 LINE",
"474 905 OFFCURVE",
"464 912 OFFCURVE",
"464 926 CURVE SMOOTH",
"464 954 OFFCURVE",
"544 965 OFFCURVE",
"544 1010 CURVE SMOOTH",
"544 1047 OFFCURVE",
"502 1063 OFFCURVE",
"460 1063 CURVE SMOOTH",
"429 1063 OFFCURVE",
"384 1053 OFFCURVE",
"384 1022 CURVE SMOOTH",
"384 1010 OFFCURVE",
"395 1001 OFFCURVE",
"405 1001 CURVE SMOOTH",
"434 1001 OFFCURVE",
"421 1040 OFFCURVE",
"464 1040 CURVE SMOOTH",
"483 1040 OFFCURVE",
"494 1028 OFFCURVE",
"494 1013 CURVE SMOOTH",
"494 973 OFFCURVE",
"421 965 OFFCURVE",
"421 925 CURVE SMOOTH",
"421 901 OFFCURVE",
"437 880 OFFCURVE",
"484 880 CURVE"
);
}
);
};
components = (
{
name = E;
},
{
name = circumflexhookabove;
transform = "{1, 0, 0, 1, 564, 230}";
}
);
layerId = "0B1DFD06-3317-40CA-B510-4969A0718C16";
width = 607;
}
);
note = Ecircumflexhookabove;
unicode = 1EC2;
},
{
glyphname = Ecircumflextilde;
lastChange = "2017-12-19 05:21:12 +0000";
layers = (
{
background = {
paths = (
{
closed = 1;
nodes = (
"554 0 LINE",
"571 179 LINE",
"544 179 LINE",
"538 124 OFFCURVE",
"520 40 OFFCURVE",
"456 40 CURVE SMOOTH",
"201 40 LINE",
"201 659 LINE",
"441 659 LINE SMOOTH",
"516 659 OFFCURVE",
"525 567 OFFCURVE",
"528 527 CURVE",
"555 527 LINE",
"555 700 LINE",
"16 700 LINE",
"16 673 LINE",
"44 673 LINE SMOOTH",
"83 673 OFFCURVE",
"103 662 OFFCURVE",
"103 637 CURVE SMOOTH",
"103 62 LINE SMOOTH",
"103 37 OFFCURVE",
"83 26 OFFCURVE",
"44 26 CURVE SMOOTH",
"16 26 LINE",
"16 0 LINE"
);
},
{
closed = 1;
nodes = (
"455 251 LINE",
"455 485 LINE",
"431 485 LINE",
"427 436 OFFCURVE",
"424 388 OFFCURVE",
"379 388 CURVE SMOOTH",
"162 388 LINE",
"162 348 LINE",
"379 348 LINE SMOOTH",
"424 348 OFFCURVE",
"427 300 OFFCURVE",
"431 251 CURVE"
);
},
{
closed = 1;
nodes = (
"290 862 LINE SMOOTH",
"300 870 OFFCURVE",
"310 878 OFFCURVE",
"318 878 CURVE SMOOTH",
"324 878 OFFCURVE",
"332 873 OFFCURVE",
"341 867 CURVE",
"447 781 LINE",
"466 803 LINE",
"344 932 LINE",
"293 932 LINE",
"171 803 LINE",
"189 781 LINE"
);
},
{
closed = 1;
nodes = (
"193 997 OFFCURVE",
"211 1018 OFFCURVE",
"242 1018 CURVE SMOOTH",
"291 1018 OFFCURVE",
"338 964 OFFCURVE",
"387 964 CURVE SMOOTH",
"440 964 OFFCURVE",
"469 1012 OFFCURVE",
"481 1063 CURVE",
"460 1075 LINE",
"447 1035 OFFCURVE",
"431 1012 OFFCURVE",
"398 1012 CURVE SMOOTH",
"351 1012 OFFCURVE",
"302 1065 OFFCURVE",
"253 1065 CURVE SMOOTH",
"202 1065 OFFCURVE",
"170 1021 OFFCURVE",
"160 970 CURVE",
"180 958 LINE"
);
}
);
};
components = (
{
name = E;
},
{
name = circumflextilde;
transform = "{1, 0, 0, 1, 564, 230}";
}
);
layerId = "0B1DFD06-3317-40CA-B510-4969A0718C16";
width = 607;
}
);
note = Ecircumflextilde;
unicode = 1EC4;
},
{
glyphname = Edieresis;
lastChange = "2018-03-04 14:29:51 +0000";
layers = (
{
background = {
paths = (
{
closed = 1;
nodes = (
"554 0 LINE",
"571 179 LINE",
"544 179 LINE",
"538 124 OFFCURVE",
"520 40 OFFCURVE",
"456 40 CURVE SMOOTH",
"201 40 LINE",
"201 659 LINE",
"441 659 LINE SMOOTH",
"516 659 OFFCURVE",
"525 567 OFFCURVE",
"528 527 CURVE",
"555 527 LINE",
"555 700 LINE",
"16 700 LINE",
"16 673 LINE",
"44 673 LINE SMOOTH",
"83 673 OFFCURVE",
"103 662 OFFCURVE",
"103 637 CURVE SMOOTH",
"103 62 LINE SMOOTH",
"103 37 OFFCURVE",
"83 26 OFFCURVE",
"44 26 CURVE SMOOTH",
"16 26 LINE",
"16 0 LINE"
);
},
{
closed = 1;
nodes = (
"455 251 LINE",
"455 485 LINE",
"431 485 LINE",
"427 436 OFFCURVE",
"424 388 OFFCURVE",
"379 388 CURVE SMOOTH",
"162 388 LINE",
"162 348 LINE",
"379 348 LINE SMOOTH",
"424 348 OFFCURVE",
"427 300 OFFCURVE",
"431 251 CURVE"
);
},
{
closed = 1;
nodes = (
"254 781 OFFCURVE",
"272 800 OFFCURVE",
"272 827 CURVE SMOOTH",
"272 855 OFFCURVE",
"254 875 OFFCURVE",
"225 875 CURVE SMOOTH",
"197 875 OFFCURVE",
"179 855 OFFCURVE",
"179 827 CURVE SMOOTH",
"179 800 OFFCURVE",
"197 781 OFFCURVE",
"225 781 CURVE SMOOTH"
);
},
{
closed = 1;
nodes = (
"470 781 OFFCURVE",
"488 800 OFFCURVE",
"488 827 CURVE SMOOTH",
"488 855 OFFCURVE",
"470 875 OFFCURVE",
"441 875 CURVE SMOOTH",
"412 875 OFFCURVE",
"394 855 OFFCURVE",
"394 827 CURVE SMOOTH",
"394 800 OFFCURVE",
"412 781 OFFCURVE",
"441 781 CURVE SMOOTH"
);
}
);
};
components = (
{
name = E;
},
{
name = dieresis;
transform = "{1, 0, 0, 1, 68, 230}";
}
);
layerId = "0B1DFD06-3317-40CA-B510-4969A0718C16";
width = 505;
}
);
note = Edieresis;
unicode = 00CB;
},
{
glyphname = Edotaccent;
lastChange = "2018-03-04 14:29:51 +0000";
layers = (
{
background = {
paths = (
{
closed = 1;
nodes = (
"554 0 LINE",
"571 179 LINE",
"544 179 LINE",
"538 124 OFFCURVE",
"520 40 OFFCURVE",
"456 40 CURVE SMOOTH",
"201 40 LINE",
"201 659 LINE",
"441 659 LINE SMOOTH",
"516 659 OFFCURVE",
"525 567 OFFCURVE",
"528 527 CURVE",
"555 527 LINE",
"555 700 LINE",
"16 700 LINE",
"16 673 LINE",
"44 673 LINE SMOOTH",
"83 673 OFFCURVE",
"103 662 OFFCURVE",
"103 637 CURVE SMOOTH",
"103 62 LINE SMOOTH",
"103 37 OFFCURVE",
"83 26 OFFCURVE",
"44 26 CURVE SMOOTH",
"16 26 LINE",
"16 0 LINE"
);
},
{
closed = 1;
nodes = (
"455 251 LINE",
"455 485 LINE",
"431 485 LINE",
"427 436 OFFCURVE",
"424 388 OFFCURVE",
"379 388 CURVE SMOOTH",
"162 388 LINE",
"162 348 LINE",
"379 348 LINE SMOOTH",
"424 348 OFFCURVE",
"427 300 OFFCURVE",
"431 251 CURVE"
);
},
{
closed = 1;
nodes = (
"362 765 OFFCURVE",
"380 784 OFFCURVE",
"380 811 CURVE SMOOTH",
"380 839 OFFCURVE",
"362 858 OFFCURVE",
"334 858 CURVE SMOOTH",
"305 858 OFFCURVE",
"287 839 OFFCURVE",
"287 811 CURVE SMOOTH",
"287 784 OFFCURVE",
"305 765 OFFCURVE",
"334 765 CURVE SMOOTH"
);
}
);
};
components = (
{
name = E;
},
{
name = dotaccent;
transform = "{1, 0, 0, 1, 68, 230}";
}
);
layerId = "0B1DFD06-3317-40CA-B510-4969A0718C16";
width = 505;
}
);
note = Edotaccent;
unicode = 0116;
},
{
glyphname = Edotbelow;
lastChange = "2018-03-04 14:29:51 +0000";
layers = (
{
background = {
paths = (
{
closed = 1;
nodes = (
"554 0 LINE",
"571 179 LINE",
"544 179 LINE",
"538 124 OFFCURVE",
"520 40 OFFCURVE",
"456 40 CURVE SMOOTH",
"201 40 LINE",
"201 659 LINE",
"441 659 LINE SMOOTH",
"516 659 OFFCURVE",
"525 567 OFFCURVE",
"528 527 CURVE",
"555 527 LINE",
"555 700 LINE",
"16 700 LINE",
"16 673 LINE",
"44 673 LINE SMOOTH",
"83 673 OFFCURVE",
"103 662 OFFCURVE",
"103 637 CURVE SMOOTH",
"103 62 LINE SMOOTH",
"103 37 OFFCURVE",
"83 26 OFFCURVE",
"44 26 CURVE SMOOTH",
"16 26 LINE",
"16 0 LINE"
);
},
{
closed = 1;
nodes = (
"343 -159 OFFCURVE",
"361 -140 OFFCURVE",
"361 -112 CURVE SMOOTH",
"361 -84 OFFCURVE",
"343 -64 OFFCURVE",
"315 -64 CURVE SMOOTH",
"287 -64 OFFCURVE",
"268 -84 OFFCURVE",
"268 -112 CURVE SMOOTH",
"268 -140 OFFCURVE",
"287 -159 OFFCURVE",
"315 -159 CURVE SMOOTH"
);
},
{
closed = 1;
nodes = (
"455 251 LINE",
"455 485 LINE",
"431 485 LINE",
"427 436 OFFCURVE",
"424 388 OFFCURVE",
"379 388 CURVE SMOOTH",
"162 388 LINE",
"162 348 LINE",
"379 348 LINE SMOOTH",
"424 348 OFFCURVE",
"427 300 OFFCURVE",
"431 251 CURVE"
);
}
);
};
components = (
{
name = E;
},
{
name = dotbelowcomb;
transform = "{1, 0, 0, 1, 565, 0}";
}
);
layerId = "0B1DFD06-3317-40CA-B510-4969A0718C16";
width = 505;
}
);
note = Edotbelow;
unicode = 1EB8;
},
{
glyphname = Egrave;
lastChange = "2018-03-04 14:29:51 +0000";
layers = (
{
background = {
paths = (
{
closed = 1;
nodes = (
"554 0 LINE",
"571 179 LINE",
"544 179 LINE",
"538 124 OFFCURVE",
"520 40 OFFCURVE",
"456 40 CURVE SMOOTH",
"201 40 LINE",
"201 659 LINE",
"441 659 LINE SMOOTH",
"516 659 OFFCURVE",
"525 567 OFFCURVE",
"528 527 CURVE",
"555 527 LINE",
"555 700 LINE",
"16 700 LINE",
"16 673 LINE",
"44 673 LINE SMOOTH",
"83 673 OFFCURVE",
"103 662 OFFCURVE",
"103 637 CURVE SMOOTH",
"103 62 LINE SMOOTH",
"103 37 OFFCURVE",
"83 26 OFFCURVE",
"44 26 CURVE SMOOTH",
"16 26 LINE",
"16 0 LINE"
);
},
{
closed = 1;
nodes = (
"455 251 LINE",
"455 485 LINE",
"431 485 LINE",
"427 436 OFFCURVE",
"424 388 OFFCURVE",
"379 388 CURVE SMOOTH",
"162 388 LINE",
"162 348 LINE",
"379 348 LINE SMOOTH",
"424 348 OFFCURVE",
"427 300 OFFCURVE",
"431 251 CURVE"
);
},
{
closed = 1;
nodes = (
"425 807 LINE",
"310 913 LINE",
"301 922 OFFCURVE",
"285 937 OFFCURVE",
"265 937 CURVE SMOOTH",
"245 937 OFFCURVE",
"233 924 OFFCURVE",
"233 908 CURVE SMOOTH",
"233 890 OFFCURVE",
"245 876 OFFCURVE",
"264 865 CURVE SMOOTH",
"407 782 LINE"
);
}
);
};
components = (
{
name = E;
},
{
name = grave;
transform = "{1, 0, 0, 1, 68, 230}";
}
);
layerId = "0B1DFD06-3317-40CA-B510-4969A0718C16";
width = 505;
}
);
note = Egrave;
unicode = 00C8;
},
{
glyphname = Ehookabove;
lastChange = "2018-03-04 14:29:51 +0000";
layers = (
{
background = {
paths = (
{
closed = 1;
nodes = (
"554 0 LINE",
"571 179 LINE",
"544 179 LINE",
"538 124 OFFCURVE",
"520 40 OFFCURVE",
"456 40 CURVE SMOOTH",
"201 40 LINE",
"201 659 LINE",
"441 659 LINE SMOOTH",
"516 659 OFFCURVE",
"525 567 OFFCURVE",
"528 527 CURVE",
"555 527 LINE",
"555 700 LINE",
"16 700 LINE",
"16 673 LINE",
"44 673 LINE SMOOTH",
"83 673 OFFCURVE",
"103 662 OFFCURVE",
"103 637 CURVE SMOOTH",
"103 62 LINE SMOOTH",
"103 37 OFFCURVE",
"83 26 OFFCURVE",
"44 26 CURVE SMOOTH",
"16 26 LINE",
"16 0 LINE"
);
},
{
closed = 1;
nodes = (
"455 251 LINE",
"455 485 LINE",
"431 485 LINE",
"427 436 OFFCURVE",
"424 388 OFFCURVE",
"379 388 CURVE SMOOTH",
"162 388 LINE",
"162 348 LINE",
"379 348 LINE SMOOTH",
"424 348 OFFCURVE",
"427 300 OFFCURVE",
"431 251 CURVE"
);
},
{
closed = 1;
nodes = (
"367 798 LINE",
"348 805 OFFCURVE",
"336 811 OFFCURVE",
"336 828 CURVE SMOOTH",
"336 861 OFFCURVE",
"425 876 OFFCURVE",
"425 927 CURVE SMOOTH",
"425 969 OFFCURVE",
"389 991 OFFCURVE",
"336 991 CURVE SMOOTH",
"289 991 OFFCURVE",
"248 974 OFFCURVE",
"248 940 CURVE SMOOTH",
"248 923 OFFCURVE",
"256 915 OFFCURVE",
"271 915 CURVE SMOOTH",
"294 915 OFFCURVE",
"296 934 OFFCURVE",
"299 942 CURVE SMOOTH",
"304 956 OFFCURVE",
"321 962 OFFCURVE",
"337 962 CURVE SMOOTH",
"358 962 OFFCURVE",
"371 947 OFFCURVE",
"371 930 CURVE SMOOTH",
"371 885 OFFCURVE",
"289 874 OFFCURVE",
"289 828 CURVE SMOOTH",
"289 801 OFFCURVE",
"307 778 OFFCURVE",
"358 778 CURVE"
);
}
);
};
components = (
{
name = E;
},
{
name = hookabovecomb;
transform = "{1, 0, 0, 1, 565, 230}";
}
);
layerId = "0B1DFD06-3317-40CA-B510-4969A0718C16";
width = 505;
}
);
note = Ehookabove;
unicode = 1EBA;
},
{
glyphname = Emacron;
lastChange = "2018-03-04 14:29:51 +0000";
layers = (
{
background = {
paths = (
{
closed = 1;
nodes = (
"554 0 LINE",
"571 179 LINE",
"544 179 LINE",
"538 124 OFFCURVE",
"520 40 OFFCURVE",
"456 40 CURVE SMOOTH",
"201 40 LINE",
"201 659 LINE",
"441 659 LINE SMOOTH",
"516 659 OFFCURVE",
"525 567 OFFCURVE",
"528 527 CURVE",
"555 527 LINE",
"555 700 LINE",
"16 700 LINE",
"16 673 LINE",
"44 673 LINE SMOOTH",
"83 673 OFFCURVE",
"103 662 OFFCURVE",
"103 637 CURVE SMOOTH",
"103 62 LINE SMOOTH",
"103 37 OFFCURVE",
"83 26 OFFCURVE",
"44 26 CURVE SMOOTH",
"16 26 LINE",
"16 0 LINE"
);
},
{
closed = 1;
nodes = (
"455 251 LINE",
"455 485 LINE",
"431 485 LINE",
"427 436 OFFCURVE",
"424 388 OFFCURVE",
"379 388 CURVE SMOOTH",
"162 388 LINE",
"162 348 LINE",
"379 348 LINE SMOOTH",
"424 348 OFFCURVE",
"427 300 OFFCURVE",
"431 251 CURVE"
);
},
{
closed = 1;
nodes = (
"495 782 LINE",
"495 824 LINE",
"162 824 LINE",
"162 782 LINE"
);
}
);
};
components = (
{
name = E;
},
{
name = macron;
transform = "{1, 0, 0, 1, 68, 230}";
}
);
layerId = "0B1DFD06-3317-40CA-B510-4969A0718C16";
width = 505;
}
);
note = Emacron;
unicode = 0112;
},
{
glyphname = Eogonek;
lastChange = "2018-03-04 14:29:51 +0000";
layers = (
{
background = {
paths = (
{
closed = 1;
nodes = (
"554 0 LINE",
"571 179 LINE",
"544 179 LINE",
"538 124 OFFCURVE",
"520 40 OFFCURVE",
"456 40 CURVE SMOOTH",
"201 40 LINE",
"201 659 LINE",
"441 659 LINE SMOOTH",
"516 659 OFFCURVE",
"525 567 OFFCURVE",
"528 527 CURVE",
"555 527 LINE",
"555 700 LINE",
"16 700 LINE",
"16 673 LINE",
"44 673 LINE SMOOTH",
"83 673 OFFCURVE",
"103 662 OFFCURVE",
"103 637 CURVE SMOOTH",
"103 62 LINE SMOOTH",
"103 37 OFFCURVE",
"83 26 OFFCURVE",
"44 26 CURVE SMOOTH",
"16 26 LINE",
"16 0 LINE"
);
},
{
closed = 1;
nodes = (
"496 -196 OFFCURVE",
"524 -189 OFFCURVE",
"549 -172 CURVE",
"543 -152 LINE",
"527 -158 OFFCURVE",
"510 -162 OFFCURVE",
"497 -162 CURVE SMOOTH",
"464 -162 OFFCURVE",
"437 -146 OFFCURVE",
"437 -106 CURVE SMOOTH",
"437 -66 OFFCURVE",
"464 -26 OFFCURVE",
"510 4 CURVE",
"469 4 LINE",
"416 -22 OFFCURVE",
"376 -64 OFFCURVE",
"376 -114 CURVE SMOOTH",
"376 -147 OFFCURVE",
"395 -196 OFFCURVE",
"470 -196 CURVE SMOOTH"
);
},
{
closed = 1;
nodes = (
"455 251 LINE",
"455 485 LINE",
"431 485 LINE",
"427 436 OFFCURVE",
"424 388 OFFCURVE",
"379 388 CURVE SMOOTH",
"162 388 LINE",
"162 348 LINE",
"379 348 LINE SMOOTH",
"424 348 OFFCURVE",
"427 300 OFFCURVE",
"431 251 CURVE"
);
}
);
};
components = (
{
name = E;
},
{
name = ogonek;
transform = "{1, 0, 0, 1, 256, 0}";
}
);
layerId = "0B1DFD06-3317-40CA-B510-4969A0718C16";
width = 505;
}
);
note = Eogonek;
unicode = 0118;
},
{
glyphname = Etilde;
lastChange = "2018-03-04 14:29:51 +0000";
layers = (
{
background = {
paths = (
{
closed = 1;
nodes = (
"554 0 LINE",
"571 179 LINE",
"544 179 LINE",
"538 124 OFFCURVE",
"520 40 OFFCURVE",
"456 40 CURVE SMOOTH",
"201 40 LINE",
"201 659 LINE",
"441 659 LINE SMOOTH",
"516 659 OFFCURVE",
"525 567 OFFCURVE",
"528 527 CURVE",
"555 527 LINE",
"555 700 LINE",
"16 700 LINE",
"16 673 LINE",
"44 673 LINE SMOOTH",
"83 673 OFFCURVE",
"103 662 OFFCURVE",
"103 637 CURVE SMOOTH",
"103 62 LINE SMOOTH",
"103 37 OFFCURVE",
"83 26 OFFCURVE",
"44 26 CURVE SMOOTH",
"16 26 LINE",
"16 0 LINE"
);
},
{
closed = 1;
nodes = (
"455 251 LINE",
"455 485 LINE",
"431 485 LINE",
"427 436 OFFCURVE",
"424 388 OFFCURVE",
"379 388 CURVE SMOOTH",
"162 388 LINE",
"162 348 LINE",
"379 348 LINE SMOOTH",
"424 348 OFFCURVE",
"427 300 OFFCURVE",
"431 251 CURVE"
);
},
{
closed = 1;
nodes = (
"190 817 OFFCURVE",
"208 838 OFFCURVE",
"241 838 CURVE SMOOTH",
"292 838 OFFCURVE",
"341 784 OFFCURVE",
"392 784 CURVE SMOOTH",
"450 784 OFFCURVE",
"480 832 OFFCURVE",
"492 884 CURVE",
"471 895 LINE",
"455 855 OFFCURVE",
"439 833 OFFCURVE",
"405 833 CURVE SMOOTH",
"356 833 OFFCURVE",
"304 886 OFFCURVE",
"253 886 CURVE SMOOTH",
"199 886 OFFCURVE",
"166 842 OFFCURVE",
"154 790 CURVE",
"176 779 LINE"
);
}
);
};
components = (
{
name = E;
},
{
name = tilde;
transform = "{1, 0, 0, 1, 68, 230}";
}
);
layerId = "0B1DFD06-3317-40CA-B510-4969A0718C16";
width = 505;
}
);
note = Etilde;
unicode = 1EBC;
},
{
glyphname = Hbar;
lastChange = "2017-12-19 05:21:12 +0000";
layers = (
{
components = (
{
name = H;
}
);
layerId = "0B1DFD06-3317-40CA-B510-4969A0718C16";
paths = (
{
closed = 1;
nodes = (
"719 504 LINE",
"719 544 LINE",
"43 544 LINE",
"43 504 LINE"
);
}
);
width = 773;
}
);
note = Hbar;
unicode = 0126;
},
{
color = 0;
glyphname = IJ;
lastChange = "2017-12-19 05:22:42 +0000";
layers = (
{
layerId = "0B1DFD06-3317-40CA-B510-4969A0718C16";
paths = (
{
closed = 1;
nodes = (
"472 -114 OFFCURVE",
"561 -45 OFFCURVE",
"561 89 CURVE SMOOTH",
"561 637 LINE SMOOTH",
"561 662 OFFCURVE",
"581 673 OFFCURVE",
"619 673 CURVE SMOOTH",
"649 673 LINE",
"649 700 LINE",
"376 700 LINE",
"376 673 LINE",
"405 673 LINE SMOOTH",
"444 673 OFFCURVE",
"463 662 OFFCURVE",
"463 637 CURVE SMOOTH",
"463 90 LINE SMOOTH",
"463 -8 OFFCURVE",
"424 -75 OFFCURVE",
"339 -93 CURVE",
"343 -114 LINE"
);
},
{
closed = 1;
nodes = (
"298 0 LINE",
"298 26 LINE",
"270 26 LINE SMOOTH",
"231 26 OFFCURVE",
"211 37 OFFCURVE",
"211 62 CURVE SMOOTH",
"211 637 LINE SMOOTH",
"211 662 OFFCURVE",
"231 673 OFFCURVE",
"270 673 CURVE SMOOTH",
"298 673 LINE",
"298 700 LINE",
"26 700 LINE",
"26 673 LINE",
"55 673 LINE SMOOTH",
"93 673 OFFCURVE",
"113 662 OFFCURVE",
"113 637 CURVE SMOOTH",
"113 62 LINE SMOOTH",
"113 37 OFFCURVE",
"93 26 OFFCURVE",
"55 26 CURVE SMOOTH",
"26 26 LINE",
"26 0 LINE"
);
}
);
width = 675;
}
);
note = IJ;
rightKerningGroup = J;
unicode = 0132;
},
{
glyphname = Lslash;
lastChange = "2017-12-19 06:12:31 +0000";
layers = (
{
layerId = "0B1DFD06-3317-40CA-B510-4969A0718C16";
paths = (
{
closed = 1;
nodes = (
"90 309 LINE",
"90 69 LINE SMOOTH",
"90 34 OFFCURVE",
"61 31 OFFCURVE",
"65 13 CURVE",
"68 4 OFFCURVE",
"81 -18 OFFCURVE",
"100 -18 CURVE SMOOTH",
"106 -18 OFFCURVE",
"118 -9 OFFCURVE",
"126 0 CURVE",
"450 0 LINE",
"450 52 LINE",
"148 52 LINE",
"148 347 LINE",
"301 449 LINE",
"301 505 LINE",
"148 403 LINE",
"148 700 LINE",
"90 700 LINE",
"90 365 LINE",
"-7 300 LINE",
"-7 244 LINE"
);
}
);
width = 470;
}
);
note = Lslash;
unicode = 0141;
},
{
glyphname = Nacute;
lastChange = "2018-03-04 14:29:51 +0000";
layers = (
{
background = {
paths = (
{
closed = 1;
nodes = (
"247 0 LINE",
"247 26 LINE",
"217 26 LINE SMOOTH",
"179 26 OFFCURVE",
"159 37 OFFCURVE",
"159 62 CURVE SMOOTH",
"159 642 LINE",
"587 0 LINE",
"645 0 LINE",
"645 637 LINE SMOOTH",
"645 662 OFFCURVE",
"665 673 OFFCURVE",
"703 673 CURVE SMOOTH",
"733 673 LINE",
"733 700 LINE",
"508 700 LINE",
"508 673 LINE",
"537 673 LINE SMOOTH",
"576 673 OFFCURVE",
"595 662 OFFCURVE",
"595 637 CURVE SMOOTH",
"595 126 LINE",
"217 700 LINE",
"22 700 LINE",
"22 673 LINE",
"51 673 LINE SMOOTH",
"90 673 OFFCURVE",
"109 662 OFFCURVE",
"109 637 CURVE SMOOTH",
"109 62 LINE SMOOTH",
"109 37 OFFCURVE",
"90 26 OFFCURVE",
"51 26 CURVE SMOOTH",
"22 26 LINE",
"22 0 LINE"
);
},
{
closed = 1;
nodes = (
"458 865 LINE SMOOTH",
"480 877 OFFCURVE",
"492 890 OFFCURVE",
"492 907 CURVE SMOOTH",
"492 922 OFFCURVE",
"480 937 OFFCURVE",
"458 937 CURVE SMOOTH",
"437 937 OFFCURVE",
"422 921 OFFCURVE",
"414 914 CURVE SMOOTH",
"299 807 LINE",
"316 782 LINE"
);
}
);
};
components = (
{
name = N;
},
{
name = acute;
transform = "{1, 0, 0, 1, 120, 230}";
}
);
layerId = "0B1DFD06-3317-40CA-B510-4969A0718C16";
width = 632;
}
);
note = Nacute;
unicode = 0143;
},
{
glyphname = Ncaron;
lastChange = "2018-03-04 14:29:51 +0000";
layers = (
{
background = {
paths = (
{
closed = 1;
nodes = (
"247 0 LINE",
"247 26 LINE",
"217 26 LINE SMOOTH",
"179 26 OFFCURVE",
"159 37 OFFCURVE",
"159 62 CURVE SMOOTH",
"159 642 LINE",
"587 0 LINE",
"645 0 LINE",
"645 637 LINE SMOOTH",
"645 662 OFFCURVE",
"665 673 OFFCURVE",
"703 673 CURVE SMOOTH",
"733 673 LINE",
"733 700 LINE",
"508 700 LINE",
"508 673 LINE",
"537 673 LINE SMOOTH",
"576 673 OFFCURVE",
"595 662 OFFCURVE",
"595 637 CURVE SMOOTH",
"595 126 LINE",
"217 700 LINE",
"22 700 LINE",
"22 673 LINE",
"51 673 LINE SMOOTH",
"90 673 OFFCURVE",
"109 662 OFFCURVE",
"109 637 CURVE SMOOTH",
"109 62 LINE SMOOTH",
"109 37 OFFCURVE",
"90 26 OFFCURVE",
"51 26 CURVE SMOOTH",
"22 26 LINE",
"22 0 LINE"
);
},
{
closed = 1;
nodes = (
"403 782 LINE",
"527 911 LINE",
"508 932 LINE",
"400 847 LINE",
"392 840 OFFCURVE",
"383 836 OFFCURVE",
"377 836 CURVE SMOOTH",
"371 836 OFFCURVE",
"363 840 OFFCURVE",
"353 847 CURVE",
"245 932 LINE",
"226 911 LINE",
"350 782 LINE"
);
}
);
};
components = (
{
name = N;
},
{
name = caron;
transform = "{1, 0, 0, 1, 132, 230}";
}
);
layerId = "0B1DFD06-3317-40CA-B510-4969A0718C16";
width = 632;
}
);
note = Ncaron;
unicode = 0147;
},
{
glyphname = Ncommaaccent;
lastChange = "2018-03-04 14:29:51 +0000";
layers = (
{
background = {
paths = (
{
closed = 1;
nodes = (
"247 0 LINE",
"247 26 LINE",
"217 26 LINE SMOOTH",
"179 26 OFFCURVE",
"159 37 OFFCURVE",
"159 62 CURVE SMOOTH",
"159 642 LINE",
"587 0 LINE",
"645 0 LINE",
"645 637 LINE SMOOTH",
"645 662 OFFCURVE",
"665 673 OFFCURVE",
"703 673 CURVE SMOOTH",
"733 673 LINE",
"733 700 LINE",
"508 700 LINE",
"508 673 LINE",
"537 673 LINE SMOOTH",
"576 673 OFFCURVE",
"595 662 OFFCURVE",
"595 637 CURVE SMOOTH",
"595 126 LINE",
"217 700 LINE",
"22 700 LINE",
"22 673 LINE",
"51 673 LINE SMOOTH",
"90 673 OFFCURVE",
"109 662 OFFCURVE",
"109 637 CURVE SMOOTH",
"109 62 LINE SMOOTH",
"109 37 OFFCURVE",
"90 26 OFFCURVE",
"51 26 CURVE SMOOTH",
"22 26 LINE",
"22 0 LINE"
);
},
{
closed = 1;
nodes = (
"369 -258 OFFCURVE",
"413 -198 OFFCURVE",
"413 -135 CURVE SMOOTH",
"413 -87 OFFCURVE",
"389 -67 OFFCURVE",
"360 -67 CURVE SMOOTH",
"331 -67 OFFCURVE",
"314 -87 OFFCURVE",
"314 -111 CURVE SMOOTH",
"314 -145 OFFCURVE",
"349 -152 OFFCURVE",
"349 -187 CURVE SMOOTH",
"349 -223 OFFCURVE",
"323 -256 OFFCURVE",
"296 -282 CURVE",
"313 -299 LINE"
);
}
);
};
components = (
{
name = N;
},
{
name = commaaccentcomb;
}
);
layerId = "0B1DFD06-3317-40CA-B510-4969A0718C16";
width = 632;
}
);
note = Ncommaaccent;
unicode = 0145;
},
{
glyphname = Ndotaccent;
lastChange = "2018-03-04 14:29:51 +0000";
layers = (
{
background = {
paths = (
{
closed = 1;
nodes = (
"247 0 LINE",
"247 26 LINE",
"217 26 LINE SMOOTH",
"179 26 OFFCURVE",
"159 37 OFFCURVE",
"159 62 CURVE SMOOTH",
"159 642 LINE",
"587 0 LINE",
"645 0 LINE",
"645 637 LINE SMOOTH",
"645 662 OFFCURVE",
"665 673 OFFCURVE",
"703 673 CURVE SMOOTH",
"733 673 LINE",
"733 700 LINE",
"508 700 LINE",
"508 673 LINE",
"537 673 LINE SMOOTH",
"576 673 OFFCURVE",
"595 662 OFFCURVE",
"595 637 CURVE SMOOTH",
"595 126 LINE",
"217 700 LINE",
"22 700 LINE",
"22 673 LINE",
"51 673 LINE SMOOTH",
"90 673 OFFCURVE",
"109 662 OFFCURVE",
"109 637 CURVE SMOOTH",
"109 62 LINE SMOOTH",
"109 37 OFFCURVE",
"90 26 OFFCURVE",
"51 26 CURVE SMOOTH",
"22 26 LINE",
"22 0 LINE"
);
},
{
closed = 1;
nodes = (
"405 765 OFFCURVE",
"423 784 OFFCURVE",
"423 811 CURVE SMOOTH",
"423 839 OFFCURVE",
"405 858 OFFCURVE",
"377 858 CURVE SMOOTH",
"348 858 OFFCURVE",
"330 839 OFFCURVE",
"330 811 CURVE SMOOTH",
"330 784 OFFCURVE",
"348 765 OFFCURVE",
"377 765 CURVE SMOOTH"
);
}
);
};
components = (
{
name = N;
},
{
name = dotaccent;
transform = "{1, 0, 0, 1, 132, 230}";
}
);
layerId = "0B1DFD06-3317-40CA-B510-4969A0718C16";
width = 632;
}
);
note = Ndotaccent;
unicode = 1E44;
},
{
glyphname = Ndotbelow;
lastChange = "2018-03-04 14:29:51 +0000";
layers = (
{
background = {
paths = (
{
closed = 1;
nodes = (
"247 0 LINE",
"247 26 LINE",
"217 26 LINE SMOOTH",
"179 26 OFFCURVE",
"159 37 OFFCURVE",
"159 62 CURVE SMOOTH",
"159 642 LINE",
"587 0 LINE",
"645 0 LINE",
"645 637 LINE SMOOTH",
"645 662 OFFCURVE",
"665 673 OFFCURVE",
"703 673 CURVE SMOOTH",
"733 673 LINE",
"733 700 LINE",
"508 700 LINE",
"508 673 LINE",
"537 673 LINE SMOOTH",
"576 673 OFFCURVE",
"595 662 OFFCURVE",
"595 637 CURVE SMOOTH",
"595 126 LINE",
"217 700 LINE",
"22 700 LINE",
"22 673 LINE",
"51 673 LINE SMOOTH",
"90 673 OFFCURVE",
"109 662 OFFCURVE",
"109 637 CURVE SMOOTH",
"109 62 LINE SMOOTH",
"109 37 OFFCURVE",
"90 26 OFFCURVE",
"51 26 CURVE SMOOTH",
"22 26 LINE",
"22 0 LINE"
);
},
{
closed = 1;
nodes = (
"415 -159 OFFCURVE",
"433 -140 OFFCURVE",
"433 -112 CURVE SMOOTH",
"433 -84 OFFCURVE",
"415 -64 OFFCURVE",
"387 -64 CURVE SMOOTH",
"359 -64 OFFCURVE",
"340 -84 OFFCURVE",
"340 -112 CURVE SMOOTH",
"340 -140 OFFCURVE",
"359 -159 OFFCURVE",
"387 -159 CURVE SMOOTH"
);
}
);
};
components = (
{
name = N;
},
{
name = dotbelowcomb;
transform = "{1, 0, 0, 1, 629, 0}";
}
);
layerId = "0B1DFD06-3317-40CA-B510-4969A0718C16";
width = 632;
}
);
note = uni1E46;
unicode = 1E46;
},
{
color = 0;
glyphname = Eng;
lastChange = "2017-12-19 05:23:35 +0000";
layers = (
{
background = {
paths = (
{
closed = 1;
nodes = (
"592 -259 OFFCURVE",
"645 -182 OFFCURVE",
"645 -36 CURVE SMOOTH",
"645 637 LINE SMOOTH",
"645 662 OFFCURVE",
"665 673 OFFCURVE",
"703 673 CURVE SMOOTH",
"733 673 LINE",
"733 700 LINE",
"508 700 LINE",
"508 673 LINE",
"537 673 LINE SMOOTH",
"576 673 OFFCURVE",
"595 662 OFFCURVE",
"595 637 CURVE SMOOTH",
"595 125 LINE",
"219 700 LINE",
"22 700 LINE",
"22 673 LINE",
"51 673 LINE SMOOTH",
"90 673 OFFCURVE",
"109 662 OFFCURVE",
"109 637 CURVE SMOOTH",
"109 62 LINE SMOOTH",
"109 37 OFFCURVE",
"93 26 OFFCURVE",
"51 26 CURVE SMOOTH",
"22 26 LINE",
"22 0 LINE",
"247 0 LINE",
"247 26 LINE",
"217 26 LINE SMOOTH",
"179 26 OFFCURVE",
"159 37 OFFCURVE",
"159 62 CURVE SMOOTH",
"159 647 LINE",
"586 0 LINE",
"586 -76 LINE SMOOTH",
"586 -173 OFFCURVE",
"510 -238 OFFCURVE",
"423 -243 CURVE",
"427 -268 LINE"
);
}
);
};
layerId = "0B1DFD06-3317-40CA-B510-4969A0718C16";
paths = (
{
closed = 1;
nodes = (
"592 -259 OFFCURVE",
"645 -182 OFFCURVE",
"645 -36 CURVE SMOOTH",
"645 637 LINE SMOOTH",
"645 662 OFFCURVE",
"665 673 OFFCURVE",
"703 673 CURVE SMOOTH",
"733 673 LINE",
"733 700 LINE",
"508 700 LINE",
"508 673 LINE",
"537 673 LINE SMOOTH",
"576 673 OFFCURVE",
"595 662 OFFCURVE",
"595 637 CURVE SMOOTH",
"595 125 LINE",
"219 700 LINE",
"22 700 LINE",
"22 673 LINE",
"51 673 LINE SMOOTH",
"90 673 OFFCURVE",
"109 662 OFFCURVE",
"109 637 CURVE SMOOTH",
"109 62 LINE SMOOTH",
"109 37 OFFCURVE",
"93 26 OFFCURVE",
"51 26 CURVE SMOOTH",
"22 26 LINE",
"22 0 LINE",
"247 0 LINE",
"247 26 LINE",
"217 26 LINE SMOOTH",
"179 26 OFFCURVE",
"159 37 OFFCURVE",
"159 62 CURVE SMOOTH",
"159 647 LINE",
"586 0 LINE",
"586 -76 LINE SMOOTH",
"586 -173 OFFCURVE",
"510 -238 OFFCURVE",
"423 -243 CURVE",
"427 -268 LINE"
);
}
);
width = 755;
}
);
note = Eng;
unicode = 014A;
},
{
glyphname = Nlinebelow;
lastChange = "2018-03-04 14:29:51 +0000";
layers = (
{
background = {
paths = (
{
closed = 1;
nodes = (
"247 0 LINE",
"247 26 LINE",
"217 26 LINE SMOOTH",
"179 26 OFFCURVE",
"159 37 OFFCURVE",
"159 62 CURVE SMOOTH",
"159 642 LINE",
"587 0 LINE",
"645 0 LINE",
"645 637 LINE SMOOTH",
"645 662 OFFCURVE",
"665 673 OFFCURVE",
"703 673 CURVE SMOOTH",
"733 673 LINE",
"733 700 LINE",
"508 700 LINE",
"508 673 LINE",
"537 673 LINE SMOOTH",
"576 673 OFFCURVE",
"595 662 OFFCURVE",
"595 637 CURVE SMOOTH",
"595 126 LINE",
"217 700 LINE",
"22 700 LINE",
"22 673 LINE",
"51 673 LINE SMOOTH",
"90 673 OFFCURVE",
"109 662 OFFCURVE",
"109 637 CURVE SMOOTH",
"109 62 LINE SMOOTH",
"109 37 OFFCURVE",
"90 26 OFFCURVE",
"51 26 CURVE SMOOTH",
"22 26 LINE",
"22 0 LINE"
);
},
{
closed = 1;
nodes = (
"542 -110 LINE",
"542 -72 LINE",
"210 -72 LINE",
"210 -110 LINE"
);
}
);
};
components = (
{
name = N;
},
{
name = macronbelowcomb;
transform = "{1, 0, 0, 1, 378, 0}";
}
);
layerId = "0B1DFD06-3317-40CA-B510-4969A0718C16";
width = 632;
}
);
note = Nlinebelow;
unicode = 1E48;
},
{
glyphname = Ntilde;
lastChange = "2018-03-04 14:29:51 +0000";
layers = (
{
background = {
paths = (
{
closed = 1;
nodes = (
"247 0 LINE",
"247 26 LINE",
"217 26 LINE SMOOTH",
"179 26 OFFCURVE",
"159 37 OFFCURVE",
"159 62 CURVE SMOOTH",
"159 642 LINE",
"587 0 LINE",
"645 0 LINE",
"645 637 LINE SMOOTH",
"645 662 OFFCURVE",
"665 673 OFFCURVE",
"703 673 CURVE SMOOTH",
"733 673 LINE",
"733 700 LINE",
"508 700 LINE",
"508 673 LINE",
"537 673 LINE SMOOTH",
"576 673 OFFCURVE",
"595 662 OFFCURVE",
"595 637 CURVE SMOOTH",
"595 126 LINE",
"217 700 LINE",
"22 700 LINE",
"22 673 LINE",
"51 673 LINE SMOOTH",
"90 673 OFFCURVE",
"109 662 OFFCURVE",
"109 637 CURVE SMOOTH",
"109 62 LINE SMOOTH",
"109 37 OFFCURVE",
"90 26 OFFCURVE",
"51 26 CURVE SMOOTH",
"22 26 LINE",
"22 0 LINE"
);
},
{
closed = 1;
nodes = (
"254 818 OFFCURVE",
"272 839 OFFCURVE",
"305 839 CURVE SMOOTH",
"356 839 OFFCURVE",
"405 785 OFFCURVE",
"456 785 CURVE SMOOTH",
"514 785 OFFCURVE",
"544 833 OFFCURVE",
"556 885 CURVE",
"535 896 LINE",
"519 856 OFFCURVE",
"503 834 OFFCURVE",
"469 834 CURVE SMOOTH",
"420 834 OFFCURVE",
"368 887 OFFCURVE",
"317 887 CURVE SMOOTH",
"263 887 OFFCURVE",
"230 843 OFFCURVE",
"218 791 CURVE",
"240 780 LINE"
);
}
);
};
components = (
{
name = N;
},
{
name = tilde;
transform = "{1, 0, 0, 1, 132, 230}";
}
);
layerId = "0B1DFD06-3317-40CA-B510-4969A0718C16";
width = 632;
}
);
note = Ntilde;
unicode = 00D1;
},
{
glyphname = Oacute;
lastChange = "2018-03-04 14:29:51 +0000";
layers = (
{
background = {
paths = (
{
closed = 1;
nodes = (
"601 -10 OFFCURVE",
"719 124 OFFCURVE",
"719 350 CURVE SMOOTH",
"719 574 OFFCURVE",
"601 710 OFFCURVE",
"378 710 CURVE SMOOTH",
"154 710 OFFCURVE",
"36 574 OFFCURVE",
"36 350 CURVE SMOOTH",
"36 124 OFFCURVE",
"154 -10 OFFCURVE",
"378 -10 CURVE SMOOTH"
);
},
{
closed = 1;
nodes = (
"215 32 OFFCURVE",
"135 158 OFFCURVE",
"135 350 CURVE SMOOTH",
"135 541 OFFCURVE",
"215 668 OFFCURVE",
"377 668 CURVE SMOOTH",
"541 668 OFFCURVE",
"620 541 OFFCURVE",
"620 350 CURVE SMOOTH",
"620 158 OFFCURVE",
"541 32 OFFCURVE",
"377 32 CURVE SMOOTH"
);
},
{
closed = 1;
nodes = (
"440 865 LINE SMOOTH",
"462 877 OFFCURVE",
"474 890 OFFCURVE",
"474 907 CURVE SMOOTH",
"474 922 OFFCURVE",
"462 937 OFFCURVE",
"440 937 CURVE SMOOTH",
"419 937 OFFCURVE",
"404 921 OFFCURVE",
"396 914 CURVE SMOOTH",
"281 807 LINE",
"298 782 LINE"
);
}
);
};
components = (
{
name = O;
},
{
name = acute;
transform = "{1, 0, 0, 1, 120, 230}";
}
);
layerId = "0B1DFD06-3317-40CA-B510-4969A0718C16";
width = 662;
}
);
leftKerningGroup = O;
note = Oacute;
rightKerningGroup = O;
unicode = 00D3;
},
{
glyphname = Obreve;
lastChange = "2018-03-04 14:29:51 +0000";
layers = (
{
background = {
paths = (
{
closed = 1;
nodes = (
"601 -10 OFFCURVE",
"719 124 OFFCURVE",
"719 350 CURVE SMOOTH",
"719 574 OFFCURVE",
"601 710 OFFCURVE",
"378 710 CURVE SMOOTH",
"154 710 OFFCURVE",
"36 574 OFFCURVE",
"36 350 CURVE SMOOTH",
"36 124 OFFCURVE",
"154 -10 OFFCURVE",
"378 -10 CURVE SMOOTH"
);
},
{
closed = 1;
nodes = (
"215 32 OFFCURVE",
"135 158 OFFCURVE",
"135 350 CURVE SMOOTH",
"135 541 OFFCURVE",
"215 668 OFFCURVE",
"377 668 CURVE SMOOTH",
"541 668 OFFCURVE",
"620 541 OFFCURVE",
"620 350 CURVE SMOOTH",
"620 158 OFFCURVE",
"541 32 OFFCURVE",
"377 32 CURVE SMOOTH"
);
},
{
closed = 1;
nodes = (
"477 774 OFFCURVE",
"519 830 OFFCURVE",
"523 905 CURVE",
"490 905 LINE",
"484 846 OFFCURVE",
"442 820 OFFCURVE",
"378 820 CURVE SMOOTH",
"314 820 OFFCURVE",
"271 846 OFFCURVE",
"264 905 CURVE",
"231 905 LINE",
"235 827 OFFCURVE",
"277 774 OFFCURVE",
"378 774 CURVE SMOOTH"
);
}
);
};
components = (
{
name = O;
},
{
name = breve;
transform = "{1, 0, 0, 1, 132, 230}";
}
);
layerId = "0B1DFD06-3317-40CA-B510-4969A0718C16";
width = 662;
}
);
leftKerningGroup = O;
note = Obreve;
rightKerningGroup = O;
unicode = 014E;
},
{
glyphname = Ocaron;
lastChange = "2018-03-04 14:29:51 +0000";
layers = (
{
background = {
paths = (
{
closed = 1;
nodes = (
"601 -10 OFFCURVE",
"719 124 OFFCURVE",
"719 350 CURVE SMOOTH",
"719 574 OFFCURVE",
"601 710 OFFCURVE",
"378 710 CURVE SMOOTH",
"154 710 OFFCURVE",
"36 574 OFFCURVE",
"36 350 CURVE SMOOTH",
"36 124 OFFCURVE",
"154 -10 OFFCURVE",
"378 -10 CURVE SMOOTH"
);
},
{
closed = 1;
nodes = (
"215 32 OFFCURVE",
"135 158 OFFCURVE",
"135 350 CURVE SMOOTH",
"135 541 OFFCURVE",
"215 668 OFFCURVE",
"377 668 CURVE SMOOTH",
"541 668 OFFCURVE",
"620 541 OFFCURVE",
"620 350 CURVE SMOOTH",
"620 158 OFFCURVE",
"541 32 OFFCURVE",
"377 32 CURVE SMOOTH"
);
},
{
closed = 1;
nodes = (
"404 782 LINE",
"528 911 LINE",
"509 932 LINE",
"401 847 LINE",
"393 840 OFFCURVE",
"384 836 OFFCURVE",
"378 836 CURVE SMOOTH",
"372 836 OFFCURVE",
"364 840 OFFCURVE",
"354 847 CURVE",
"246 932 LINE",
"227 911 LINE",
"351 782 LINE"
);
}
);
};
components = (
{
name = O;
},
{
name = caron;
transform = "{1, 0, 0, 1, 132, 230}";
}
);
layerId = "0B1DFD06-3317-40CA-B510-4969A0718C16";
width = 662;
}
);
leftKerningGroup = O;
note = Ocaron;
rightKerningGroup = O;
unicode = 01D1;
},
{
glyphname = Ocircumflex;
lastChange = "2018-03-04 14:29:51 +0000";
layers = (
{
background = {
paths = (
{
closed = 1;
nodes = (
"601 -10 OFFCURVE",
"719 124 OFFCURVE",
"719 350 CURVE SMOOTH",
"719 574 OFFCURVE",
"601 710 OFFCURVE",
"378 710 CURVE SMOOTH",
"154 710 OFFCURVE",
"36 574 OFFCURVE",
"36 350 CURVE SMOOTH",
"36 124 OFFCURVE",
"154 -10 OFFCURVE",
"378 -10 CURVE SMOOTH"
);
},
{
closed = 1;
nodes = (
"215 32 OFFCURVE",
"135 158 OFFCURVE",
"135 350 CURVE SMOOTH",
"135 541 OFFCURVE",
"215 668 OFFCURVE",
"377 668 CURVE SMOOTH",
"541 668 OFFCURVE",
"620 541 OFFCURVE",
"620 350 CURVE SMOOTH",
"620 158 OFFCURVE",
"541 32 OFFCURVE",
"377 32 CURVE SMOOTH"
);
},
{
closed = 1;
nodes = (
"354 868 LINE SMOOTH",
"362 874 OFFCURVE",
"372 879 OFFCURVE",
"378 879 CURVE SMOOTH",
"384 879 OFFCURVE",
"392 874 OFFCURVE",
"401 868 CURVE",
"509 782 LINE",
"528 803 LINE",
"404 932 LINE",
"351 932 LINE",
"227 803 LINE",
"246 782 LINE"
);
}
);
};
components = (
{
name = O;
},
{
name = circumflex;
transform = "{1, 0, 0, 1, 132, 230}";
}
);
layerId = "0B1DFD06-3317-40CA-B510-4969A0718C16";
width = 662;
}
);
leftKerningGroup = O;
note = Ocircumflex;
rightKerningGroup = O;
unicode = 00D4;
},
{
glyphname = Ocircumflexacute;
lastChange = "2017-12-19 05:21:12 +0000";
layers = (
{
background = {
paths = (
{
closed = 1;
nodes = (
"601 -10 OFFCURVE",
"719 124 OFFCURVE",
"719 350 CURVE SMOOTH",
"719 574 OFFCURVE",
"601 710 OFFCURVE",
"378 710 CURVE SMOOTH",
"154 710 OFFCURVE",
"36 574 OFFCURVE",
"36 350 CURVE SMOOTH",
"36 124 OFFCURVE",
"154 -10 OFFCURVE",
"378 -10 CURVE SMOOTH"
);
},
{
closed = 1;
nodes = (
"215 32 OFFCURVE",
"135 158 OFFCURVE",
"135 350 CURVE SMOOTH",
"135 541 OFFCURVE",
"215 668 OFFCURVE",
"377 668 CURVE SMOOTH",
"541 668 OFFCURVE",
"620 541 OFFCURVE",
"620 350 CURVE SMOOTH",
"620 158 OFFCURVE",
"541 32 OFFCURVE",
"377 32 CURVE SMOOTH"
);
},
{
closed = 1;
nodes = (
"348 861 LINE SMOOTH",
"358 869 OFFCURVE",
"368 877 OFFCURVE",
"376 877 CURVE SMOOTH",
"382 877 OFFCURVE",
"390 872 OFFCURVE",
"399 866 CURVE",
"505 780 LINE",
"524 802 LINE",
"402 931 LINE",
"351 931 LINE",
"229 802 LINE",
"247 780 LINE"
);
},
{
closed = 1;
nodes = (
"613 959 LINE SMOOTH",
"636 971 OFFCURVE",
"649 987 OFFCURVE",
"649 1002 CURVE SMOOTH",
"649 1016 OFFCURVE",
"638 1033 OFFCURVE",
"615 1033 CURVE SMOOTH",
"596 1033 OFFCURVE",
"579 1017 OFFCURVE",
"569 1007 CURVE SMOOTH",
"473 914 LINE",
"491 892 LINE"
);
}
);
};
components = (
{
name = O;
},
{
name = circumflexacute;
transform = "{1, 0, 0, 1, 628, 230}";
}
);
layerId = "0B1DFD06-3317-40CA-B510-4969A0718C16";
width = 755;
}
);
leftKerningGroup = O;
note = Ocircumflexacute;
rightKerningGroup = O;
unicode = 1ED0;
},
{
glyphname = Ocircumflexdotbelow;
lastChange = "2018-03-04 14:29:51 +0000";
layers = (
{
background = {
paths = (
{
closed = 1;
nodes = (
"36 124 OFFCURVE",
"154 -10 OFFCURVE",
"378 -10 CURVE SMOOTH",
"601 -10 OFFCURVE",
"719 124 OFFCURVE",
"719 350 CURVE SMOOTH",
"719 574 OFFCURVE",
"601 710 OFFCURVE",
"378 710 CURVE SMOOTH",
"154 710 OFFCURVE",
"36 574 OFFCURVE",
"36 350 CURVE SMOOTH"
);
},
{
closed = 1;
nodes = (
"135 541 OFFCURVE",
"215 668 OFFCURVE",
"377 668 CURVE SMOOTH",
"541 668 OFFCURVE",
"620 541 OFFCURVE",
"620 350 CURVE SMOOTH",
"620 158 OFFCURVE",
"541 32 OFFCURVE",
"377 32 CURVE SMOOTH",
"215 32 OFFCURVE",
"135 158 OFFCURVE",
"135 350 CURVE SMOOTH"
);
},
{
closed = 1;
nodes = (
"245 782 LINE",
"353 868 LINE SMOOTH",
"361 874 OFFCURVE",
"371 879 OFFCURVE",
"377 879 CURVE SMOOTH",
"383 879 OFFCURVE",
"391 874 OFFCURVE",
"400 868 CURVE",
"508 782 LINE",
"527 803 LINE",
"403 932 LINE",
"350 932 LINE",
"226 803 LINE"
);
},
{
closed = 1;
nodes = (
"330 -140 OFFCURVE",
"349 -159 OFFCURVE",
"377 -159 CURVE SMOOTH",
"405 -159 OFFCURVE",
"423 -140 OFFCURVE",
"423 -112 CURVE SMOOTH",
"423 -84 OFFCURVE",
"405 -64 OFFCURVE",
"377 -64 CURVE SMOOTH",
"349 -64 OFFCURVE",
"330 -84 OFFCURVE",
"330 -112 CURVE SMOOTH"
);
}
);
};
components = (
{
name = O;
},
{
name = dotbelowcomb;
transform = "{1, 0, 0, 1, 629, 0}";
},
{
name = circumflex;
transform = "{1, 0, 0, 1, 132, 230}";
}
);
layerId = "0B1DFD06-3317-40CA-B510-4969A0718C16";
width = 662;
}
);
leftKerningGroup = O;
note = Ocircumflexdotbelow;
rightKerningGroup = O;
unicode = 1ED8;
},
{
glyphname = Ocircumflexgrave;
lastChange = "2017-12-19 05:21:12 +0000";
layers = (
{
background = {
paths = (
{
closed = 1;
nodes = (
"601 -10 OFFCURVE",
"719 124 OFFCURVE",
"719 350 CURVE SMOOTH",
"719 574 OFFCURVE",
"601 710 OFFCURVE",
"378 710 CURVE SMOOTH",
"154 710 OFFCURVE",
"36 574 OFFCURVE",
"36 350 CURVE SMOOTH",
"36 124 OFFCURVE",
"154 -10 OFFCURVE",
"378 -10 CURVE SMOOTH"
);
},
{
closed = 1;
nodes = (
"215 32 OFFCURVE",
"135 158 OFFCURVE",
"135 350 CURVE SMOOTH",
"135 541 OFFCURVE",
"215 668 OFFCURVE",
"377 668 CURVE SMOOTH",
"541 668 OFFCURVE",
"620 541 OFFCURVE",
"620 350 CURVE SMOOTH",
"620 158 OFFCURVE",
"541 32 OFFCURVE",
"377 32 CURVE SMOOTH"
);
},
{
closed = 1;
nodes = (
"285 914 LINE",
"190 1007 LINE SMOOTH",
"180 1017 OFFCURVE",
"163 1033 OFFCURVE",
"143 1033 CURVE SMOOTH",
"121 1033 OFFCURVE",
"110 1016 OFFCURVE",
"110 1002 CURVE SMOOTH",
"110 987 OFFCURVE",
"123 971 OFFCURVE",
"146 959 CURVE SMOOTH",
"268 892 LINE"
);
},
{
closed = 1;
nodes = (
"348 861 LINE SMOOTH",
"358 869 OFFCURVE",
"368 877 OFFCURVE",
"376 877 CURVE SMOOTH",
"382 877 OFFCURVE",
"390 872 OFFCURVE",
"399 866 CURVE",
"505 780 LINE",
"524 802 LINE",
"402 931 LINE",
"351 931 LINE",
"229 802 LINE",
"247 780 LINE"
);
}
);
};
components = (
{
name = O;
},
{
name = circumflexgrave;
transform = "{1, 0, 0, 1, 628, 230}";
}
);
layerId = "0B1DFD06-3317-40CA-B510-4969A0718C16";
width = 755;
}
);
leftKerningGroup = O;
note = Ocircumflexgrave;
rightKerningGroup = O;
unicode = 1ED2;
},
{
glyphname = Ocircumflexhookabove;
lastChange = "2017-12-19 05:21:12 +0000";
layers = (
{
background = {
paths = (
{
closed = 1;
nodes = (
"601 -10 OFFCURVE",
"719 124 OFFCURVE",
"719 350 CURVE SMOOTH",
"719 574 OFFCURVE",
"601 710 OFFCURVE",
"378 710 CURVE SMOOTH",
"154 710 OFFCURVE",
"36 574 OFFCURVE",
"36 350 CURVE SMOOTH",
"36 124 OFFCURVE",
"154 -10 OFFCURVE",
"378 -10 CURVE SMOOTH"
);
},
{
closed = 1;
nodes = (
"215 32 OFFCURVE",
"135 158 OFFCURVE",
"135 350 CURVE SMOOTH",
"135 541 OFFCURVE",
"215 668 OFFCURVE",
"377 668 CURVE SMOOTH",
"541 668 OFFCURVE",
"620 541 OFFCURVE",
"620 350 CURVE SMOOTH",
"620 158 OFFCURVE",
"541 32 OFFCURVE",
"377 32 CURVE SMOOTH"
);
},
{
closed = 1;
nodes = (
"344 858 LINE",
"355 868 OFFCURVE",
"367 878 OFFCURVE",
"376 878 CURVE SMOOTH",
"382 878 OFFCURVE",
"390 873 OFFCURVE",
"399 867 CURVE",
"505 781 LINE",
"524 803 LINE",
"402 932 LINE",
"351 932 LINE",
"229 803 LINE",
"247 781 LINE"
);
},
{
closed = 1;
nodes = (
"551 898 LINE",
"532 905 OFFCURVE",
"522 912 OFFCURVE",
"522 926 CURVE SMOOTH",
"522 954 OFFCURVE",
"602 965 OFFCURVE",
"602 1010 CURVE SMOOTH",
"602 1047 OFFCURVE",
"560 1063 OFFCURVE",
"518 1063 CURVE SMOOTH",
"487 1063 OFFCURVE",
"442 1053 OFFCURVE",
"442 1022 CURVE SMOOTH",
"442 1010 OFFCURVE",
"453 1001 OFFCURVE",
"463 1001 CURVE SMOOTH",
"492 1001 OFFCURVE",
"479 1040 OFFCURVE",
"522 1040 CURVE SMOOTH",
"541 1040 OFFCURVE",
"552 1028 OFFCURVE",
"552 1013 CURVE SMOOTH",
"552 973 OFFCURVE",
"479 965 OFFCURVE",
"479 925 CURVE SMOOTH",
"479 901 OFFCURVE",
"495 880 OFFCURVE",
"542 880 CURVE"
);
}
);
};
components = (
{
name = O;
},
{
name = circumflexhookabove;
transform = "{1, 0, 0, 1, 628, 230}";
}
);
layerId = "0B1DFD06-3317-40CA-B510-4969A0718C16";
width = 755;
}
);
leftKerningGroup = O;
note = Ocircumflexhookabove;
rightKerningGroup = O;
unicode = 1ED4;
},
{
glyphname = Ocircumflextilde;
lastChange = "2017-12-19 05:21:12 +0000";
layers = (
{
background = {
paths = (
{
closed = 1;
nodes = (
"601 -10 OFFCURVE",
"719 124 OFFCURVE",
"719 350 CURVE SMOOTH",
"719 574 OFFCURVE",
"601 710 OFFCURVE",
"378 710 CURVE SMOOTH",
"154 710 OFFCURVE",
"36 574 OFFCURVE",
"36 350 CURVE SMOOTH",
"36 124 OFFCURVE",
"154 -10 OFFCURVE",
"378 -10 CURVE SMOOTH"
);
},
{
closed = 1;
nodes = (
"215 32 OFFCURVE",
"135 158 OFFCURVE",
"135 350 CURVE SMOOTH",
"135 541 OFFCURVE",
"215 668 OFFCURVE",
"377 668 CURVE SMOOTH",
"541 668 OFFCURVE",
"620 541 OFFCURVE",
"620 350 CURVE SMOOTH",
"620 158 OFFCURVE",
"541 32 OFFCURVE",
"377 32 CURVE SMOOTH"
);
},
{
closed = 1;
nodes = (
"348 862 LINE SMOOTH",
"358 870 OFFCURVE",
"368 878 OFFCURVE",
"376 878 CURVE SMOOTH",
"382 878 OFFCURVE",
"390 873 OFFCURVE",
"399 867 CURVE",
"505 781 LINE",
"524 803 LINE",
"402 932 LINE",
"351 932 LINE",
"229 803 LINE",
"247 781 LINE"
);
},
{
closed = 1;
nodes = (
"251 997 OFFCURVE",
"269 1018 OFFCURVE",
"300 1018 CURVE SMOOTH",
"349 1018 OFFCURVE",
"396 964 OFFCURVE",
"445 964 CURVE SMOOTH",
"498 964 OFFCURVE",
"527 1012 OFFCURVE",
"539 1063 CURVE",
"518 1075 LINE",
"505 1035 OFFCURVE",
"489 1012 OFFCURVE",
"456 1012 CURVE SMOOTH",
"409 1012 OFFCURVE",
"360 1065 OFFCURVE",
"311 1065 CURVE SMOOTH",
"260 1065 OFFCURVE",
"228 1021 OFFCURVE",
"218 970 CURVE",
"238 958 LINE"
);
}
);
};
components = (
{
name = O;
},
{
name = circumflextilde;
transform = "{1, 0, 0, 1, 628, 230}";
}
);
layerId = "0B1DFD06-3317-40CA-B510-4969A0718C16";
width = 755;
}
);
leftKerningGroup = O;
note = Ocircumflextilde;
rightKerningGroup = O;
unicode = 1ED6;
},
{
glyphname = Odieresis;
lastChange = "2018-03-04 14:29:51 +0000";
layers = (
{
background = {
paths = (
{
closed = 1;
nodes = (
"601 -10 OFFCURVE",
"719 124 OFFCURVE",
"719 350 CURVE SMOOTH",
"719 574 OFFCURVE",
"601 710 OFFCURVE",
"378 710 CURVE SMOOTH",
"154 710 OFFCURVE",
"36 574 OFFCURVE",
"36 350 CURVE SMOOTH",
"36 124 OFFCURVE",
"154 -10 OFFCURVE",
"378 -10 CURVE SMOOTH"
);
},
{
closed = 1;
nodes = (
"215 32 OFFCURVE",
"135 158 OFFCURVE",
"135 350 CURVE SMOOTH",
"135 541 OFFCURVE",
"215 668 OFFCURVE",
"377 668 CURVE SMOOTH",
"541 668 OFFCURVE",
"620 541 OFFCURVE",
"620 350 CURVE SMOOTH",
"620 158 OFFCURVE",
"541 32 OFFCURVE",
"377 32 CURVE SMOOTH"
);
},
{
closed = 1;
nodes = (
"298 781 OFFCURVE",
"316 800 OFFCURVE",
"316 827 CURVE SMOOTH",
"316 855 OFFCURVE",
"298 875 OFFCURVE",
"269 875 CURVE SMOOTH",
"241 875 OFFCURVE",
"223 855 OFFCURVE",
"223 827 CURVE SMOOTH",
"223 800 OFFCURVE",
"241 781 OFFCURVE",
"269 781 CURVE SMOOTH"
);
},
{
closed = 1;
nodes = (
"514 781 OFFCURVE",
"532 800 OFFCURVE",
"532 827 CURVE SMOOTH",
"532 855 OFFCURVE",
"514 875 OFFCURVE",
"485 875 CURVE SMOOTH",
"456 875 OFFCURVE",
"438 855 OFFCURVE",
"438 827 CURVE SMOOTH",
"438 800 OFFCURVE",
"456 781 OFFCURVE",
"485 781 CURVE SMOOTH"
);
}
);
};
components = (
{
name = O;
},
{
name = dieresis;
transform = "{1, 0, 0, 1, 132, 230}";
}
);
layerId = "0B1DFD06-3317-40CA-B510-4969A0718C16";
width = 662;
}
);
leftKerningGroup = O;
note = Odieresis;
rightKerningGroup = O;
unicode = 00D6;
},
{
glyphname = Odotbelow;
lastChange = "2018-03-04 14:29:51 +0000";
layers = (
{
background = {
paths = (
{
closed = 1;
nodes = (
"36 124 OFFCURVE",
"154 -10 OFFCURVE",
"378 -10 CURVE SMOOTH",
"601 -10 OFFCURVE",
"719 124 OFFCURVE",
"719 350 CURVE SMOOTH",
"719 574 OFFCURVE",
"601 710 OFFCURVE",
"378 710 CURVE SMOOTH",
"154 710 OFFCURVE",
"36 574 OFFCURVE",
"36 350 CURVE SMOOTH"
);
},
{
closed = 1;
nodes = (
"135 541 OFFCURVE",
"215 668 OFFCURVE",
"377 668 CURVE SMOOTH",
"541 668 OFFCURVE",
"620 541 OFFCURVE",
"620 350 CURVE SMOOTH",
"620 158 OFFCURVE",
"541 32 OFFCURVE",
"377 32 CURVE SMOOTH",
"215 32 OFFCURVE",
"135 158 OFFCURVE",
"135 350 CURVE SMOOTH"
);
},
{
closed = 1;
nodes = (
"330 -140 OFFCURVE",
"349 -159 OFFCURVE",
"377 -159 CURVE SMOOTH",
"405 -159 OFFCURVE",
"423 -140 OFFCURVE",
"423 -112 CURVE SMOOTH",
"423 -84 OFFCURVE",
"405 -64 OFFCURVE",
"377 -64 CURVE SMOOTH",
"349 -64 OFFCURVE",
"330 -84 OFFCURVE",
"330 -112 CURVE SMOOTH"
);
}
);
};
components = (
{
name = O;
},
{
name = dotbelowcomb;
transform = "{1, 0, 0, 1, 629, 0}";
}
);
layerId = "0B1DFD06-3317-40CA-B510-4969A0718C16";
width = 662;
}
);
leftKerningGroup = O;
note = Odotbelow;
rightKerningGroup = O;
unicode = 1ECC;
},
{
glyphname = Ograve;
lastChange = "2018-03-04 14:29:51 +0000";
layers = (
{
background = {
paths = (
{
closed = 1;
nodes = (
"601 -10 OFFCURVE",
"719 124 OFFCURVE",
"719 350 CURVE SMOOTH",
"719 574 OFFCURVE",
"601 710 OFFCURVE",
"378 710 CURVE SMOOTH",
"154 710 OFFCURVE",
"36 574 OFFCURVE",
"36 350 CURVE SMOOTH",
"36 124 OFFCURVE",
"154 -10 OFFCURVE",
"378 -10 CURVE SMOOTH"
);
},
{
closed = 1;
nodes = (
"215 32 OFFCURVE",
"135 158 OFFCURVE",
"135 350 CURVE SMOOTH",
"135 541 OFFCURVE",
"215 668 OFFCURVE",
"377 668 CURVE SMOOTH",
"541 668 OFFCURVE",
"620 541 OFFCURVE",
"620 350 CURVE SMOOTH",
"620 158 OFFCURVE",
"541 32 OFFCURVE",
"377 32 CURVE SMOOTH"
);
},
{
closed = 1;
nodes = (
"459 807 LINE",
"344 913 LINE",
"335 922 OFFCURVE",
"319 937 OFFCURVE",
"299 937 CURVE SMOOTH",
"279 937 OFFCURVE",
"267 924 OFFCURVE",
"267 908 CURVE SMOOTH",
"267 890 OFFCURVE",
"279 876 OFFCURVE",
"298 865 CURVE SMOOTH",
"441 782 LINE"
);
}
);
};
components = (
{
name = O;
},
{
name = grave;
transform = "{1, 0, 0, 1, 132, 230}";
}
);
layerId = "0B1DFD06-3317-40CA-B510-4969A0718C16";
width = 662;
}
);
leftKerningGroup = O;
note = Ograve;
rightKerningGroup = O;
unicode = 00D2;
},
{
glyphname = Ohookabove;
lastChange = "2018-03-04 14:29:51 +0000";
layers = (
{
background = {
paths = (
{
closed = 1;
nodes = (
"601 -10 OFFCURVE",
"719 124 OFFCURVE",
"719 350 CURVE SMOOTH",
"719 574 OFFCURVE",
"601 710 OFFCURVE",
"378 710 CURVE SMOOTH",
"154 710 OFFCURVE",
"36 574 OFFCURVE",
"36 350 CURVE SMOOTH",
"36 124 OFFCURVE",
"154 -10 OFFCURVE",
"378 -10 CURVE SMOOTH"
);
},
{
closed = 1;
nodes = (
"215 32 OFFCURVE",
"135 158 OFFCURVE",
"135 350 CURVE SMOOTH",
"135 541 OFFCURVE",
"215 668 OFFCURVE",
"377 668 CURVE SMOOTH",
"541 668 OFFCURVE",
"620 541 OFFCURVE",
"620 350 CURVE SMOOTH",
"620 158 OFFCURVE",
"541 32 OFFCURVE",
"377 32 CURVE SMOOTH"
);
},
{
closed = 1;
nodes = (
"407 798 LINE",
"388 805 OFFCURVE",
"376 811 OFFCURVE",
"376 828 CURVE SMOOTH",
"376 861 OFFCURVE",
"465 876 OFFCURVE",
"465 927 CURVE SMOOTH",
"465 969 OFFCURVE",
"429 991 OFFCURVE",
"376 991 CURVE SMOOTH",
"329 991 OFFCURVE",
"288 974 OFFCURVE",
"288 940 CURVE SMOOTH",
"288 923 OFFCURVE",
"296 915 OFFCURVE",
"311 915 CURVE SMOOTH",
"334 915 OFFCURVE",
"336 934 OFFCURVE",
"339 942 CURVE SMOOTH",
"344 956 OFFCURVE",
"361 962 OFFCURVE",
"377 962 CURVE SMOOTH",
"398 962 OFFCURVE",
"411 947 OFFCURVE",
"411 930 CURVE SMOOTH",
"411 885 OFFCURVE",
"329 874 OFFCURVE",
"329 828 CURVE SMOOTH",
"329 801 OFFCURVE",
"347 778 OFFCURVE",
"398 778 CURVE"
);
}
);
};
components = (
{
name = O;
},
{
name = hookabovecomb;
transform = "{1, 0, 0, 1, 629, 230}";
}
);
layerId = "0B1DFD06-3317-40CA-B510-4969A0718C16";
width = 662;
}
);
leftKerningGroup = O;
note = Ohookabove;
rightKerningGroup = O;
unicode = 1ECE;
},
{
glyphname = Ohorn;
lastChange = "2017-12-19 06:12:42 +0000";
layers = (
{
layerId = "0B1DFD06-3317-40CA-B510-4969A0718C16";
paths = (
{
closed = 1;
nodes = (
"180 41 OFFCURVE",
"117 196 OFFCURVE",
"117 352 CURVE SMOOTH",
"117 505 OFFCURVE",
"180 662 OFFCURVE",
"340 662 CURVE SMOOTH",
"498 662 OFFCURVE",
"561 505 OFFCURVE",
"561 352 CURVE SMOOTH",
"561 196 OFFCURVE",
"498 41 OFFCURVE",
"340 41 CURVE SMOOTH"
);
},
{
closed = 1;
nodes = (
"595 740 LINE",
"585 691 OFFCURVE",
"558 660 OFFCURVE",
"530 637 CURVE",
"483 687 OFFCURVE",
"418 716 OFFCURVE",
"340 716 CURVE SMOOTH",
"158 716 OFFCURVE",
"59 570 OFFCURVE",
"59 352 CURVE SMOOTH",
"59 133 OFFCURVE",
"158 -13 OFFCURVE",
"340 -13 CURVE SMOOTH",
"518 -13 OFFCURVE",
"620 133 OFFCURVE",
"620 352 CURVE SMOOTH",
"620 449 OFFCURVE",
"600 533 OFFCURVE",
"560 595 CURVE",
"597 614 OFFCURVE",
"645 669 OFFCURVE",
"656 738 CURVE"
);
}
);
width = 679;
}
);
note = Ohorn;
unicode = 01A0;
},
{
glyphname = Ohornacute;
lastChange = "2017-12-19 05:21:12 +0000";
layers = (
{
background = {
paths = (
{
closed = 1;
nodes = (
"602 -10 OFFCURVE",
"720 124 OFFCURVE",
"720 350 CURVE SMOOTH",
"720 574 OFFCURVE",
"602 710 OFFCURVE",
"379 710 CURVE SMOOTH",
"155 710 OFFCURVE",
"37 574 OFFCURVE",
"37 350 CURVE SMOOTH",
"37 124 OFFCURVE",
"155 -10 OFFCURVE",
"379 -10 CURVE SMOOTH"
);
},
{
closed = 1;
nodes = (
"216 32 OFFCURVE",
"136 158 OFFCURVE",
"136 350 CURVE SMOOTH",
"136 541 OFFCURVE",
"216 668 OFFCURVE",
"378 668 CURVE SMOOTH",
"542 668 OFFCURVE",
"621 541 OFFCURVE",
"621 350 CURVE SMOOTH",
"621 158 OFFCURVE",
"542 32 OFFCURVE",
"378 32 CURVE SMOOTH"
);
},
{
closed = 1;
nodes = (
"424 864 LINE SMOOTH",
"446 876 OFFCURVE",
"458 889 OFFCURVE",
"458 906 CURVE SMOOTH",
"458 921 OFFCURVE",
"446 936 OFFCURVE",
"424 936 CURVE SMOOTH",
"403 936 OFFCURVE",
"388 920 OFFCURVE",
"380 913 CURVE SMOOTH",
"265 806 LINE",
"282 781 LINE"
);
},
{
closed = 1;
nodes = (
"691 567 OFFCURVE",
"756 632 OFFCURVE",
"756 705 CURVE SMOOTH",
"756 752 OFFCURVE",
"729 772 OFFCURVE",
"701 772 CURVE SMOOTH",
"672 772 OFFCURVE",
"656 752 OFFCURVE",
"656 729 CURVE SMOOTH",
"656 695 OFFCURVE",
"689 688 OFFCURVE",
"689 653 CURVE SMOOTH",
"689 617 OFFCURVE",
"658 588 OFFCURVE",
"623 568 CURVE",
"623 543 LINE"
);
}
);
};
components = (
{
name = acute;
transform = "{1, 0, 0, 1, 120, 230}";
},
{
name = Ohorn;
}
);
layerId = "0B1DFD06-3317-40CA-B510-4969A0718C16";
width = 755;
}
);
leftKerningGroup = O;
note = Ohornacute;
rightKerningGroup = O;
unicode = 1EDA;
},
{
glyphname = Ohorndotbelow;
lastChange = "2017-12-19 05:21:12 +0000";
layers = (
{
background = {
paths = (
{
closed = 1;
nodes = (
"602 -10 OFFCURVE",
"720 124 OFFCURVE",
"720 350 CURVE SMOOTH",
"720 574 OFFCURVE",
"602 710 OFFCURVE",
"379 710 CURVE SMOOTH",
"155 710 OFFCURVE",
"37 574 OFFCURVE",
"37 350 CURVE SMOOTH",
"37 124 OFFCURVE",
"155 -10 OFFCURVE",
"379 -10 CURVE SMOOTH"
);
},
{
closed = 1;
nodes = (
"216 32 OFFCURVE",
"136 158 OFFCURVE",
"136 350 CURVE SMOOTH",
"136 541 OFFCURVE",
"216 668 OFFCURVE",
"378 668 CURVE SMOOTH",
"542 668 OFFCURVE",
"621 541 OFFCURVE",
"621 350 CURVE SMOOTH",
"621 158 OFFCURVE",
"542 32 OFFCURVE",
"378 32 CURVE SMOOTH"
);
},
{
closed = 1;
nodes = (
"691 567 OFFCURVE",
"756 632 OFFCURVE",
"756 705 CURVE SMOOTH",
"756 752 OFFCURVE",
"729 772 OFFCURVE",
"701 772 CURVE SMOOTH",
"672 772 OFFCURVE",
"656 752 OFFCURVE",
"656 729 CURVE SMOOTH",
"656 695 OFFCURVE",
"689 688 OFFCURVE",
"689 653 CURVE SMOOTH",
"689 617 OFFCURVE",
"658 588 OFFCURVE",
"623 568 CURVE",
"623 543 LINE"
);
},
{
closed = 1;
nodes = (
"395 -159 OFFCURVE",
"413 -140 OFFCURVE",
"413 -112 CURVE SMOOTH",
"413 -84 OFFCURVE",
"395 -64 OFFCURVE",
"367 -64 CURVE SMOOTH",
"339 -64 OFFCURVE",
"320 -84 OFFCURVE",
"320 -112 CURVE SMOOTH",
"320 -140 OFFCURVE",
"339 -159 OFFCURVE",
"367 -159 CURVE SMOOTH"
);
}
);
};
components = (
{
name = dotbelowcomb;
transform = "{1, 0, 0, 1, 629, 0}";
},
{
name = Ohorn;
}
);
layerId = "0B1DFD06-3317-40CA-B510-4969A0718C16";
width = 755;
}
);
leftKerningGroup = O;
note = Ohorndotbelow;
rightKerningGroup = O;
unicode = 1EE2;
},
{
glyphname = Ohorngrave;
lastChange = "2017-12-19 05:21:12 +0000";
layers = (
{
background = {
paths = (
{
closed = 1;
nodes = (
"602 -10 OFFCURVE",
"720 124 OFFCURVE",
"720 350 CURVE SMOOTH",
"720 574 OFFCURVE",
"602 710 OFFCURVE",
"379 710 CURVE SMOOTH",
"155 710 OFFCURVE",
"37 574 OFFCURVE",
"37 350 CURVE SMOOTH",
"37 124 OFFCURVE",
"155 -10 OFFCURVE",
"379 -10 CURVE SMOOTH"
);
},
{
closed = 1;
nodes = (
"216 32 OFFCURVE",
"136 158 OFFCURVE",
"136 350 CURVE SMOOTH",
"136 541 OFFCURVE",
"216 668 OFFCURVE",
"378 668 CURVE SMOOTH",
"542 668 OFFCURVE",
"621 541 OFFCURVE",
"621 350 CURVE SMOOTH",
"621 158 OFFCURVE",
"542 32 OFFCURVE",
"378 32 CURVE SMOOTH"
);
},
{
closed = 1;
nodes = (
"464 816 LINE",
"349 922 LINE",
"340 931 OFFCURVE",
"324 946 OFFCURVE",
"304 946 CURVE SMOOTH",
"284 946 OFFCURVE",
"272 933 OFFCURVE",
"272 917 CURVE SMOOTH",
"272 899 OFFCURVE",
"284 885 OFFCURVE",
"303 874 CURVE SMOOTH",
"446 791 LINE"
);
},
{
closed = 1;
nodes = (
"691 567 OFFCURVE",
"756 632 OFFCURVE",
"756 705 CURVE SMOOTH",
"756 752 OFFCURVE",
"729 772 OFFCURVE",
"701 772 CURVE SMOOTH",
"672 772 OFFCURVE",
"656 752 OFFCURVE",
"656 729 CURVE SMOOTH",
"656 695 OFFCURVE",
"689 688 OFFCURVE",
"689 653 CURVE SMOOTH",
"689 617 OFFCURVE",
"658 588 OFFCURVE",
"623 568 CURVE",
"623 543 LINE"
);
}
);
};
components = (
{
name = grave;
transform = "{1, 0, 0, 1, 132, 230}";
},
{
name = Ohorn;
}
);
layerId = "0B1DFD06-3317-40CA-B510-4969A0718C16";
width = 755;
}
);
leftKerningGroup = O;
note = Ohorngrave;
rightKerningGroup = O;
unicode = 1EDC;
},
{
glyphname = Ohornhookabove;
lastChange = "2017-12-19 05:21:12 +0000";
layers = (
{
background = {
paths = (
{
closed = 1;
nodes = (
"602 -10 OFFCURVE",
"720 124 OFFCURVE",
"720 350 CURVE SMOOTH",
"720 574 OFFCURVE",
"602 710 OFFCURVE",
"379 710 CURVE SMOOTH",
"155 710 OFFCURVE",
"37 574 OFFCURVE",
"37 350 CURVE SMOOTH",
"37 124 OFFCURVE",
"155 -10 OFFCURVE",
"379 -10 CURVE SMOOTH"
);
},
{
closed = 1;
nodes = (
"216 32 OFFCURVE",
"136 158 OFFCURVE",
"136 350 CURVE SMOOTH",
"136 541 OFFCURVE",
"216 668 OFFCURVE",
"378 668 CURVE SMOOTH",
"542 668 OFFCURVE",
"621 541 OFFCURVE",
"621 350 CURVE SMOOTH",
"621 158 OFFCURVE",
"542 32 OFFCURVE",
"378 32 CURVE SMOOTH"
);
},
{
closed = 1;
nodes = (
"412 809 LINE",
"393 816 OFFCURVE",
"381 822 OFFCURVE",
"381 839 CURVE SMOOTH",
"381 872 OFFCURVE",
"470 887 OFFCURVE",
"470 938 CURVE SMOOTH",
"470 980 OFFCURVE",
"434 1002 OFFCURVE",
"381 1002 CURVE SMOOTH",
"334 1002 OFFCURVE",
"293 985 OFFCURVE",
"293 951 CURVE SMOOTH",
"293 934 OFFCURVE",
"301 926 OFFCURVE",
"316 926 CURVE SMOOTH",
"339 926 OFFCURVE",
"341 945 OFFCURVE",
"344 953 CURVE SMOOTH",
"349 967 OFFCURVE",
"366 973 OFFCURVE",
"382 973 CURVE SMOOTH",
"403 973 OFFCURVE",
"416 958 OFFCURVE",
"416 941 CURVE SMOOTH",
"416 896 OFFCURVE",
"334 885 OFFCURVE",
"334 839 CURVE SMOOTH",
"334 812 OFFCURVE",
"352 789 OFFCURVE",
"403 789 CURVE"
);
},
{
closed = 1;
nodes = (
"691 567 OFFCURVE",
"756 632 OFFCURVE",
"756 705 CURVE SMOOTH",
"756 752 OFFCURVE",
"729 772 OFFCURVE",
"701 772 CURVE SMOOTH",
"672 772 OFFCURVE",
"656 752 OFFCURVE",
"656 729 CURVE SMOOTH",
"656 695 OFFCURVE",
"689 688 OFFCURVE",
"689 653 CURVE SMOOTH",
"689 617 OFFCURVE",
"658 588 OFFCURVE",
"623 568 CURVE",
"623 543 LINE"
);
}
);
};
components = (
{
name = hookabovecomb;
transform = "{1, 0, 0, 1, 629, 230}";
},
{
name = Ohorn;
}
);
layerId = "0B1DFD06-3317-40CA-B510-4969A0718C16";
width = 755;
}
);
leftKerningGroup = O;
note = Ohornhookabove;
rightKerningGroup = O;
unicode = 1EDE;
},
{
glyphname = Ohorntilde;
lastChange = "2017-12-19 05:21:12 +0000";
layers = (
{
background = {
paths = (
{
closed = 1;
nodes = (
"602 -10 OFFCURVE",
"720 124 OFFCURVE",
"720 350 CURVE SMOOTH",
"720 574 OFFCURVE",
"602 710 OFFCURVE",
"379 710 CURVE SMOOTH",
"155 710 OFFCURVE",
"37 574 OFFCURVE",
"37 350 CURVE SMOOTH",
"37 124 OFFCURVE",
"155 -10 OFFCURVE",
"379 -10 CURVE SMOOTH"
);
},
{
closed = 1;
nodes = (
"216 32 OFFCURVE",
"136 158 OFFCURVE",
"136 350 CURVE SMOOTH",
"136 541 OFFCURVE",
"216 668 OFFCURVE",
"378 668 CURVE SMOOTH",
"542 668 OFFCURVE",
"621 541 OFFCURVE",
"621 350 CURVE SMOOTH",
"621 158 OFFCURVE",
"542 32 OFFCURVE",
"378 32 CURVE SMOOTH"
);
},
{
closed = 1;
nodes = (
"234 828 OFFCURVE",
"252 849 OFFCURVE",
"285 849 CURVE SMOOTH",
"336 849 OFFCURVE",
"385 795 OFFCURVE",
"436 795 CURVE SMOOTH",
"494 795 OFFCURVE",
"524 843 OFFCURVE",
"536 895 CURVE",
"515 906 LINE",
"499 866 OFFCURVE",
"483 844 OFFCURVE",
"449 844 CURVE SMOOTH",
"400 844 OFFCURVE",
"348 897 OFFCURVE",
"297 897 CURVE SMOOTH",
"243 897 OFFCURVE",
"210 853 OFFCURVE",
"198 801 CURVE",
"220 790 LINE"
);
},
{
closed = 1;
nodes = (
"691 567 OFFCURVE",
"756 632 OFFCURVE",
"756 705 CURVE SMOOTH",
"756 752 OFFCURVE",
"729 772 OFFCURVE",
"701 772 CURVE SMOOTH",
"672 772 OFFCURVE",
"656 752 OFFCURVE",
"656 729 CURVE SMOOTH",
"656 695 OFFCURVE",
"689 688 OFFCURVE",
"689 653 CURVE SMOOTH",
"689 617 OFFCURVE",
"658 588 OFFCURVE",
"623 568 CURVE",
"623 543 LINE"
);
}
);
};
components = (
{
name = tilde;
transform = "{1, 0, 0, 1, 132, 230}";
},
{
name = Ohorn;
}
);
layerId = "0B1DFD06-3317-40CA-B510-4969A0718C16";
width = 755;
}
);
leftKerningGroup = O;
note = Ohorntilde;
rightKerningGroup = O;
unicode = 1EE0;
},
{
glyphname = Ohungarumlaut;
lastChange = "2018-03-04 14:29:51 +0000";
layers = (
{
background = {
paths = (
{
closed = 1;
nodes = (
"601 -10 OFFCURVE",
"719 124 OFFCURVE",
"719 350 CURVE SMOOTH",
"719 574 OFFCURVE",
"601 710 OFFCURVE",
"378 710 CURVE SMOOTH",
"154 710 OFFCURVE",
"36 574 OFFCURVE",
"36 350 CURVE SMOOTH",
"36 124 OFFCURVE",
"154 -10 OFFCURVE",
"378 -10 CURVE SMOOTH"
);
},
{
closed = 1;
nodes = (
"215 32 OFFCURVE",
"135 158 OFFCURVE",
"135 350 CURVE SMOOTH",
"135 541 OFFCURVE",
"215 668 OFFCURVE",
"377 668 CURVE SMOOTH",
"541 668 OFFCURVE",
"620 541 OFFCURVE",
"620 350 CURVE SMOOTH",
"620 158 OFFCURVE",
"541 32 OFFCURVE",
"377 32 CURVE SMOOTH"
);
},
{
closed = 1;
nodes = (
"395 864 LINE SMOOTH",
"417 877 OFFCURVE",
"429 891 OFFCURVE",
"429 908 CURVE SMOOTH",
"429 922 OFFCURVE",
"421 937 OFFCURVE",
"399 937 CURVE SMOOTH",
"378 937 OFFCURVE",
"357 919 OFFCURVE",
"350 913 CURVE",
"236 807 LINE",
"253 782 LINE"
);
},
{
closed = 1;
nodes = (
"556 864 LINE SMOOTH",
"577 877 OFFCURVE",
"589 891 OFFCURVE",
"589 908 CURVE SMOOTH",
"589 922 OFFCURVE",
"578 937 OFFCURVE",
"556 937 CURVE SMOOTH",
"534 937 OFFCURVE",
"517 919 OFFCURVE",
"510 913 CURVE",
"396 807 LINE",
"414 782 LINE"
);
}
);
};
components = (
{
name = O;
},
{
name = hungarumlaut;
transform = "{1, 0, 0, 1, 131, 230}";
}
);
layerId = "0B1DFD06-3317-40CA-B510-4969A0718C16";
width = 662;
}
);
leftKerningGroup = O;
note = Ohungarumlaut;
rightKerningGroup = O;
unicode = 0150;
},
{
glyphname = Omacron;
lastChange = "2018-03-04 14:29:51 +0000";
layers = (
{
background = {
paths = (
{
closed = 1;
nodes = (
"601 -10 OFFCURVE",
"719 124 OFFCURVE",
"719 350 CURVE SMOOTH",
"719 574 OFFCURVE",
"601 710 OFFCURVE",
"378 710 CURVE SMOOTH",
"154 710 OFFCURVE",
"36 574 OFFCURVE",
"36 350 CURVE SMOOTH",
"36 124 OFFCURVE",
"154 -10 OFFCURVE",
"378 -10 CURVE SMOOTH"
);
},
{
closed = 1;
nodes = (
"215 32 OFFCURVE",
"135 158 OFFCURVE",
"135 350 CURVE SMOOTH",
"135 541 OFFCURVE",
"215 668 OFFCURVE",
"377 668 CURVE SMOOTH",
"541 668 OFFCURVE",
"620 541 OFFCURVE",
"620 350 CURVE SMOOTH",
"620 158 OFFCURVE",
"541 32 OFFCURVE",
"377 32 CURVE SMOOTH"
);
},
{
closed = 1;
nodes = (
"543 793 LINE",
"543 835 LINE",
"210 835 LINE",
"210 793 LINE"
);
}
);
};
components = (
{
name = O;
},
{
name = macron;
transform = "{1, 0, 0, 1, 132, 230}";
}
);
layerId = "0B1DFD06-3317-40CA-B510-4969A0718C16";
width = 662;
}
);
leftKerningGroup = O;
note = Omacron;
rightKerningGroup = O;
unicode = 014C;
},
{
glyphname = Oslash;
lastChange = "2017-12-19 06:12:50 +0000";
layers = (
{
layerId = "0B1DFD06-3317-40CA-B510-4969A0718C16";
paths = (
{
closed = 1;
nodes = (
"589 749 LINE",
"597 761 OFFCURVE",
"585 764 OFFCURVE",
"572 771 CURVE",
"560 777 OFFCURVE",
"551 786 OFFCURVE",
"544 774 CURVE",
"493 681 LINE",
"452 709 OFFCURVE",
"402 724 OFFCURVE",
"344 724 CURVE SMOOTH",
"162 724 OFFCURVE",
"64 578 OFFCURVE",
"64 360 CURVE SMOOTH",
"64 236 OFFCURVE",
"96 136 OFFCURVE",
"155 71 CURVE",
"90 -46 LINE",
"83 -58 OFFCURVE",
"96 -62 OFFCURVE",
"108 -69 CURVE",
"121 -75 OFFCURVE",
"128 -83 OFFCURVE",
"136 -71 CURVE",
"196 37 LINE",
"236 9 OFFCURVE",
"287 -6 OFFCURVE",
"344 -6 CURVE SMOOTH",
"523 -6 OFFCURVE",
"625 140 OFFCURVE",
"625 360 CURVE SMOOTH",
"625 483 OFFCURVE",
"592 582 OFFCURVE",
"533 645 CURVE"
);
},
{
closed = 1;
nodes = (
"121 514 OFFCURVE",
"185 669 OFFCURVE",
"344 669 CURVE SMOOTH",
"393 669 OFFCURVE",
"433 654 OFFCURVE",
"464 629 CURVE",
"186 127 LINE",
"142 186 OFFCURVE",
"121 273 OFFCURVE",
"121 360 CURVE SMOOTH"
);
},
{
closed = 1;
nodes = (
"295 49 OFFCURVE",
"257 64 OFFCURVE",
"225 89 CURVE",
"502 591 LINE",
"546 530 OFFCURVE",
"566 445 OFFCURVE",
"566 360 CURVE SMOOTH",
"566 205 OFFCURVE",
"502 49 OFFCURVE",
"344 49 CURVE SMOOTH"
);
}
);
width = 688;
}
);
note = Oslash;
unicode = 00D8;
},
{
glyphname = OE;
lastChange = "2017-12-19 06:13:01 +0000";
layers = (
{
layerId = "0B1DFD06-3317-40CA-B510-4969A0718C16";
paths = (
{
closed = 1;
nodes = (
"165 35 OFFCURVE",
"102 191 OFFCURVE",
"102 346 CURVE SMOOTH",
"102 499 OFFCURVE",
"165 656 OFFCURVE",
"325 656 CURVE SMOOTH",
"483 656 OFFCURVE",
"546 499 OFFCURVE",
"546 346 CURVE SMOOTH",
"546 191 OFFCURVE",
"483 35 OFFCURVE",
"325 35 CURVE SMOOTH"
);
},
{
closed = 1;
nodes = (
"143 710 OFFCURVE",
"44 564 OFFCURVE",
"44 346 CURVE SMOOTH",
"44 127 OFFCURVE",
"143 -19 OFFCURVE",
"325 -19 CURVE SMOOTH",
"425 -19 OFFCURVE",
"502 27 OFFCURVE",
"549 106 CURVE",
"549 0 LINE",
"913 0 LINE",
"913 58 LINE",
"609 58 LINE",
"609 334 LINE",
"882 334 LINE",
"882 391 LINE",
"609 391 LINE",
"609 642 LINE",
"914 642 LINE",
"914 700 LINE",
"585 700 LINE",
"578 707 OFFCURVE",
"569 713 OFFCURVE",
"563 713 CURVE SMOOTH",
"544 713 OFFCURVE",
"530 697 OFFCURVE",
"527 688 CURVE",
"523 671 OFFCURVE",
"548 659 OFFCURVE",
"549 642 CURVE",
"549 583 LINE",
"502 663 OFFCURVE",
"425 710 OFFCURVE",
"325 710 CURVE SMOOTH"
);
}
);
width = 947;
}
);
note = OE;
unicode = 0152;
},
{
glyphname = Thorn;
lastChange = "2017-12-19 06:13:14 +0000";
layers = (
{
layerId = "0B1DFD06-3317-40CA-B510-4969A0718C16";
paths = (
{
closed = 1;
nodes = (
"513 524 OFFCURVE",
"403 588 OFFCURVE",
"261 586 CURVE SMOOTH",
"227 586 OFFCURVE",
"127 586 OFFCURVE",
"127 586 CURVE",
"127 718 LINE",
"80 718 LINE",
"80 0 LINE",
"127 0 LINE",
"127 171 LINE",
"127 171 OFFCURVE",
"235 171 OFFCURVE",
"235 171 CURVE",
"405 171 OFFCURVE",
"513 233 OFFCURVE",
"513 387 CURVE SMOOTH"
);
},
{
closed = 1;
nodes = (
"462 267 OFFCURVE",
"383 222 OFFCURVE",
"238 222 CURVE SMOOTH",
"207 222 OFFCURVE",
"127 222 OFFCURVE",
"127 222 CURVE",
"127 541 LINE",
"127 541 OFFCURVE",
"211 541 OFFCURVE",
"263 541 CURVE SMOOTH",
"369 541 OFFCURVE",
"462 493 OFFCURVE",
"462 380 CURVE SMOOTH"
);
}
);
width = 582;
}
);
note = Thorn;
unicode = 00DE;
},
{
color = 0;
glyphname = Germandbls;
lastChange = "2017-12-19 05:23:49 +0000";
layers = (
{
layerId = "0B1DFD06-3317-40CA-B510-4969A0718C16";
paths = (
{
closed = 1;
nodes = (
"606 -10 OFFCURVE",
"674 88 OFFCURVE",
"674 203 CURVE SMOOTH",
"674 313 OFFCURVE",
"592 385 OFFCURVE",
"445 398 CURVE",
"591 553 LINE",
"569 627 OFFCURVE",
"489 710 OFFCURVE",
"354 710 CURVE SMOOTH",
"177 710 OFFCURVE",
"92 616 OFFCURVE",
"92 470 CURVE SMOOTH",
"92 62 LINE SMOOTH",
"92 37 OFFCURVE",
"72 26 OFFCURVE",
"33 26 CURVE SMOOTH",
"5 26 LINE",
"5 0 LINE",
"255 0 LINE",
"255 26 LINE",
"227 26 LINE SMOOTH",
"202 26 OFFCURVE",
"188 44 OFFCURVE",
"188 63 CURVE SMOOTH",
"188 495 LINE SMOOTH",
"188 602 OFFCURVE",
"246 668 OFFCURVE",
"347 668 CURVE SMOOTH",
"431 668 OFFCURVE",
"479 617 OFFCURVE",
"499 555 CURVE",
"344 387 LINE",
"344 361 LINE",
"406 361 LINE SMOOTH",
"520 361 OFFCURVE",
"578 296 OFFCURVE",
"578 203 CURVE SMOOTH",
"578 100 OFFCURVE",
"521 29 OFFCURVE",
"419 29 CURVE SMOOTH",
"374 29 OFFCURVE",
"324 37 OFFCURVE",
"277 56 CURVE",
"277 14 LINE",
"318 -2 OFFCURVE",
"367 -10 OFFCURVE",
"423 -10 CURVE SMOOTH"
);
}
);
width = 703;
}
);
note = uni1E9E;
unicode = 1E9E;
},
{
color = 0;
glyphname = Schwa;
lastChange = "2017-12-19 05:23:49 +0000";
layers = (
{
layerId = "0B1DFD06-3317-40CA-B510-4969A0718C16";
paths = (
{
closed = 1;
nodes = (
"543 -10 OFFCURVE",
"658 120 OFFCURVE",
"658 346 CURVE SMOOTH",
"658 569 OFFCURVE",
"533 710 OFFCURVE",
"323 710 CURVE SMOOTH",
"160 710 OFFCURVE",
"56 618 OFFCURVE",
"41 500 CURVE",
"84 500 LINE",
"111 616 OFFCURVE",
"202 660 OFFCURVE",
"298 660 CURVE SMOOTH",
"479 660 OFFCURVE",
"559 515 OFFCURVE",
"559 341 CURVE SMOOTH",
"559 185 OFFCURVE",
"486 39 OFFCURVE",
"327 39 CURVE SMOOTH",
"181 39 OFFCURVE",
"133 180 OFFCURVE",
"132 283 CURVE",
"573 283 LINE",
"573 333 LINE",
"33 333 LINE",
"33 303 LINE SMOOTH",
"33 132 OFFCURVE",
"119 -10 OFFCURVE",
"330 -10 CURVE SMOOTH"
);
}
);
width = 692;
}
);
note = uni018F;
unicode = 018F;
},
{
glyphname = Tbar;
lastChange = "2017-12-19 05:21:12 +0000";
layers = (
{
components = (
{
name = T;
}
);
layerId = "0B1DFD06-3317-40CA-B510-4969A0718C16";
paths = (
{
closed = 1;
nodes = (
"520 317 LINE",
"520 363 LINE",
"134 363 LINE",
"134 317 LINE"
);
}
);
width = 652;
}
);
leftKerningGroup = T;
note = Tbar;
rightKerningGroup = T;
unicode = 0166;
},
{
glyphname = Uacute;
lastChange = "2018-03-04 14:29:51 +0000";
layers = (
{
background = {
paths = (
{
closed = 1;
nodes = (
"539 -10 OFFCURVE",
"636 51 OFFCURVE",
"636 204 CURVE SMOOTH",
"636 637 LINE SMOOTH",
"636 662 OFFCURVE",
"660 673 OFFCURVE",
"690 673 CURVE SMOOTH",
"713 673 LINE",
"713 700 LINE",
"510 700 LINE",
"510 673 LINE",
"532 673 LINE SMOOTH",
"564 673 OFFCURVE",
"586 662 OFFCURVE",
"586 637 CURVE SMOOTH",
"586 197 LINE SMOOTH",
"586 65 OFFCURVE",
"489 31 OFFCURVE",
"397 31 CURVE SMOOTH",
"290 31 OFFCURVE",
"203 63 OFFCURVE",
"203 197 CURVE SMOOTH",
"203 637 LINE SMOOTH",
"203 662 OFFCURVE",
"226 673 OFFCURVE",
"257 673 CURVE SMOOTH",
"280 673 LINE",
"280 700 LINE",
"28 700 LINE",
"28 673 LINE",
"51 673 LINE SMOOTH",
"82 673 OFFCURVE",
"105 662 OFFCURVE",
"105 637 CURVE SMOOTH",
"105 204 LINE SMOOTH",
"105 46 OFFCURVE",
"208 -10 OFFCURVE",
"375 -10 CURVE SMOOTH"
);
},
{
closed = 1;
nodes = (
"447 865 LINE SMOOTH",
"469 877 OFFCURVE",
"481 890 OFFCURVE",
"481 907 CURVE SMOOTH",
"481 922 OFFCURVE",
"469 937 OFFCURVE",
"447 937 CURVE SMOOTH",
"426 937 OFFCURVE",
"411 921 OFFCURVE",
"403 914 CURVE SMOOTH",
"288 807 LINE",
"305 782 LINE"
);
}
);
};
components = (
{
name = U;
},
{
name = acute;
transform = "{1, 0, 0, 1, 136, 230}";
}
);
layerId = "0B1DFD06-3317-40CA-B510-4969A0718C16";
width = 644;
}
);
leftKerningGroup = U;
note = Uacute;
rightKerningGroup = U;
unicode = 00DA;
},
{
glyphname = Ubreve;
lastChange = "2018-03-04 14:29:51 +0000";
layers = (
{
background = {
paths = (
{
closed = 1;
nodes = (
"539 -10 OFFCURVE",
"636 51 OFFCURVE",
"636 204 CURVE SMOOTH",
"636 637 LINE SMOOTH",
"636 662 OFFCURVE",
"660 673 OFFCURVE",
"690 673 CURVE SMOOTH",
"713 673 LINE",
"713 700 LINE",
"510 700 LINE",
"510 673 LINE",
"532 673 LINE SMOOTH",
"564 673 OFFCURVE",
"586 662 OFFCURVE",
"586 637 CURVE SMOOTH",
"586 197 LINE SMOOTH",
"586 65 OFFCURVE",
"489 31 OFFCURVE",
"397 31 CURVE SMOOTH",
"290 31 OFFCURVE",
"203 63 OFFCURVE",
"203 197 CURVE SMOOTH",
"203 637 LINE SMOOTH",
"203 662 OFFCURVE",
"226 673 OFFCURVE",
"257 673 CURVE SMOOTH",
"280 673 LINE",
"280 700 LINE",
"28 700 LINE",
"28 673 LINE",
"51 673 LINE SMOOTH",
"82 673 OFFCURVE",
"105 662 OFFCURVE",
"105 637 CURVE SMOOTH",
"105 204 LINE SMOOTH",
"105 46 OFFCURVE",
"208 -10 OFFCURVE",
"375 -10 CURVE SMOOTH"
);
},
{
closed = 1;
nodes = (
"483 774 OFFCURVE",
"525 830 OFFCURVE",
"529 905 CURVE",
"496 905 LINE",
"490 846 OFFCURVE",
"448 820 OFFCURVE",
"384 820 CURVE SMOOTH",
"320 820 OFFCURVE",
"277 846 OFFCURVE",
"270 905 CURVE",
"237 905 LINE",
"241 827 OFFCURVE",
"283 774 OFFCURVE",
"384 774 CURVE SMOOTH"
);
}
);
};
components = (
{
name = U;
},
{
name = breve;
transform = "{1, 0, 0, 1, 148, 230}";
}
);
layerId = "0B1DFD06-3317-40CA-B510-4969A0718C16";
width = 644;
}
);
leftKerningGroup = U;
note = Ubreve;
rightKerningGroup = U;
unicode = 016C;
},
{
glyphname = Ucaron;
lastChange = "2018-03-04 14:29:51 +0000";
layers = (
{
background = {
paths = (
{
closed = 1;
nodes = (
"539 -10 OFFCURVE",
"636 51 OFFCURVE",
"636 204 CURVE SMOOTH",
"636 637 LINE SMOOTH",
"636 662 OFFCURVE",
"660 673 OFFCURVE",
"690 673 CURVE SMOOTH",
"713 673 LINE",
"713 700 LINE",
"510 700 LINE",
"510 673 LINE",
"532 673 LINE SMOOTH",
"564 673 OFFCURVE",
"586 662 OFFCURVE",
"586 637 CURVE SMOOTH",
"586 197 LINE SMOOTH",
"586 65 OFFCURVE",
"489 31 OFFCURVE",
"397 31 CURVE SMOOTH",
"290 31 OFFCURVE",
"203 63 OFFCURVE",
"203 197 CURVE SMOOTH",
"203 637 LINE SMOOTH",
"203 662 OFFCURVE",
"226 673 OFFCURVE",
"257 673 CURVE SMOOTH",
"280 673 LINE",
"280 700 LINE",
"28 700 LINE",
"28 673 LINE",
"51 673 LINE SMOOTH",
"82 673 OFFCURVE",
"105 662 OFFCURVE",
"105 637 CURVE SMOOTH",
"105 204 LINE SMOOTH",
"105 46 OFFCURVE",
"208 -10 OFFCURVE",
"375 -10 CURVE SMOOTH"
);
},
{
closed = 1;
nodes = (
"397 782 LINE",
"521 911 LINE",
"502 932 LINE",
"394 847 LINE",
"386 840 OFFCURVE",
"377 836 OFFCURVE",
"371 836 CURVE SMOOTH",
"365 836 OFFCURVE",
"357 840 OFFCURVE",
"347 847 CURVE",
"239 932 LINE",
"220 911 LINE",
"344 782 LINE"
);
}
);
};
components = (
{
name = U;
},
{
name = caron;
transform = "{1, 0, 0, 1, 148, 230}";
}
);
layerId = "0B1DFD06-3317-40CA-B510-4969A0718C16";
width = 644;
}
);
leftKerningGroup = U;
note = Ucaron;
rightKerningGroup = U;
unicode = 01D3;
},
{
glyphname = Ucircumflex;
lastChange = "2018-03-04 14:29:51 +0000";
layers = (
{
background = {
paths = (
{
closed = 1;
nodes = (
"539 -10 OFFCURVE",
"636 51 OFFCURVE",
"636 204 CURVE SMOOTH",
"636 637 LINE SMOOTH",
"636 662 OFFCURVE",
"660 673 OFFCURVE",
"690 673 CURVE SMOOTH",
"713 673 LINE",
"713 700 LINE",
"510 700 LINE",
"510 673 LINE",
"532 673 LINE SMOOTH",
"564 673 OFFCURVE",
"586 662 OFFCURVE",
"586 637 CURVE SMOOTH",
"586 197 LINE SMOOTH",
"586 65 OFFCURVE",
"489 31 OFFCURVE",
"397 31 CURVE SMOOTH",
"290 31 OFFCURVE",
"203 63 OFFCURVE",
"203 197 CURVE SMOOTH",
"203 637 LINE SMOOTH",
"203 662 OFFCURVE",
"226 673 OFFCURVE",
"257 673 CURVE SMOOTH",
"280 673 LINE",
"280 700 LINE",
"28 700 LINE",
"28 673 LINE",
"51 673 LINE SMOOTH",
"82 673 OFFCURVE",
"105 662 OFFCURVE",
"105 637 CURVE SMOOTH",
"105 204 LINE SMOOTH",
"105 46 OFFCURVE",
"208 -10 OFFCURVE",
"375 -10 CURVE SMOOTH"
);
},
{
closed = 1;
nodes = (
"360 868 LINE SMOOTH",
"368 874 OFFCURVE",
"378 879 OFFCURVE",
"384 879 CURVE SMOOTH",
"390 879 OFFCURVE",
"398 874 OFFCURVE",
"407 868 CURVE",
"515 782 LINE",
"534 803 LINE",
"410 932 LINE",
"357 932 LINE",
"233 803 LINE",
"252 782 LINE"
);
}
);
};
components = (
{
name = U;
},
{
name = circumflex;
transform = "{1, 0, 0, 1, 148, 230}";
}
);
layerId = "0B1DFD06-3317-40CA-B510-4969A0718C16";
width = 644;
}
);
leftKerningGroup = U;
note = Ucircumflex;
rightKerningGroup = U;
unicode = 00DB;
},
{
glyphname = Udieresis;
lastChange = "2018-03-04 14:29:51 +0000";
layers = (
{
background = {
paths = (
{
closed = 1;
nodes = (
"539 -10 OFFCURVE",
"636 51 OFFCURVE",
"636 204 CURVE SMOOTH",
"636 637 LINE SMOOTH",
"636 662 OFFCURVE",
"660 673 OFFCURVE",
"690 673 CURVE SMOOTH",
"713 673 LINE",
"713 700 LINE",
"510 700 LINE",
"510 673 LINE",
"532 673 LINE SMOOTH",
"564 673 OFFCURVE",
"586 662 OFFCURVE",
"586 637 CURVE SMOOTH",
"586 197 LINE SMOOTH",
"586 65 OFFCURVE",
"489 31 OFFCURVE",
"397 31 CURVE SMOOTH",
"290 31 OFFCURVE",
"203 63 OFFCURVE",
"203 197 CURVE SMOOTH",
"203 637 LINE SMOOTH",
"203 662 OFFCURVE",
"226 673 OFFCURVE",
"257 673 CURVE SMOOTH",
"280 673 LINE",
"280 700 LINE",
"28 700 LINE",
"28 673 LINE",
"51 673 LINE SMOOTH",
"82 673 OFFCURVE",
"105 662 OFFCURVE",
"105 637 CURVE SMOOTH",
"105 204 LINE SMOOTH",
"105 46 OFFCURVE",
"208 -10 OFFCURVE",
"375 -10 CURVE SMOOTH"
);
},
{
closed = 1;
nodes = (
"304 781 OFFCURVE",
"322 800 OFFCURVE",
"322 827 CURVE SMOOTH",
"322 855 OFFCURVE",
"304 875 OFFCURVE",
"275 875 CURVE SMOOTH",
"247 875 OFFCURVE",
"229 855 OFFCURVE",
"229 827 CURVE SMOOTH",
"229 800 OFFCURVE",
"247 781 OFFCURVE",
"275 781 CURVE SMOOTH"
);
},
{
closed = 1;
nodes = (
"520 781 OFFCURVE",
"538 800 OFFCURVE",
"538 827 CURVE SMOOTH",
"538 855 OFFCURVE",
"520 875 OFFCURVE",
"491 875 CURVE SMOOTH",
"462 875 OFFCURVE",
"444 855 OFFCURVE",
"444 827 CURVE SMOOTH",
"444 800 OFFCURVE",
"462 781 OFFCURVE",
"491 781 CURVE SMOOTH"
);
}
);
};
components = (
{
name = U;
},
{
name = dieresis;
transform = "{1, 0, 0, 1, 148, 230}";
}
);
layerId = "0B1DFD06-3317-40CA-B510-4969A0718C16";
width = 644;
}
);
leftKerningGroup = U;
note = Udieresis;
rightKerningGroup = U;
unicode = 00DC;
},
{
glyphname = Udieresisacute;
lastChange = "2017-12-19 05:21:12 +0000";
layers = (
{
background = {
paths = (
{
closed = 1;
nodes = (
"539 -10 OFFCURVE",
"636 51 OFFCURVE",
"636 204 CURVE SMOOTH",
"636 637 LINE SMOOTH",
"636 662 OFFCURVE",
"660 673 OFFCURVE",
"690 673 CURVE SMOOTH",
"713 673 LINE",
"713 700 LINE",
"510 700 LINE",
"510 673 LINE",
"532 673 LINE SMOOTH",
"564 673 OFFCURVE",
"586 662 OFFCURVE",
"586 637 CURVE SMOOTH",
"586 197 LINE SMOOTH",
"586 65 OFFCURVE",
"489 31 OFFCURVE",
"397 31 CURVE SMOOTH",
"290 31 OFFCURVE",
"203 63 OFFCURVE",
"203 197 CURVE SMOOTH",
"203 637 LINE SMOOTH",
"203 662 OFFCURVE",
"226 673 OFFCURVE",
"257 673 CURVE SMOOTH",
"280 673 LINE",
"280 700 LINE",
"28 700 LINE",
"28 673 LINE",
"51 673 LINE SMOOTH",
"82 673 OFFCURVE",
"105 662 OFFCURVE",
"105 637 CURVE SMOOTH",
"105 204 LINE SMOOTH",
"105 46 OFFCURVE",
"208 -10 OFFCURVE",
"375 -10 CURVE SMOOTH"
);
},
{
closed = 1;
nodes = (
"291 780 OFFCURVE",
"310 799 OFFCURVE",
"310 827 CURVE SMOOTH",
"310 855 OFFCURVE",
"291 875 OFFCURVE",
"262 875 CURVE SMOOTH",
"235 875 OFFCURVE",
"216 855 OFFCURVE",
"216 827 CURVE SMOOTH",
"216 799 OFFCURVE",
"235 780 OFFCURVE",
"262 780 CURVE SMOOTH"
);
},
{
closed = 1;
nodes = (
"507 780 OFFCURVE",
"526 799 OFFCURVE",
"526 827 CURVE SMOOTH",
"526 855 OFFCURVE",
"507 875 OFFCURVE",
"479 875 CURVE SMOOTH",
"451 875 OFFCURVE",
"432 855 OFFCURVE",
"432 827 CURVE SMOOTH",
"432 799 OFFCURVE",
"451 780 OFFCURVE",
"479 780 CURVE SMOOTH"
);
},
{
closed = 1;
nodes = (
"481 969 LINE SMOOTH",
"502 981 OFFCURVE",
"512 993 OFFCURVE",
"512 1009 CURVE SMOOTH",
"512 1024 OFFCURVE",
"503 1037 OFFCURVE",
"481 1037 CURVE SMOOTH",
"460 1037 OFFCURVE",
"442 1020 OFFCURVE",
"435 1013 CURVE SMOOTH",
"344 924 LINE",
"362 899 LINE"
);
}
);
};
components = (
{
name = U;
},
{
name = dieresisacute;
transform = "{1, 0, 0, 1, 149, 230}";
}
);
layerId = "0B1DFD06-3317-40CA-B510-4969A0718C16";
width = 742;
}
);
leftKerningGroup = U;
note = Udieresisacute;
rightKerningGroup = U;
unicode = 01D7;
},
{
glyphname = Udieresiscaron;
lastChange = "2017-12-19 05:21:12 +0000";
layers = (
{
background = {
paths = (
{
closed = 1;
nodes = (
"539 -10 OFFCURVE",
"636 51 OFFCURVE",
"636 204 CURVE SMOOTH",
"636 637 LINE SMOOTH",
"636 662 OFFCURVE",
"660 673 OFFCURVE",
"690 673 CURVE SMOOTH",
"713 673 LINE",
"713 700 LINE",
"510 700 LINE",
"510 673 LINE",
"532 673 LINE SMOOTH",
"564 673 OFFCURVE",
"586 662 OFFCURVE",
"586 637 CURVE SMOOTH",
"586 197 LINE SMOOTH",
"586 65 OFFCURVE",
"489 31 OFFCURVE",
"397 31 CURVE SMOOTH",
"290 31 OFFCURVE",
"203 63 OFFCURVE",
"203 197 CURVE SMOOTH",
"203 637 LINE SMOOTH",
"203 662 OFFCURVE",
"226 673 OFFCURVE",
"257 673 CURVE SMOOTH",
"280 673 LINE",
"280 700 LINE",
"28 700 LINE",
"28 673 LINE",
"51 673 LINE SMOOTH",
"82 673 OFFCURVE",
"105 662 OFFCURVE",
"105 637 CURVE SMOOTH",
"105 204 LINE SMOOTH",
"105 46 OFFCURVE",
"208 -10 OFFCURVE",
"375 -10 CURVE SMOOTH"
);
},
{
closed = 1;
nodes = (
"296 780 OFFCURVE",
"315 799 OFFCURVE",
"315 827 CURVE SMOOTH",
"315 855 OFFCURVE",
"296 875 OFFCURVE",
"267 875 CURVE SMOOTH",
"240 875 OFFCURVE",
"221 855 OFFCURVE",
"221 827 CURVE SMOOTH",
"221 799 OFFCURVE",
"240 780 OFFCURVE",
"267 780 CURVE SMOOTH"
);
},
{
closed = 1;
nodes = (
"512 780 OFFCURVE",
"531 799 OFFCURVE",
"531 827 CURVE SMOOTH",
"531 855 OFFCURVE",
"512 875 OFFCURVE",
"484 875 CURVE SMOOTH",
"456 875 OFFCURVE",
"437 855 OFFCURVE",
"437 827 CURVE SMOOTH",
"437 799 OFFCURVE",
"456 780 OFFCURVE",
"484 780 CURVE SMOOTH"
);
},
{
closed = 1;
nodes = (
"401 911 LINE",
"523 1035 LINE",
"505 1056 LINE",
"404 978 LINE",
"394 971 OFFCURVE",
"385 963 OFFCURVE",
"376 963 CURVE SMOOTH",
"369 963 OFFCURVE",
"357 971 OFFCURVE",
"347 978 CURVE",
"246 1056 LINE",
"228 1035 LINE",
"350 911 LINE"
);
}
);
};
components = (
{
name = U;
},
{
name = dieresiscaron;
transform = "{1, 0, 0, 1, 149, 230}";
}
);
layerId = "0B1DFD06-3317-40CA-B510-4969A0718C16";
width = 742;
}
);
leftKerningGroup = U;
note = Udieresiscaron;
rightKerningGroup = U;
unicode = 01D9;
},
{
glyphname = Udieresisgrave;
lastChange = "2017-12-19 05:21:12 +0000";
layers = (
{
background = {
paths = (
{
closed = 1;
nodes = (
"539 -10 OFFCURVE",
"636 51 OFFCURVE",
"636 204 CURVE SMOOTH",
"636 637 LINE SMOOTH",
"636 662 OFFCURVE",
"660 673 OFFCURVE",
"690 673 CURVE SMOOTH",
"713 673 LINE",
"713 700 LINE",
"510 700 LINE",
"510 673 LINE",
"532 673 LINE SMOOTH",
"564 673 OFFCURVE",
"586 662 OFFCURVE",
"586 637 CURVE SMOOTH",
"586 197 LINE SMOOTH",
"586 65 OFFCURVE",
"489 31 OFFCURVE",
"397 31 CURVE SMOOTH",
"290 31 OFFCURVE",
"203 63 OFFCURVE",
"203 197 CURVE SMOOTH",
"203 637 LINE SMOOTH",
"203 662 OFFCURVE",
"226 673 OFFCURVE",
"257 673 CURVE SMOOTH",
"280 673 LINE",
"280 700 LINE",
"28 700 LINE",
"28 673 LINE",
"51 673 LINE SMOOTH",
"82 673 OFFCURVE",
"105 662 OFFCURVE",
"105 637 CURVE SMOOTH",
"105 204 LINE SMOOTH",
"105 46 OFFCURVE",
"208 -10 OFFCURVE",
"375 -10 CURVE SMOOTH"
);
},
{
closed = 1;
nodes = (
"296 780 OFFCURVE",
"315 799 OFFCURVE",
"315 827 CURVE SMOOTH",
"315 855 OFFCURVE",
"296 875 OFFCURVE",
"267 875 CURVE SMOOTH",
"240 875 OFFCURVE",
"221 855 OFFCURVE",
"221 827 CURVE SMOOTH",
"221 799 OFFCURVE",
"240 780 OFFCURVE",
"267 780 CURVE SMOOTH"
);
},
{
closed = 1;
nodes = (
"403 924 LINE",
"312 1013 LINE SMOOTH",
"305 1020 OFFCURVE",
"288 1036 OFFCURVE",
"267 1036 CURVE SMOOTH",
"245 1036 OFFCURVE",
"235 1024 OFFCURVE",
"235 1009 CURVE SMOOTH",
"235 993 OFFCURVE",
"245 981 OFFCURVE",
"266 969 CURVE SMOOTH",
"385 899 LINE"
);
},
{
closed = 1;
nodes = (
"512 780 OFFCURVE",
"531 799 OFFCURVE",
"531 827 CURVE SMOOTH",
"531 855 OFFCURVE",
"512 875 OFFCURVE",
"484 875 CURVE SMOOTH",
"456 875 OFFCURVE",
"437 855 OFFCURVE",
"437 827 CURVE SMOOTH",
"437 799 OFFCURVE",
"456 780 OFFCURVE",
"484 780 CURVE SMOOTH"
);
}
);
};
components = (
{
name = U;
},
{
name = dieresisgrave;
transform = "{1, 0, 0, 1, 149, 230}";
}
);
layerId = "0B1DFD06-3317-40CA-B510-4969A0718C16";
width = 742;
}
);
leftKerningGroup = U;
note = Udieresisgrave;
rightKerningGroup = U;
unicode = 01DB;
},
{
glyphname = Udieresismacron;
lastChange = "2018-03-04 14:29:51 +0000";
layers = (
{
background = {
paths = (
{
closed = 1;
nodes = (
"539 -10 OFFCURVE",
"636 51 OFFCURVE",
"636 204 CURVE SMOOTH",
"636 637 LINE SMOOTH",
"636 662 OFFCURVE",
"660 673 OFFCURVE",
"690 673 CURVE SMOOTH",
"713 673 LINE",
"713 700 LINE",
"510 700 LINE",
"510 673 LINE",
"532 673 LINE SMOOTH",
"564 673 OFFCURVE",
"586 662 OFFCURVE",
"586 637 CURVE SMOOTH",
"586 197 LINE SMOOTH",
"586 65 OFFCURVE",
"489 31 OFFCURVE",
"397 31 CURVE SMOOTH",
"290 31 OFFCURVE",
"203 63 OFFCURVE",
"203 197 CURVE SMOOTH",
"203 637 LINE SMOOTH",
"203 662 OFFCURVE",
"226 673 OFFCURVE",
"257 673 CURVE SMOOTH",
"280 673 LINE",
"280 700 LINE",
"28 700 LINE",
"28 673 LINE",
"51 673 LINE SMOOTH",
"82 673 OFFCURVE",
"105 662 OFFCURVE",
"105 637 CURVE SMOOTH",
"105 204 LINE SMOOTH",
"105 46 OFFCURVE",
"208 -10 OFFCURVE",
"375 -10 CURVE SMOOTH"
);
},
{
closed = 1;
nodes = (
"291 781 OFFCURVE",
"309 800 OFFCURVE",
"309 827 CURVE SMOOTH",
"309 855 OFFCURVE",
"291 875 OFFCURVE",
"262 875 CURVE SMOOTH",
"234 875 OFFCURVE",
"216 855 OFFCURVE",
"216 827 CURVE SMOOTH",
"216 800 OFFCURVE",
"234 781 OFFCURVE",
"262 781 CURVE SMOOTH"
);
},
{
closed = 1;
nodes = (
"507 781 OFFCURVE",
"525 800 OFFCURVE",
"525 827 CURVE SMOOTH",
"525 855 OFFCURVE",
"507 875 OFFCURVE",
"478 875 CURVE SMOOTH",
"449 875 OFFCURVE",
"431 855 OFFCURVE",
"431 827 CURVE SMOOTH",
"431 800 OFFCURVE",
"449 781 OFFCURVE",
"478 781 CURVE SMOOTH"
);
},
{
closed = 1;
nodes = (
"537 928 LINE",
"537 970 LINE",
"204 970 LINE",
"204 928 LINE"
);
}
);
};
components = (
{
name = U;
},
{
name = dieresis;
transform = "{1, 0, 0, 1, 148, 230}";
},
{
alignment = -1;
name = macron;
transform = "{1, 0, 0, 1, 145, 356}";
}
);
layerId = "0B1DFD06-3317-40CA-B510-4969A0718C16";
width = 644;
}
);
leftKerningGroup = U;
note = Udieresismacron;
rightKerningGroup = U;
unicode = 01D5;
},
{
glyphname = Uhorn;
lastChange = "2017-12-19 06:13:31 +0000";
layers = (
{
layerId = "0B1DFD06-3317-40CA-B510-4969A0718C16";
paths = (
{
closed = 1;
nodes = (
"585 699 LINE",
"530 699 LINE",
"530 247 LINE SMOOTH",
"530 120 OFFCURVE",
"442 41 OFFCURVE",
"338 41 CURVE SMOOTH",
"233 41 OFFCURVE",
"139 120 OFFCURVE",
"139 247 CURVE SMOOTH",
"139 699 LINE",
"83 699 LINE",
"83 245 LINE SMOOTH",
"83 95 OFFCURVE",
"186 -16 OFFCURVE",
"338 -16 CURVE SMOOTH",
"490 -16 OFFCURVE",
"585 95 OFFCURVE",
"585 245 CURVE SMOOTH",
"585 551 LINE",
"679 572 OFFCURVE",
"707 665 OFFCURVE",
"707 725 CURVE",
"654 725 LINE",
"654 657 OFFCURVE",
"623 620 OFFCURVE",
"585 606 CURVE"
);
}
);
width = 674;
}
);
note = Uhorn;
unicode = 01AF;
},
{
color = 0;
glyphname = "alpha-latin";
lastChange = "2017-12-19 05:24:05 +0000";
layers = (
{
layerId = "0B1DFD06-3317-40CA-B510-4969A0718C16";
paths = (
{
closed = 1;
nodes = (
"304 -10 OFFCURVE",
"357 10 OFFCURVE",
"393 69 CURVE",
"393 37 LINE SMOOTH",
"393 0 OFFCURVE",
"429 -10 OFFCURVE",
"461 -10 CURVE SMOOTH",
"491 -10 OFFCURVE",
"523 -1 OFFCURVE",
"545 17 CURVE",
"545 34 LINE",
"531 29 OFFCURVE",
"519 26 OFFCURVE",
"510 26 CURVE SMOOTH",
"494 26 OFFCURVE",
"486 36 OFFCURVE",
"486 58 CURVE SMOOTH",
"486 403 LINE",
"452 444 OFFCURVE",
"374 480 OFFCURVE",
"279 480 CURVE SMOOTH",
"141 480 OFFCURVE",
"26 405 OFFCURVE",
"26 215 CURVE SMOOTH",
"26 67 OFFCURVE",
"96 -10 OFFCURVE",
"234 -10 CURVE SMOOTH"
);
},
{
closed = 1;
nodes = (
"152 28 OFFCURVE",
"119 116 OFFCURVE",
"119 222 CURVE SMOOTH",
"119 370 OFFCURVE",
"183 441 OFFCURVE",
"279 441 CURVE SMOOTH",
"330 441 OFFCURVE",
"368 421 OFFCURVE",
"392 398 CURVE",
"392 169 LINE SMOOTH",
"392 98 OFFCURVE",
"346 28 OFFCURVE",
"255 28 CURVE SMOOTH"
);
}
);
width = 558;
}
);
leftKerningGroup = a;
note = ascript;
rightKerningGroup = a;
unicode = 0251;
},
{
glyphname = ae;
lastChange = "2017-12-19 06:13:46 +0000";
layers = (
{
layerId = "0B1DFD06-3317-40CA-B510-4969A0718C16";
paths = (
{
closed = 1;
nodes = (
"582 535 OFFCURVE",
"524 498 OFFCURVE",
"487 448 CURVE",
"487 524 LINE",
"430 524 LINE",
"430 430 LINE",
"394 486 OFFCURVE",
"338 523 OFFCURVE",
"258 523 CURVE SMOOTH",
"112 523 OFFCURVE",
"43 385 OFFCURVE",
"43 253 CURVE SMOOTH",
"43 118 OFFCURVE",
"112 -19 OFFCURVE",
"258 -19 CURVE SMOOTH",
"338 -19 OFFCURVE",
"396 21 OFFCURVE",
"430 77 CURVE",
"431 -3 LINE",
"492 -3 LINE",
"487 72 LINE",
"487 77 LINE",
"508 49 OFFCURVE",
"536 27 OFFCURVE",
"567 12 CURVE SMOOTH",
"654 -32 OFFCURVE",
"777 6 OFFCURVE",
"824 38 CURVE",
"789 86 LINE",
"767 69 OFFCURVE",
"694 24 OFFCURVE",
"603 61 CURVE SMOOTH",
"538 87 OFFCURVE",
"495 146 OFFCURVE",
"495 238 CURVE",
"843 238 LINE SMOOTH",
"861 238 OFFCURVE",
"871 239 OFFCURVE",
"876 244 CURVE",
"882 248 OFFCURVE",
"886 258 OFFCURVE",
"886 275 CURVE SMOOTH",
"888 332 OFFCURVE",
"863 535 OFFCURVE",
"663 535 CURVE SMOOTH"
);
},
{
closed = 1;
nodes = (
"143 35 OFFCURVE",
"93 155 OFFCURVE",
"93 253 CURVE SMOOTH",
"93 347 OFFCURVE",
"143 468 OFFCURVE",
"258 468 CURVE SMOOTH",
"366 468 OFFCURVE",
"421 371 OFFCURVE",
"430 282 CURVE",
"430 223 LINE",
"421 133 OFFCURVE",
"368 35 OFFCURVE",
"258 35 CURVE SMOOTH"
);
},
{
closed = 1;
nodes = (
"492 294 LINE",
"493 362 OFFCURVE",
"536 484 OFFCURVE",
"660 484 CURVE SMOOTH",
"783 484 OFFCURVE",
"832 371 OFFCURVE",
"829 294 CURVE"
);
}
);
width = 931;
}
);
note = ae;
unicode = 00E6;
},
{
glyphname = eth;
lastChange = "2017-12-19 06:13:55 +0000";
layers = (
{
layerId = "0B1DFD06-3317-40CA-B510-4969A0718C16";
paths = (
{
closed = 1;
nodes = (
"564 347 OFFCURVE",
"546 412 OFFCURVE",
"518 476 CURVE",
"480 546 OFFCURVE",
"430 609 OFFCURVE",
"363 660 CURVE",
"482 713 LINE",
"461 759 LINE",
"417 737 OFFCURVE",
"365 713 OFFCURVE",
"321 691 CURVE",
"273 725 OFFCURVE",
"220 750 OFFCURVE",
"165 774 CURVE",
"142 725 LINE",
"186 709 OFFCURVE",
"233 687 OFFCURVE",
"267 666 CURVE",
"127 600 LINE",
"145 557 LINE",
"201 582 OFFCURVE",
"257 610 OFFCURVE",
"313 635 CURVE",
"381 582 OFFCURVE",
"433 527 OFFCURVE",
"471 464 CURVE",
"414 513 OFFCURVE",
"360 524 OFFCURVE",
"304 524 CURVE SMOOTH",
"176 524 OFFCURVE",
"46 418 OFFCURVE",
"46 248 CURVE SMOOTH",
"46 100 OFFCURVE",
"149 -13 OFFCURVE",
"300 -13 CURVE SMOOTH",
"427 -13 OFFCURVE",
"564 71 OFFCURVE",
"564 269 CURVE SMOOTH"
);
},
{
closed = 1;
nodes = (
"505 114 OFFCURVE",
"414 35 OFFCURVE",
"298 35 CURVE SMOOTH",
"201 35 OFFCURVE",
"100 112 OFFCURVE",
"100 250 CURVE SMOOTH",
"100 354 OFFCURVE",
"164 476 OFFCURVE",
"304 476 CURVE SMOOTH",
"374 476 OFFCURVE",
"421 445 OFFCURVE",
"455 417 CURVE",
"486 383 OFFCURVE",
"505 335 OFFCURVE",
"505 261 CURVE SMOOTH"
);
}
);
width = 614;
}
);
note = eth;
unicode = 00F0;
},
{
color = 0;
glyphname = dcaron;
lastChange = "2017-12-19 05:24:30 +0000";
layers = (
{
layerId = "0B1DFD06-3317-40CA-B510-4969A0718C16";
paths = (
{
closed = 1;
nodes = (
"321 -10 OFFCURVE",
"381 14 OFFCURVE",
"417 74 CURVE",
"422 -4 LINE",
"564 11 LINE",
"564 34 LINE",
"541 34 LINE SMOOTH",
"513 34 OFFCURVE",
"499 44 OFFCURVE",
"499 69 CURVE SMOOTH",
"499 717 LINE",
"474 717 LINE",
"349 672 LINE",
"355 649 LINE",
"365 653 OFFCURVE",
"377 657 OFFCURVE",
"385 657 CURVE SMOOTH",
"394 657 OFFCURVE",
"405 654 OFFCURVE",
"405 636 CURVE SMOOTH",
"405 410 LINE",
"363 467 OFFCURVE",
"298 480 OFFCURVE",
"242 480 CURVE SMOOTH",
"123 480 OFFCURVE",
"31 401 OFFCURVE",
"31 245 CURVE SMOOTH",
"31 60 OFFCURVE",
"118 -10 OFFCURVE",
"243 -10 CURVE SMOOTH"
);
},
{
closed = 1;
nodes = (
"160 28 OFFCURVE",
"124 120 OFFCURVE",
"124 242 CURVE SMOOTH",
"124 372 OFFCURVE",
"176 440 OFFCURVE",
"275 440 CURVE SMOOTH",
"337 440 OFFCURVE",
"406 392 OFFCURVE",
"406 320 CURVE SMOOTH",
"406 168 LINE SMOOTH",
"406 97 OFFCURVE",
"357 28 OFFCURVE",
"269 28 CURVE SMOOTH"
);
},
{
closed = 1;
nodes = (
"630 523 OFFCURVE",
"674 583 OFFCURVE",
"674 646 CURVE SMOOTH",
"674 694 OFFCURVE",
"650 714 OFFCURVE",
"621 714 CURVE SMOOTH",
"592 714 OFFCURVE",
"575 694 OFFCURVE",
"575 670 CURVE SMOOTH",
"575 636 OFFCURVE",
"610 629 OFFCURVE",
"610 594 CURVE SMOOTH",
"610 558 OFFCURVE",
"584 525 OFFCURVE",
"557 499 CURVE",
"574 482 LINE"
);
}
);
width = 686;
}
);
leftKerningGroup = d;
note = dcaron;
unicode = 010F;
},
{
glyphname = dcroat;
lastChange = "2017-12-19 06:13:55 +0000";
layers = (
{
layerId = "0B1DFD06-3317-40CA-B510-4969A0718C16";
paths = (
{
closed = 1;
nodes = (
"102 343 OFFCURVE",
"148 461 OFFCURVE",
"263 461 CURVE SMOOTH",
"366 461 OFFCURVE",
"418 366 OFFCURVE",
"428 281 CURVE",
"428 223 LINE",
"419 134 OFFCURVE",
"366 40 OFFCURVE",
"263 40 CURVE SMOOTH",
"148 40 OFFCURVE",
"102 157 OFFCURVE",
"102 251 CURVE SMOOTH"
);
},
{
closed = 1;
nodes = (
"428 422 LINE",
"394 477 OFFCURVE",
"340 514 OFFCURVE",
"263 514 CURVE SMOOTH",
"120 514 OFFCURVE",
"52 381 OFFCURVE",
"52 251 CURVE SMOOTH",
"52 120 OFFCURVE",
"120 -13 OFFCURVE",
"263 -13 CURVE SMOOTH",
"340 -13 OFFCURVE",
"394 27 OFFCURVE",
"428 80 CURVE",
"430 3 LINE",
"489 3 LINE",
"483 77 LINE",
"483 619 LINE",
"560 619 LINE",
"560 663 LINE",
"483 663 LINE",
"483 749 LINE",
"428 749 LINE",
"428 663 LINE",
"310 663 LINE",
"310 619 LINE",
"428 619 LINE"
);
}
);
width = 560;
}
);
note = dslash;
unicode = 0111;
},
{
color = 0;
glyphname = schwa;
lastChange = "2017-12-19 05:24:34 +0000";
layers = (
{
layerId = "0B1DFD06-3317-40CA-B510-4969A0718C16";
paths = (
{
closed = 1;
nodes = (
"396 -10 OFFCURVE",
"487 83 OFFCURVE",
"487 236 CURVE SMOOTH",
"487 393 OFFCURVE",
"392 480 OFFCURVE",
"246 480 CURVE SMOOTH",
"112 480 OFFCURVE",
"47 407 OFFCURVE",
"36 303 CURVE",
"65 303 LINE",
"83 407 OFFCURVE",
"154 444 OFFCURVE",
"225 444 CURVE SMOOTH",
"331 444 OFFCURVE",
"392 360 OFFCURVE",
"392 234 CURVE SMOOTH",
"392 121 OFFCURVE",
"343 28 OFFCURVE",
"242 28 CURVE SMOOTH",
"147 28 OFFCURVE",
"117 112 OFFCURVE",
"115 173 CURVE",
"403 173 LINE",
"403 212 LINE",
"32 212 LINE",
"32 189 LINE SMOOTH",
"32 77 OFFCURVE",
"100 -10 OFFCURVE",
"246 -10 CURVE SMOOTH"
);
}
);
width = 521;
}
);
note = schwa;
unicode = 0259;
},
{
color = 0;
glyphname = hbar;
lastChange = "2017-12-19 05:24:39 +0000";
layers = (
{
layerId = "0B1DFD06-3317-40CA-B510-4969A0718C16";
paths = (
{
closed = 1;
nodes = (
"600 0 LINE",
"600 25 LINE",
"582 25 LINE SMOOTH",
"552 25 OFFCURVE",
"528 34 OFFCURVE",
"528 57 CURVE SMOOTH",
"528 344 LINE SMOOTH",
"528 424 OFFCURVE",
"471 480 OFFCURVE",
"357 480 CURVE SMOOTH",
"265 480 OFFCURVE",
"194 424 OFFCURVE",
"178 373 CURVE",
"178 285 LINE",
"188 285 LINE",
"188 389 OFFCURVE",
"264 439 OFFCURVE",
"330 439 CURVE SMOOTH",
"396 439 OFFCURVE",
"434 404 OFFCURVE",
"434 332 CURVE SMOOTH",
"434 57 LINE SMOOTH",
"434 34 OFFCURVE",
"411 25 OFFCURVE",
"383 25 CURVE SMOOTH",
"367 25 LINE",
"367 0 LINE"
);
},
{
closed = 1;
nodes = (
"255 0 LINE",
"255 25 LINE",
"240 25 LINE SMOOTH",
"212 25 OFFCURVE",
"188 34 OFFCURVE",
"188 57 CURVE SMOOTH",
"188 717 LINE",
"163 717 LINE",
"37 672 LINE",
"44 649 LINE",
"54 653 OFFCURVE",
"66 657 OFFCURVE",
"73 657 CURVE SMOOTH",
"83 657 OFFCURVE",
"94 654 OFFCURVE",
"94 636 CURVE SMOOTH",
"94 57 LINE SMOOTH",
"94 34 OFFCURVE",
"71 25 OFFCURVE",
"41 25 CURVE SMOOTH",
"22 25 LINE",
"22 0 LINE"
);
},
{
closed = 1;
nodes = (
"339 559 LINE",
"339 594 LINE",
"40 594 LINE",
"40 559 LINE"
);
}
);
width = 622;
}
);
note = hbar;
rightKerningGroup = h;
unicode = 0127;
},
{
glyphname = idotless;
lastChange = "2017-12-19 05:49:06 +0000";
layers = (
{
layerId = "0B1DFD06-3317-40CA-B510-4969A0718C16";
paths = (
{
closed = 1;
nodes = (
"155 576 LINE",
"155 604 OFFCURVE",
"110 604 OFFCURVE",
"110 576 CURVE SMOOTH",
"115 40 LINE",
"119 14 OFFCURVE",
"157 8 OFFCURVE",
"162 40 CURVE"
);
}
);
width = 282;
}
);
note = dotlessi;
unicode = 0131;
},
{
color = 0;
glyphname = ij;
lastChange = "2017-12-19 05:24:49 +0000";
layers = (
{
layerId = "0B1DFD06-3317-40CA-B510-4969A0718C16";
paths = (
{
closed = 1;
nodes = (
"472 -107 OFFCURVE",
"516 -25 OFFCURVE",
"516 102 CURVE SMOOTH",
"516 473 LINE",
"491 473 LINE",
"365 428 LINE",
"372 406 LINE",
"383 410 OFFCURVE",
"394 414 OFFCURVE",
"402 414 CURVE SMOOTH",
"411 414 OFFCURVE",
"423 410 OFFCURVE",
"423 393 CURVE SMOOTH",
"423 97 LINE SMOOTH",
"423 -4 OFFCURVE",
"418 -72 OFFCURVE",
"326 -110 CURVE",
"331 -132 LINE"
);
},
{
closed = 1;
nodes = (
"265 0 LINE",
"265 25 LINE",
"246 25 LINE SMOOTH",
"217 25 OFFCURVE",
"193 34 OFFCURVE",
"193 57 CURVE SMOOTH",
"193 475 LINE",
"168 475 LINE",
"42 431 LINE",
"49 408 LINE",
"59 411 OFFCURVE",
"71 416 OFFCURVE",
"78 416 CURVE SMOOTH",
"88 416 OFFCURVE",
"99 412 OFFCURVE",
"99 394 CURVE SMOOTH",
"99 57 LINE SMOOTH",
"99 34 OFFCURVE",
"76 25 OFFCURVE",
"46 25 CURVE SMOOTH",
"27 25 LINE",
"27 0 LINE"
);
},
{
closed = 1;
nodes = (
"171 561 OFFCURVE",
"194 584 OFFCURVE",
"194 616 CURVE SMOOTH",
"194 649 OFFCURVE",
"171 671 OFFCURVE",
"138 671 CURVE SMOOTH",
"103 671 OFFCURVE",
"81 649 OFFCURVE",
"81 616 CURVE SMOOTH",
"81 584 OFFCURVE",
"103 561 OFFCURVE",
"138 561 CURVE SMOOTH"
);
},
{
closed = 1;
nodes = (
"499 561 OFFCURVE",
"522 584 OFFCURVE",
"522 616 CURVE SMOOTH",
"522 649 OFFCURVE",
"499 671 OFFCURVE",
"465 671 CURVE SMOOTH",
"431 671 OFFCURVE",
"409 649 OFFCURVE",
"409 616 CURVE SMOOTH",
"409 584 OFFCURVE",
"431 561 OFFCURVE",
"465 561 CURVE SMOOTH"
);
}
);
width = 598;
}
);
note = ij;
unicode = 0133;
},
{
color = 0;
glyphname = jdotless;
lastChange = "2017-12-19 05:24:51 +0000";
layers = (
{
anchors = (
{
name = bottom;
position = "{151, 0}";
},
{
name = top;
position = "{151, 470}";
}
);
layerId = "0B1DFD06-3317-40CA-B510-4969A0718C16";
paths = (
{
closed = 1;
nodes = (
"176 -107 OFFCURVE",
"220 -25 OFFCURVE",
"220 102 CURVE SMOOTH",
"220 473 LINE",
"195 473 LINE",
"69 428 LINE",
"76 406 LINE",
"86 410 OFFCURVE",
"98 414 OFFCURVE",
"106 414 CURVE SMOOTH",
"115 414 OFFCURVE",
"126 410 OFFCURVE",
"126 393 CURVE SMOOTH",
"126 97 LINE SMOOTH",
"126 -3 OFFCURVE",
"123 -71 OFFCURVE",
"31 -110 CURVE",
"35 -132 LINE"
);
}
);
width = 302;
}
);
leftKerningGroup = j;
note = dotlessj;
unicode = 0237;
},
{
color = 0;
glyphname = kgreenlandic;
lastChange = "2017-12-19 05:24:51 +0000";
layers = (
{
layerId = "0B1DFD06-3317-40CA-B510-4969A0718C16";
paths = (
{
closed = 1;
nodes = (
"257 0 LINE",
"257 25 LINE",
"240 25 LINE SMOOTH",
"211 25 OFFCURVE",
"187 35 OFFCURVE",
"187 57 CURVE SMOOTH",
"187 487 LINE",
"162 487 LINE",
"36 442 LINE",
"43 419 LINE",
"54 423 OFFCURVE",
"65 427 OFFCURVE",
"73 427 CURVE SMOOTH",
"82 427 OFFCURVE",
"94 424 OFFCURVE",
"94 406 CURVE SMOOTH",
"94 57 LINE SMOOTH",
"94 34 OFFCURVE",
"70 25 OFFCURVE",
"40 25 CURVE SMOOTH",
"21 25 LINE",
"21 0 LINE"
);
},
{
closed = 1;
nodes = (
"577 0 LINE",
"577 25 LINE",
"550 25 LINE SMOOTH",
"530 25 OFFCURVE",
"496 35 OFFCURVE",
"475 55 CURVE SMOOTH",
"247 266 LINE",
"185 217 LINE",
"421 0 LINE"
);
},
{
closed = 1;
nodes = (
"446 417 LINE SMOOTH",
"463 432 OFFCURVE",
"488 444 OFFCURVE",
"506 444 CURVE SMOOTH",
"528 444 LINE",
"528 470 LINE",
"332 470 LINE",
"332 444 LINE",
"354 444 LINE SMOOTH",
"380 444 OFFCURVE",
"401 428 OFFCURVE",
"380 411 CURVE SMOOTH",
"155 225 LINE",
"155 173 LINE"
);
}
);
width = 591;
}
);
note = kgreenlandic;
rightKerningGroup = k;
unicode = 0138;
},
{
glyphname = lslash;
lastChange = "2017-12-19 06:14:09 +0000";
layers = (
{
layerId = "0B1DFD06-3317-40CA-B510-4969A0718C16";
paths = (
{
closed = 1;
nodes = (
"219 449 LINE",
"219 505 LINE",
"196 486 OFFCURVE",
"167 464 OFFCURVE",
"143 445 CURVE",
"143 761 LINE",
"117 761 LINE",
"90 733 LINE",
"90 399 LINE",
"15 338 LINE",
"15 282 LINE",
"38 301 OFFCURVE",
"66 326 OFFCURVE",
"90 346 CURVE",
"90 0 LINE",
"143 0 LINE",
"143 385 LINE"
);
}
);
width = 239;
}
);
note = lslash;
unicode = 0142;
},
{
color = 0;
glyphname = eng;
lastChange = "2017-12-19 05:24:55 +0000";
layers = (
{
layerId = "0B1DFD06-3317-40CA-B510-4969A0718C16";
paths = (
{
closed = 1;
nodes = (
"478 -215 OFFCURVE",
"529 -140 OFFCURVE",
"529 -17 CURVE SMOOTH",
"529 344 LINE SMOOTH",
"529 424 OFFCURVE",
"472 480 OFFCURVE",
"358 480 CURVE SMOOTH",
"266 480 OFFCURVE",
"195 424 OFFCURVE",
"178 373 CURVE",
"178 285 LINE",
"188 285 LINE",
"188 389 OFFCURVE",
"264 439 OFFCURVE",
"331 439 CURVE SMOOTH",
"395 439 OFFCURVE",
"435 404 OFFCURVE",
"435 332 CURVE SMOOTH",
"435 -58 LINE SMOOTH",
"435 -128 OFFCURVE",
"413 -186 OFFCURVE",
"339 -215 CURVE",
"344 -238 LINE"
);
},
{
closed = 1;
nodes = (
"255 0 LINE",
"255 25 LINE",
"240 25 LINE SMOOTH",
"205 25 OFFCURVE",
"188 37 OFFCURVE",
"188 66 CURVE SMOOTH",
"188 473 LINE",
"166 473 LINE",
"38 428 LINE",
"44 406 LINE",
"54 410 OFFCURVE",
"66 414 OFFCURVE",
"74 414 CURVE SMOOTH",
"83 414 OFFCURVE",
"94 410 OFFCURVE",
"94 393 CURVE SMOOTH",
"94 66 LINE SMOOTH",
"94 37 OFFCURVE",
"77 25 OFFCURVE",
"41 25 CURVE SMOOTH",
"22 25 LINE",
"22 0 LINE"
);
}
);
width = 609;
}
);
leftKerningGroup = m;
note = eng;
rightKerningGroup = m;
unicode = 014B;
},
{
glyphname = ohorn;
lastChange = "2017-12-19 06:14:26 +0000";
layers = (
{
layerId = "0B1DFD06-3317-40CA-B510-4969A0718C16";
paths = (
{
closed = 1;
nodes = (
"142 35 OFFCURVE",
"90 152 OFFCURVE",
"90 251 CURVE SMOOTH",
"90 350 OFFCURVE",
"142 467 OFFCURVE",
"250 467 CURVE SMOOTH",
"357 467 OFFCURVE",
"409 347 OFFCURVE",
"409 251 CURVE SMOOTH",
"409 152 OFFCURVE",
"357 35 OFFCURVE",
"250 35 CURVE SMOOTH"
);
},
{
closed = 1;
nodes = (
"464 527 LINE",
"453 479 OFFCURVE",
"442 448 OFFCURVE",
"412 425 CURVE",
"375 486 OFFCURVE",
"306 514 OFFCURVE",
"250 514 CURVE SMOOTH",
"108 514 OFFCURVE",
"38 383 OFFCURVE",
"38 251 CURVE SMOOTH",
"38 121 OFFCURVE",
"108 -12 OFFCURVE",
"250 -12 CURVE SMOOTH",
"391 -12 OFFCURVE",
"462 121 OFFCURVE",
"462 251 CURVE SMOOTH",
"462 309 OFFCURVE",
"448 359 OFFCURVE",
"436 383 CURVE",
"499 424 OFFCURVE",
"514 483 OFFCURVE",
"526 527 CURVE"
);
}
);
width = 508;
}
);
note = ohorn;
unicode = 01A1;
},
{
glyphname = oslash;
lastChange = "2017-12-19 06:14:50 +0000";
layers = (
{
layerId = "0B1DFD06-3317-40CA-B510-4969A0718C16";
paths = (
{
closed = 1;
nodes = (
"445 538 LINE",
"449 548 OFFCURVE",
"440 551 OFFCURVE",
"430 557 CURVE",
"419 561 OFFCURVE",
"414 569 OFFCURVE",
"408 558 CURVE SMOOTH",
"366 486 LINE",
"338 505 OFFCURVE",
"303 517 OFFCURVE",
"261 517 CURVE SMOOTH",
"121 517 OFFCURVE",
"58 387 OFFCURVE",
"58 260 CURVE SMOOTH",
"58 182 OFFCURVE",
"80 105 OFFCURVE",
"128 55 CURVE",
"84 -28 LINE SMOOTH",
"78 -38 OFFCURVE",
"86 -41 OFFCURVE",
"96 -47 CURVE SMOOTH",
"106 -53 OFFCURVE",
"115 -58 OFFCURVE",
"120 -49 CURVE",
"162 28 LINE",
"189 12 OFFCURVE",
"223 1 OFFCURVE",
"261 1 CURVE SMOOTH",
"400 1 OFFCURVE",
"465 131 OFFCURVE",
"465 260 CURVE SMOOTH",
"465 332 OFFCURVE",
"445 408 OFFCURVE",
"399 456 CURVE"
);
},
{
closed = 1;
nodes = (
"114 350 OFFCURVE",
"155 464 OFFCURVE",
"261 464 CURVE SMOOTH",
"292 464 OFFCURVE",
"319 453 OFFCURVE",
"340 436 CURVE",
"158 108 LINE",
"127 149 OFFCURVE",
"114 208 OFFCURVE",
"114 260 CURVE SMOOTH"
);
},
{
closed = 1;
nodes = (
"233 55 OFFCURVE",
"208 64 OFFCURVE",
"189 78 CURVE",
"369 403 LINE",
"397 362 OFFCURVE",
"409 307 OFFCURVE",
"409 260 CURVE SMOOTH",
"409 170 OFFCURVE",
"366 55 OFFCURVE",
"261 55 CURVE SMOOTH"
);
}
);
width = 518;
}
);
note = oslash;
unicode = 00F8;
},
{
glyphname = oe;
lastChange = "2017-12-19 06:14:59 +0000";
layers = (
{
layerId = "0B1DFD06-3317-40CA-B510-4969A0718C16";
paths = (
{
closed = 1;
nodes = (
"527 514 OFFCURVE",
"465 459 OFFCURVE",
"431 390 CURVE",
"400 462 OFFCURVE",
"343 515 OFFCURVE",
"254 515 CURVE SMOOTH",
"114 515 OFFCURVE",
"49 385 OFFCURVE",
"49 257 CURVE SMOOTH",
"49 128 OFFCURVE",
"114 -1 OFFCURVE",
"254 -1 CURVE SMOOTH",
"341 -1 OFFCURVE",
"399 50 OFFCURVE",
"430 120 CURVE",
"455 71 OFFCURVE",
"492 37 OFFCURVE",
"533 16 CURVE SMOOTH",
"617 -25 OFFCURVE",
"733 12 OFFCURVE",
"777 43 CURVE",
"744 86 LINE",
"724 71 OFFCURVE",
"654 27 OFFCURVE",
"569 62 CURVE SMOOTH",
"507 87 OFFCURVE",
"465 143 OFFCURVE",
"465 230 CURVE",
"796 230 LINE",
"827 232 OFFCURVE",
"837 235 OFFCURVE",
"837 266 CURVE SMOOTH",
"839 321 OFFCURVE",
"814 514 OFFCURVE",
"625 514 CURVE SMOOTH"
);
},
{
closed = 1;
nodes = (
"148 53 OFFCURVE",
"106 168 OFFCURVE",
"106 257 CURVE SMOOTH",
"106 349 OFFCURVE",
"148 462 OFFCURVE",
"254 462 CURVE SMOOTH",
"359 462 OFFCURVE",
"402 346 OFFCURVE",
"402 254 CURVE SMOOTH",
"402 165 OFFCURVE",
"354 53 OFFCURVE",
"254 53 CURVE SMOOTH"
);
},
{
closed = 1;
nodes = (
"461 285 LINE",
"462 349 OFFCURVE",
"505 467 OFFCURVE",
"623 467 CURVE SMOOTH",
"740 467 OFFCURVE",
"786 357 OFFCURVE",
"781 285 CURVE"
);
}
);
width = 886;
}
);
note = oe;
unicode = 0153;
},
{
glyphname = thorn;
lastChange = "2017-12-19 06:14:59 +0000";
layers = (
{
layerId = "0B1DFD06-3317-40CA-B510-4969A0718C16";
paths = (
{
closed = 1;
nodes = (
"81 -210 LINE",
"131 -210 LINE",
"131 100 LINE",
"176 31 OFFCURVE",
"251 -13 OFFCURVE",
"340 -13 CURVE SMOOTH",
"483 -13 OFFCURVE",
"597 106 OFFCURVE",
"597 256 CURVE SMOOTH",
"597 405 OFFCURVE",
"483 524 OFFCURVE",
"340 524 CURVE SMOOTH",
"251 524 OFFCURVE",
"176 479 OFFCURVE",
"131 409 CURVE",
"131 710 LINE",
"81 710 LINE"
);
},
{
closed = 1;
nodes = (
"133 378 OFFCURVE",
"225 477 OFFCURVE",
"340 477 CURVE SMOOTH",
"455 477 OFFCURVE",
"546 378 OFFCURVE",
"546 256 CURVE SMOOTH",
"546 133 OFFCURVE",
"455 34 OFFCURVE",
"340 34 CURVE SMOOTH",
"225 34 OFFCURVE",
"133 133 OFFCURVE",
"133 256 CURVE SMOOTH"
);
}
);
width = 669;
}
);
note = thorn;
unicode = 00FE;
},
{
glyphname = germandbls;
lastChange = "2017-12-19 06:15:35 +0000";
layers = (
{
layerId = "0B1DFD06-3317-40CA-B510-4969A0718C16";
paths = (
{
closed = 1;
nodes = (
"477 434 OFFCURVE",
"439 464 OFFCURVE",
"387 487 CURVE",
"419 493 OFFCURVE",
"464 549 OFFCURVE",
"464 613 CURVE SMOOTH",
"464 659 OFFCURVE",
"449 702 OFFCURVE",
"403 737 CURVE SMOOTH",
"366 767 OFFCURVE",
"323 774 OFFCURVE",
"279 774 CURVE SMOOTH",
"158 777 OFFCURVE",
"90 690 OFFCURVE",
"90 575 CURVE SMOOTH",
"90 -235 LINE",
"137 -235 LINE",
"137 566 LINE SMOOTH",
"137 672 OFFCURVE",
"177 703 OFFCURVE",
"199 716 CURVE SMOOTH",
"248 746 OFFCURVE",
"319 744 OFFCURVE",
"366 713 CURVE",
"396 696 OFFCURVE",
"417 662 OFFCURVE",
"415 606 CURVE SMOOTH",
"412 521 OFFCURVE",
"340 515 OFFCURVE",
"285 515 CURVE SMOOTH",
"284 515 OFFCURVE",
"284 515 OFFCURVE",
"284 515 CURVE SMOOTH",
"282 515 OFFCURVE",
"282 515 OFFCURVE",
"282 515 CURVE SMOOTH",
"177 515 LINE",
"177 467 LINE",
"279 467 LINE SMOOTH",
"397 467 OFFCURVE",
"496 372 OFFCURVE",
"499 253 CURVE SMOOTH",
"502 133 OFFCURVE",
"418 35 OFFCURVE",
"295 35 CURVE SMOOTH",
"189 35 LINE",
"189 -13 LINE",
"309 -12 LINE SMOOTH",
"456 -12 OFFCURVE",
"545 109 OFFCURVE",
"545 248 CURVE SMOOTH",
"545 304 OFFCURVE",
"533 353 OFFCURVE",
"505 393 CURVE SMOOTH"
);
}
);
width = 611;
}
);
note = uni00DF;
unicode = 00DF;
},
{
glyphname = tbar;
lastChange = "2017-12-19 05:21:12 +0000";
layers = (
{
components = (
{
name = t;
}
);
layerId = "0B1DFD06-3317-40CA-B510-4969A0718C16";
paths = (
{
closed = 1;
nodes = (
"321 260 LINE",
"321 297 LINE",
"33 297 LINE",
"33 260 LINE"
);
}
);
width = 397;
}
);
leftKerningGroup = t;
note = tbar;
rightKerningGroup = t;
unicode = 0167;
},
{
glyphname = uhorn;
lastChange = "2017-12-19 06:15:43 +0000";
layers = (
{
layerId = "0B1DFD06-3317-40CA-B510-4969A0718C16";
paths = (
{
closed = 1;
nodes = (
"455 109 LINE",
"455 365 LINE",
"541 383 OFFCURVE",
"578 482 OFFCURVE",
"578 539 CURVE",
"524 539 LINE",
"524 471 OFFCURVE",
"493 434 OFFCURVE",
"455 419 CURVE",
"455 513 LINE",
"400 513 LINE",
"400 208 LINE SMOOTH",
"400 121 OFFCURVE",
"344 35 OFFCURVE",
"257 35 CURVE SMOOTH",
"183 35 OFFCURVE",
"123 89 OFFCURVE",
"123 174 CURVE SMOOTH",
"123 514 LINE",
"69 514 LINE",
"69 176 LINE SMOOTH",
"69 118 OFFCURVE",
"102 -13 OFFCURVE",
"247 -13 CURVE SMOOTH",
"306 -13 OFFCURVE",
"372 13 OFFCURVE",
"402 74 CURVE",
"402 16 OFFCURVE",
"417 -6 OFFCURVE",
"422 -18 CURVE",
"471 1 LINE",
"462 22 OFFCURVE",
"455 46 OFFCURVE",
"455 111 CURVE"
);
}
);
width = 530;
}
);
note = uhorn;
unicode = 01B0;
},
{
glyphname = fi;
lastChange = "2017-12-19 06:15:54 +0000";
layers = (
{
layerId = "0B1DFD06-3317-40CA-B510-4969A0718C16";
paths = (
{
closed = 1;
nodes = (
"149 514 LINE",
"149 583 LINE SMOOTH",
"149 685 OFFCURVE",
"193 696 OFFCURVE",
"278 678 CURVE",
"285 725 LINE",
"183 755 OFFCURVE",
"96 725 OFFCURVE",
"96 603 CURVE SMOOTH",
"96 514 LINE",
"19 514 LINE",
"7 470 LINE",
"96 470 LINE",
"96 4 LINE SMOOTH",
"96 -58 OFFCURVE",
"78 -117 OFFCURVE",
"49 -154 CURVE",
"97 -168 LINE",
"97 -168 OFFCURVE",
"149 -99 OFFCURVE",
"149 6 CURVE SMOOTH",
"149 470 LINE",
"287 470 LINE",
"287 0 LINE",
"340 0 LINE",
"340 514 LINE"
);
}
);
width = 414;
}
);
note = fi;
unicode = FB01;
},
{
glyphname = fl;
lastChange = "2017-12-19 06:15:54 +0000";
layers = (
{
layerId = "0B1DFD06-3317-40CA-B510-4969A0718C16";
paths = (
{
closed = 1;
nodes = (
"368 712 LINE",
"227 778 OFFCURVE",
"96 725 OFFCURVE",
"96 603 CURVE SMOOTH",
"96 514 LINE",
"19 514 LINE",
"7 470 LINE",
"96 470 LINE",
"96 4 LINE SMOOTH",
"96 -58 OFFCURVE",
"78 -117 OFFCURVE",
"49 -154 CURVE",
"97 -168 LINE",
"97 -168 OFFCURVE",
"149 -99 OFFCURVE",
"149 6 CURVE SMOOTH",
"149 470 LINE",
"253 470 LINE",
"264 514 LINE",
"149 514 LINE",
"149 583 LINE SMOOTH",
"149 679 OFFCURVE",
"223 703 OFFCURVE",
"315 679 CURVE",
"315 0 LINE",
"368 0 LINE"
);
}
);
width = 443;
}
);
note = fl;
unicode = FB02;
},
{
glyphname = ordfeminine;
lastChange = "2017-12-19 06:15:54 +0000";
layers = (
{
layerId = "0B1DFD06-3317-40CA-B510-4969A0718C16";
paths = (
{
closed = 1;
nodes = (
"219 276 OFFCURVE",
"253 300 OFFCURVE",
"275 335 CURVE",
"275 287 LINE",
"318 287 LINE",
"315 334 LINE",
"315 613 LINE",
"273 613 LINE",
"273 554 LINE",
"253 589 OFFCURVE",
"219 613 OFFCURVE",
"170 613 CURVE SMOOTH",
"77 613 OFFCURVE",
"35 529 OFFCURVE",
"35 445 CURVE SMOOTH",
"35 360 OFFCURVE",
"77 276 OFFCURVE",
"170 276 CURVE SMOOTH"
);
},
{
closed = 1;
nodes = (
"233 566 OFFCURVE",
"267 513 OFFCURVE",
"267 450 CURVE SMOOTH",
"266 375 OFFCURVE",
"233 323 OFFCURVE",
"173 323 CURVE SMOOTH",
"106 323 OFFCURVE",
"80 391 OFFCURVE",
"80 445 CURVE SMOOTH",
"80 498 OFFCURVE",
"106 566 OFFCURVE",
"173 566 CURVE SMOOTH"
);
}
);
width = 372;
}
);
note = ordfeminine;
unicode = 00AA;
},
{
glyphname = ordmasculine;
lastChange = "2017-12-19 06:15:54 +0000";
layers = (
{
layerId = "0B1DFD06-3317-40CA-B510-4969A0718C16";
paths = (
{
closed = 1;
nodes = (
"365 549 OFFCURVE",
"297 629 OFFCURVE",
"185 629 CURVE SMOOTH",
"96 629 OFFCURVE",
"7 561 OFFCURVE",
"7 449 CURVE SMOOTH",
"7 350 OFFCURVE",
"83 276 OFFCURVE",
"185 276 CURVE SMOOTH",
"264 276 OFFCURVE",
"365 329 OFFCURVE",
"365 455 CURVE SMOOTH"
);
},
{
closed = 1;
nodes = (
"316 363 OFFCURVE",
"251 321 OFFCURVE",
"186 321 CURVE SMOOTH",
"126 321 OFFCURVE",
"58 363 OFFCURVE",
"58 450 CURVE SMOOTH",
"58 517 OFFCURVE",
"100 585 OFFCURVE",
"186 585 CURVE SMOOTH",
"276 585 OFFCURVE",
"316 511 OFFCURVE",
"316 452 CURVE SMOOTH"
);
}
);
width = 372;
}
);
note = ordmasculine;
unicode = 00BA;
},
{
color = 0;
glyphname = nmod;
lastChange = "2017-12-19 05:26:45 +0000";
layers = (
{
layerId = "0B1DFD06-3317-40CA-B510-4969A0718C16";
paths = (
{
closed = 1;
nodes = (
"410 378 LINE",
"410 397 LINE",
"392 397 LINE SMOOTH",
"368 397 OFFCURVE",
"350 405 OFFCURVE",
"350 424 CURVE SMOOTH",
"350 599 LINE SMOOTH",
"350 660 OFFCURVE",
"323 708 OFFCURVE",
"240 708 CURVE SMOOTH",
"168 708 OFFCURVE",
"128 658 OFFCURVE",
"116 601 CURVE",
"116 548 LINE",
"135 548 LINE",
"135 628 OFFCURVE",
"173 677 OFFCURVE",
"221 677 CURVE SMOOTH",
"266 677 OFFCURVE",
"281 652 OFFCURVE",
"281 595 CURVE SMOOTH",
"281 424 LINE SMOOTH",
"281 405 OFFCURVE",
"264 397 OFFCURVE",
"239 397 CURVE SMOOTH",
"229 397 LINE",
"229 378 LINE"
);
},
{
closed = 1;
nodes = (
"187 378 LINE",
"187 397 LINE",
"177 397 LINE SMOOTH",
"152 397 OFFCURVE",
"135 405 OFFCURVE",
"135 424 CURVE SMOOTH",
"135 706 LINE",
"114 706 LINE",
"17 670 LINE",
"22 652 LINE",
"30 655 OFFCURVE",
"42 659 OFFCURVE",
"50 659 CURVE SMOOTH",
"58 659 OFFCURVE",
"66 656 OFFCURVE",
"66 643 CURVE SMOOTH",
"66 424 LINE SMOOTH",
"66 405 OFFCURVE",
"48 397 OFFCURVE",
"23 397 CURVE SMOOTH",
"6 397 LINE",
"6 378 LINE"
);
}
);
width = 416;
}
);
note = uni207F;
unicode = 207F;
},
{
glyphname = Delta;
lastChange = "2017-12-19 07:22:24 +0000";
layers = (
{
layerId = "0B1DFD06-3317-40CA-B510-4969A0718C16";
paths = (
{
closed = 1;
nodes = (
"273 654 LINE",
"7 0 LINE",
"545 0 LINE",
"281 654 LINE"
);
},
{
closed = 1;
nodes = (
"448 32 LINE",
"53 32 LINE",
"256 527 LINE"
);
}
);
width = 552;
}
);
note = Delta;
unicode = 0394;
},
{
glyphname = Omega;
lastChange = "2017-12-19 07:22:17 +0000";
layers = (
{
layerId = "0B1DFD06-3317-40CA-B510-4969A0718C16";
paths = (
{
closed = 1;
nodes = (
"626 72 OFFCURVE",
"601 68 OFFCURVE",
"567 68 CURVE SMOOTH",
"442 68 LINE",
"442 162 LINE",
"576 182 OFFCURVE",
"679 269 OFFCURVE",
"679 411 CURVE SMOOTH",
"679 585 OFFCURVE",
"518 672 OFFCURVE",
"362 672 CURVE SMOOTH",
"207 672 OFFCURVE",
"38 586 OFFCURVE",
"38 411 CURVE SMOOTH",
"38 273 OFFCURVE",
"146 177 OFFCURVE",
"278 162 CURVE",
"278 68 LINE",
"152 68 LINE SMOOTH",
"83 68 OFFCURVE",
"64 86 OFFCURVE",
"55 152 CURVE",
"53 152 LINE",
"53 0 LINE",
"301 0 LINE",
"301 174 LINE",
"188 196 OFFCURVE",
"134 307 OFFCURVE",
"134 411 CURVE SMOOTH",
"134 544 OFFCURVE",
"226 650 OFFCURVE",
"362 650 CURVE SMOOTH",
"502 650 OFFCURVE",
"585 545 OFFCURVE",
"585 411 CURVE SMOOTH",
"585 304 OFFCURVE",
"530 196 OFFCURVE",
"418 174 CURVE",
"418 0 LINE",
"666 0 LINE",
"666 152 LINE",
"665 152 LINE",
"662 121 OFFCURVE",
"654 99 OFFCURVE",
"641 86 CURVE"
);
}
);
width = 717;
}
);
note = Omega;
unicode = 03A9;
},
{
glyphname = mu;
lastChange = "2017-12-19 07:22:39 +0000";
layers = (
{
layerId = "0B1DFD06-3317-40CA-B510-4969A0718C16";
paths = (
{
closed = 1;
nodes = (
"473 517 LINE",
"418 517 LINE",
"418 208 LINE SMOOTH",
"418 121 OFFCURVE",
"362 35 OFFCURVE",
"275 35 CURVE SMOOTH",
"201 35 OFFCURVE",
"140 89 OFFCURVE",
"140 174 CURVE SMOOTH",
"140 517 LINE",
"86 517 LINE",
"86 -244 LINE",
"139 -244 LINE",
"140 35 LINE",
"167 7 OFFCURVE",
"207 -13 OFFCURVE",
"264 -13 CURVE SMOOTH",
"323 -13 OFFCURVE",
"390 13 OFFCURVE",
"419 74 CURVE",
"419 16 OFFCURVE",
"434 -6 OFFCURVE",
"440 -18 CURVE",
"489 1 LINE",
"480 22 OFFCURVE",
"473 46 OFFCURVE",
"473 111 CURVE SMOOTH"
);
}
);
width = 569;
}
);
note = mu;
unicode = 03BC;
},
{
color = 0;
glyphname = pi;
lastChange = "2017-12-19 05:38:58 +0000";
layers = (
{
layerId = "0B1DFD06-3317-40CA-B510-4969A0718C16";
paths = (
{
closed = 1;
nodes = (
"577 -10 OFFCURVE",
"603 -4 OFFCURVE",
"633 13 CURVE",
"633 54 LINE",
"618 44 OFFCURVE",
"598 36 OFFCURVE",
"581 36 CURVE SMOOTH",
"555 36 OFFCURVE",
"528 49 OFFCURVE",
"528 100 CURVE SMOOTH",
"528 431 LINE",
"647 431 LINE",
"647 470 LINE",
"19 470 LINE",
"19 431 LINE",
"136 431 LINE",
"136 0 LINE",
"231 0 LINE",
"231 431 LINE",
"433 431 LINE",
"433 96 LINE SMOOTH",
"433 32 OFFCURVE",
"466 -10 OFFCURVE",
"540 -10 CURVE SMOOTH"
);
}
);
width = 664;
}
);
note = pi;
unicode = 03C0;
},
{
color = 4;
glyphname = "koKai-thai";
lastChange = "2018-02-21 11:17:46 +0000";
layers = (
{
layerId = "0B1DFD06-3317-40CA-B510-4969A0718C16";
paths = (
{
closed = 1;
nodes = (
"484 0 LINE",
"542 0 LINE",
"542 419 LINE SMOOTH",
"542 459 OFFCURVE",
"570 462 OFFCURVE",
"570 481 CURVE SMOOTH",
"570 486 OFFCURVE",
"568 494 OFFCURVE",
"558 503 CURVE SMOOTH",
"541 518 OFFCURVE",
"530 515 OFFCURVE",
"524 507 CURVE",
"474 566 OFFCURVE",
"417 603 OFFCURVE",
"312 603 CURVE SMOOTH",
"170 603 OFFCURVE",
"70 518 OFFCURVE",
"54 419 CURVE",
"146 359 LINE",
"139 348 OFFCURVE",
"133 328 OFFCURVE",
"133 304 CURVE SMOOTH",
"133 0 LINE",
"191 0 LINE",
"191 303 LINE SMOOTH",
"191 351 OFFCURVE",
"207 383 OFFCURVE",
"261 407 CURVE",
"233 446 LINE",
"212 441 OFFCURVE",
"182 418 OFFCURVE",
"170 403 CURVE",
"113 440 LINE",
"135 499 OFFCURVE",
"204 552 OFFCURVE",
"313 552 CURVE SMOOTH",
"401 552 OFFCURVE",
"456 517 OFFCURVE",
"492 462 CURVE",
"485 451 OFFCURVE",
"484 436 OFFCURVE",
"484 419 CURVE SMOOTH"
);
}
);
width = 629;
}
);
note = uni0E01;
unicode = 0E01;
},
{
color = 4;
glyphname = "thoThung-thai";
lastChange = "2018-02-12 09:32:16 +0000";
layers = (
{
layerId = "0B1DFD06-3317-40CA-B510-4969A0718C16";
paths = (
{
closed = 1;
nodes = (
"258 129 OFFCURVE",
"279 110 OFFCURVE",
"279 82 CURVE SMOOTH",
"279 55 OFFCURVE",
"258 35 OFFCURVE",
"230 35 CURVE SMOOTH",
"204 35 OFFCURVE",
"183 55 OFFCURVE",
"183 82 CURVE SMOOTH",
"183 110 OFFCURVE",
"204 129 OFFCURVE",
"230 129 CURVE SMOOTH"
);
},
{
closed = 1;
nodes = (
"542 459 OFFCURVE",
"570 462 OFFCURVE",
"570 481 CURVE SMOOTH",
"570 486 OFFCURVE",
"568 494 OFFCURVE",
"558 503 CURVE SMOOTH",
"541 518 OFFCURVE",
"530 515 OFFCURVE",
"524 507 CURVE",
"474 566 OFFCURVE",
"417 603 OFFCURVE",
"312 603 CURVE SMOOTH",
"170 603 OFFCURVE",
"70 518 OFFCURVE",
"54 419 CURVE",
"146 359 LINE",
"139 348 OFFCURVE",
"133 328 OFFCURVE",
"133 304 CURVE SMOOTH",
"133 86 LINE SMOOTH",
"133 33 OFFCURVE",
"172 -10 OFFCURVE",
"230 -10 CURVE SMOOTH",
"289 -10 OFFCURVE",
"329 29 OFFCURVE",
"329 82 CURVE SMOOTH",
"329 135 OFFCURVE",
"296 174 OFFCURVE",
"236 174 CURVE SMOOTH",
"222 174 OFFCURVE",
"204 169 OFFCURVE",
"191 163 CURVE",
"191 303 LINE SMOOTH",
"191 351 OFFCURVE",
"207 383 OFFCURVE",
"261 407 CURVE",
"233 446 LINE",
"212 441 OFFCURVE",
"182 418 OFFCURVE",
"170 403 CURVE",
"113 440 LINE",
"135 499 OFFCURVE",
"204 552 OFFCURVE",
"313 552 CURVE SMOOTH",
"401 552 OFFCURVE",
"456 517 OFFCURVE",
"492 462 CURVE",
"485 451 OFFCURVE",
"484 436 OFFCURVE",
"484 419 CURVE SMOOTH",
"484 0 LINE",
"542 0 LINE",
"542 419 LINE SMOOTH"
);
}
);
width = 629;
}
);
note = uni0E16;
unicode = 0E16;
},
{
color = 4;
glyphname = "phoSamphao-thai";
lastChange = "2018-02-12 09:55:00 +0000";
layers = (
{
layerId = "0B1DFD06-3317-40CA-B510-4969A0718C16";
paths = (
{
closed = 1;
nodes = (
"150 129 OFFCURVE",
"171 110 OFFCURVE",
"171 82 CURVE SMOOTH",
"171 55 OFFCURVE",
"150 35 OFFCURVE",
"124 35 CURVE SMOOTH",
"96 35 OFFCURVE",
"75 55 OFFCURVE",
"75 82 CURVE SMOOTH",
"75 110 OFFCURVE",
"96 129 OFFCURVE",
"124 129 CURVE SMOOTH"
);
},
{
closed = 1;
nodes = (
"183 -10 OFFCURVE",
"221 33 OFFCURVE",
"221 85 CURVE SMOOTH",
"221 95 OFFCURVE",
"219 110 OFFCURVE",
"215 120 CURVE",
"215 294 LINE SMOOTH",
"215 342 OFFCURVE",
"226 379 OFFCURVE",
"280 403 CURVE",
"252 442 LINE",
"231 437 OFFCURVE",
"201 412 OFFCURVE",
"189 397 CURVE",
"114 441 LINE",
"136 500 OFFCURVE",
"214 552 OFFCURVE",
"313 552 CURVE SMOOTH",
"401 552 OFFCURVE",
"456 517 OFFCURVE",
"492 462 CURVE",
"485 451 OFFCURVE",
"484 436 OFFCURVE",
"484 419 CURVE SMOOTH",
"484 0 LINE",
"542 0 LINE",
"542 419 LINE SMOOTH",
"542 459 OFFCURVE",
"570 462 OFFCURVE",
"570 481 CURVE SMOOTH",
"570 486 OFFCURVE",
"568 494 OFFCURVE",
"558 503 CURVE SMOOTH",
"541 518 OFFCURVE",
"530 515 OFFCURVE",
"524 507 CURVE",
"474 566 OFFCURVE",
"417 603 OFFCURVE",
"312 603 CURVE SMOOTH",
"180 603 OFFCURVE",
"70 518 OFFCURVE",
"54 419 CURVE",
"165 355 LINE",
"158 344 OFFCURVE",
"157 319 OFFCURVE",
"157 295 CURVE SMOOTH",
"157 166 LINE",
"146 171 OFFCURVE",
"133 174 OFFCURVE",
"118 174 CURVE SMOOTH",
"63 174 OFFCURVE",
"25 135 OFFCURVE",
"25 82 CURVE SMOOTH",
"25 29 OFFCURVE",
"65 -10 OFFCURVE",
"124 -10 CURVE SMOOTH"
);
}
);
width = 647;
}
);
note = uni0E20;
unicode = 0E20;
},
{
color = 4;
glyphname = "ru-thai";
lastChange = "2018-02-12 09:35:37 +0000";
layers = (
{
layerId = "0B1DFD06-3317-40CA-B510-4969A0718C16";
paths = (
{
closed = 1;
nodes = (
"258 129 OFFCURVE",
"279 110 OFFCURVE",
"279 82 CURVE SMOOTH",
"279 55 OFFCURVE",
"258 35 OFFCURVE",
"230 35 CURVE SMOOTH",
"204 35 OFFCURVE",
"183 55 OFFCURVE",
"183 82 CURVE SMOOTH",
"183 110 OFFCURVE",
"204 129 OFFCURVE",
"230 129 CURVE SMOOTH"
);
},
{
closed = 1;
nodes = (
"544 459 OFFCURVE",
"572 462 OFFCURVE",
"572 481 CURVE SMOOTH",
"572 486 OFFCURVE",
"570 494 OFFCURVE",
"560 503 CURVE SMOOTH",
"543 518 OFFCURVE",
"532 515 OFFCURVE",
"526 507 CURVE",
"476 566 OFFCURVE",
"418 603 OFFCURVE",
"313 603 CURVE SMOOTH",
"171 603 OFFCURVE",
"70 518 OFFCURVE",
"54 419 CURVE",
"146 359 LINE",
"139 348 OFFCURVE",
"133 328 OFFCURVE",
"133 304 CURVE SMOOTH",
"133 86 LINE SMOOTH",
"133 33 OFFCURVE",
"172 -10 OFFCURVE",
"230 -10 CURVE SMOOTH",
"289 -10 OFFCURVE",
"329 29 OFFCURVE",
"329 82 CURVE SMOOTH",
"329 135 OFFCURVE",
"296 174 OFFCURVE",
"236 174 CURVE SMOOTH",
"222 174 OFFCURVE",
"204 169 OFFCURVE",
"191 163 CURVE",
"191 303 LINE SMOOTH",
"191 351 OFFCURVE",
"207 383 OFFCURVE",
"261 407 CURVE",
"233 446 LINE",
"212 441 OFFCURVE",
"182 418 OFFCURVE",
"170 403 CURVE",
"113 440 LINE",
"135 499 OFFCURVE",
"205 552 OFFCURVE",
"314 552 CURVE SMOOTH",
"402 552 OFFCURVE",
"458 517 OFFCURVE",
"494 462 CURVE",
"487 451 OFFCURVE",
"486 436 OFFCURVE",
"486 419 CURVE SMOOTH",
"486 -359 LINE",
"544 -359 LINE",
"544 419 LINE SMOOTH"
);
}
);
width = 629;
}
);
note = uni0E24;
unicode = 0E24;
},
{
color = 4;
glyphname = "ru-thai.short";
lastChange = "2018-02-12 09:50:56 +0000";
layers = (
{
layerId = "0B1DFD06-3317-40CA-B510-4969A0718C16";
paths = (
{
closed = 1;
nodes = (
"258 129 OFFCURVE",
"279 110 OFFCURVE",
"279 82 CURVE SMOOTH",
"279 55 OFFCURVE",
"258 35 OFFCURVE",
"230 35 CURVE SMOOTH",
"204 35 OFFCURVE",
"183 55 OFFCURVE",
"183 82 CURVE SMOOTH",
"183 110 OFFCURVE",
"204 129 OFFCURVE",
"230 129 CURVE SMOOTH"
);
},
{
closed = 1;
nodes = (
"544 459 OFFCURVE",
"572 462 OFFCURVE",
"572 481 CURVE SMOOTH",
"572 486 OFFCURVE",
"570 494 OFFCURVE",
"560 503 CURVE SMOOTH",
"543 518 OFFCURVE",
"532 515 OFFCURVE",
"526 507 CURVE",
"476 566 OFFCURVE",
"418 603 OFFCURVE",
"313 603 CURVE SMOOTH",
"171 603 OFFCURVE",
"70 518 OFFCURVE",
"54 419 CURVE",
"146 359 LINE",
"139 348 OFFCURVE",
"133 328 OFFCURVE",
"133 304 CURVE SMOOTH",
"133 86 LINE SMOOTH",
"133 33 OFFCURVE",
"172 -10 OFFCURVE",
"230 -10 CURVE SMOOTH",
"289 -10 OFFCURVE",
"329 29 OFFCURVE",
"329 82 CURVE SMOOTH",
"329 135 OFFCURVE",
"296 174 OFFCURVE",
"236 174 CURVE SMOOTH",
"222 174 OFFCURVE",
"204 169 OFFCURVE",
"191 163 CURVE",
"191 303 LINE SMOOTH",
"191 351 OFFCURVE",
"207 383 OFFCURVE",
"261 407 CURVE",
"233 446 LINE",
"212 441 OFFCURVE",
"182 418 OFFCURVE",
"170 403 CURVE",
"113 440 LINE",
"135 499 OFFCURVE",
"205 552 OFFCURVE",
"314 552 CURVE SMOOTH",
"402 552 OFFCURVE",
"458 517 OFFCURVE",
"494 462 CURVE",
"487 451 OFFCURVE",
"486 436 OFFCURVE",
"486 419 CURVE SMOOTH",
"486 -159 LINE",
"544 -159 LINE",
"544 419 LINE SMOOTH"
);
}
);
width = 585;
}
);
note = "ru-thai.short";
},
{
color = 4;
glyphname = "lu-thai";
lastChange = "2018-02-20 06:22:36 +0000";
layers = (
{
layerId = "0B1DFD06-3317-40CA-B510-4969A0718C16";
paths = (
{
closed = 1;
nodes = (
"150 129 OFFCURVE",
"171 110 OFFCURVE",
"171 82 CURVE SMOOTH",
"171 55 OFFCURVE",
"150 35 OFFCURVE",
"124 35 CURVE SMOOTH",
"96 35 OFFCURVE",
"75 55 OFFCURVE",
"75 82 CURVE SMOOTH",
"75 110 OFFCURVE",
"96 129 OFFCURVE",
"124 129 CURVE SMOOTH"
);
},
{
closed = 1;
nodes = (
"157 166 LINE",
"146 171 OFFCURVE",
"133 174 OFFCURVE",
"118 174 CURVE SMOOTH",
"63 174 OFFCURVE",
"25 135 OFFCURVE",
"25 82 CURVE SMOOTH",
"25 29 OFFCURVE",
"65 -10 OFFCURVE",
"124 -10 CURVE SMOOTH",
"183 -10 OFFCURVE",
"221 33 OFFCURVE",
"221 85 CURVE SMOOTH",
"221 95 OFFCURVE",
"219 110 OFFCURVE",
"215 120 CURVE",
"215 294 LINE SMOOTH",
"215 342 OFFCURVE",
"226 379 OFFCURVE",
"280 403 CURVE",
"252 442 LINE",
"231 437 OFFCURVE",
"201 412 OFFCURVE",
"189 397 CURVE",
"114 441 LINE",
"136 500 OFFCURVE",
"215 552 OFFCURVE",
"314 552 CURVE SMOOTH",
"402 552 OFFCURVE",
"458 517 OFFCURVE",
"494 462 CURVE",
"487 451 OFFCURVE",
"486 436 OFFCURVE",
"486 419 CURVE SMOOTH",
"486 -359 LINE",
"544 -359 LINE",
"544 419 LINE SMOOTH",
"544 459 OFFCURVE",
"572 462 OFFCURVE",
"572 481 CURVE SMOOTH",
"572 486 OFFCURVE",
"570 494 OFFCURVE",
"560 503 CURVE SMOOTH",
"543 518 OFFCURVE",
"532 515 OFFCURVE",
"526 507 CURVE",
"476 566 OFFCURVE",
"418 603 OFFCURVE",
"313 603 CURVE SMOOTH",
"181 603 OFFCURVE",
"70 518 OFFCURVE",
"54 419 CURVE",
"165 355 LINE",
"158 344 OFFCURVE",
"157 319 OFFCURVE",
"157 295 CURVE SMOOTH"
);
}
);
width = 650;
}
);
note = uni0E26;
unicode = 0E26;
},
{
color = 4;
glyphname = "lu-thai.short";
lastChange = "2018-02-12 09:55:39 +0000";
layers = (
{
layerId = "0B1DFD06-3317-40CA-B510-4969A0718C16";
paths = (
{
closed = 1;
nodes = (
"150 129 OFFCURVE",
"171 110 OFFCURVE",
"171 82 CURVE SMOOTH",
"171 55 OFFCURVE",
"150 35 OFFCURVE",
"124 35 CURVE SMOOTH",
"96 35 OFFCURVE",
"75 55 OFFCURVE",
"75 82 CURVE SMOOTH",
"75 110 OFFCURVE",
"96 129 OFFCURVE",
"124 129 CURVE SMOOTH"
);
},
{
closed = 1;
nodes = (
"157 166 LINE",
"146 171 OFFCURVE",
"133 174 OFFCURVE",
"118 174 CURVE SMOOTH",
"63 174 OFFCURVE",
"25 135 OFFCURVE",
"25 82 CURVE SMOOTH",
"25 29 OFFCURVE",
"65 -10 OFFCURVE",
"124 -10 CURVE SMOOTH",
"183 -10 OFFCURVE",
"221 33 OFFCURVE",
"221 85 CURVE SMOOTH",
"221 95 OFFCURVE",
"219 110 OFFCURVE",
"215 120 CURVE",
"215 294 LINE SMOOTH",
"215 342 OFFCURVE",
"226 379 OFFCURVE",
"280 403 CURVE",
"252 442 LINE",
"231 437 OFFCURVE",
"201 412 OFFCURVE",
"189 397 CURVE",
"114 441 LINE",
"136 500 OFFCURVE",
"215 552 OFFCURVE",
"314 552 CURVE SMOOTH",
"402 552 OFFCURVE",
"458 517 OFFCURVE",
"494 462 CURVE",
"487 451 OFFCURVE",
"486 436 OFFCURVE",
"486 419 CURVE SMOOTH",
"486 -159 LINE",
"544 -159 LINE",
"544 419 LINE SMOOTH",
"544 459 OFFCURVE",
"572 462 OFFCURVE",
"572 481 CURVE SMOOTH",
"572 486 OFFCURVE",
"570 494 OFFCURVE",
"560 503 CURVE SMOOTH",
"543 518 OFFCURVE",
"532 515 OFFCURVE",
"526 507 CURVE",
"476 566 OFFCURVE",
"418 603 OFFCURVE",
"313 603 CURVE SMOOTH",
"181 603 OFFCURVE",
"70 518 OFFCURVE",
"54 419 CURVE",
"165 355 LINE",
"158 344 OFFCURVE",
"157 319 OFFCURVE",
"157 295 CURVE SMOOTH"
);
}
);
width = 628;
}
);
note = "lu-thai.short";
},
{
color = 4;
glyphname = "doChada-thai";
lastChange = "2018-02-20 05:54:15 +0000";
layers = (
{
layerId = "0B1DFD06-3317-40CA-B510-4969A0718C16";
paths = (
{
closed = 1;
nodes = (
"236 -231 LINE SMOOTH",
"236 -290 OFFCURVE",
"222 -314 OFFCURVE",
"178 -314 CURVE SMOOTH",
"145 -314 OFFCURVE",
"129 -291 OFFCURVE",
"129 -262 CURVE SMOOTH",
"129 -218 OFFCURVE",
"161 -195 OFFCURVE",
"236 -206 CURVE"
);
},
{
closed = 1;
nodes = (
"168 129 OFFCURVE",
"189 110 OFFCURVE",
"189 82 CURVE SMOOTH",
"189 55 OFFCURVE",
"168 35 OFFCURVE",
"142 35 CURVE SMOOTH",
"114 35 OFFCURVE",
"93 55 OFFCURVE",
"93 82 CURVE SMOOTH",
"93 110 OFFCURVE",
"114 129 OFFCURVE",
"142 129 CURVE SMOOTH"
);
},
{
closed = 1;
nodes = (
"562 419 LINE SMOOTH",
"562 459 OFFCURVE",
"590 462 OFFCURVE",
"590 481 CURVE SMOOTH",
"590 486 OFFCURVE",
"588 494 OFFCURVE",
"578 503 CURVE SMOOTH",
"561 518 OFFCURVE",
"550 515 OFFCURVE",
"544 507 CURVE",
"494 566 OFFCURVE",
"436 603 OFFCURVE",
"331 603 CURVE SMOOTH",
"199 603 OFFCURVE",
"88 518 OFFCURVE",
"72 419 CURVE",
"183 355 LINE",
"176 344 OFFCURVE",
"175 319 OFFCURVE",
"175 295 CURVE SMOOTH",
"175 166 LINE",
"164 171 OFFCURVE",
"151 174 OFFCURVE",
"136 174 CURVE SMOOTH",
"81 174 OFFCURVE",
"43 135 OFFCURVE",
"43 82 CURVE SMOOTH",
"43 29 OFFCURVE",
"83 -10 OFFCURVE",
"142 -10 CURVE SMOOTH",
"201 -10 OFFCURVE",
"239 33 OFFCURVE",
"239 85 CURVE SMOOTH",
"239 95 OFFCURVE",
"237 110 OFFCURVE",
"233 120 CURVE",
"233 294 LINE SMOOTH",
"233 342 OFFCURVE",
"244 379 OFFCURVE",
"298 403 CURVE",
"270 442 LINE",
"249 437 OFFCURVE",
"219 412 OFFCURVE",
"207 397 CURVE",
"132 441 LINE",
"154 500 OFFCURVE",
"233 552 OFFCURVE",
"332 552 CURVE SMOOTH",
"420 552 OFFCURVE",
"476 517 OFFCURVE",
"512 462 CURVE",
"505 451 OFFCURVE",
"504 436 OFFCURVE",
"504 419 CURVE SMOOTH",
"504 -178 LINE SMOOTH",
"504 -231 OFFCURVE",
"492 -261 OFFCURVE",
"447 -285 CURVE",
"418 -224 OFFCURVE",
"364 -184 OFFCURVE",
"291 -165 CURVE",
"291 -108 LINE",
"235 -108 LINE",
"235 -161 LINE",
"153 -151 OFFCURVE",
"79 -186 OFFCURVE",
"79 -261 CURVE SMOOTH",
"79 -320 OFFCURVE",
"118 -359 OFFCURVE",
"178 -359 CURVE SMOOTH",
"259 -359 OFFCURVE",
"292 -295 OFFCURVE",
"292 -228 CURVE SMOOTH",
"292 -214 LINE",
"345 -226 OFFCURVE",
"380 -257 OFFCURVE",
"407 -308 CURVE",
"394 -319 OFFCURVE",
"390 -333 OFFCURVE",
"398 -346 CURVE SMOOTH",
"406 -360 OFFCURVE",
"423 -362 OFFCURVE",
"438 -355 CURVE SMOOTH",
"508 -322 OFFCURVE",
"562 -269 OFFCURVE",
"562 -178 CURVE SMOOTH"
);
}
);
width = 645;
}
);
note = uni0E0E;
unicode = 0E0E;
},
{
color = 4;
glyphname = "doChada-thai.short";
lastChange = "2018-02-20 05:48:07 +0000";
layers = (
{
layerId = "0B1DFD06-3317-40CA-B510-4969A0718C16";
paths = (
{
closed = 1;
nodes = (
"236 -121 LINE SMOOTH",
"236 -180 OFFCURVE",
"222 -204 OFFCURVE",
"178 -204 CURVE SMOOTH",
"145 -204 OFFCURVE",
"129 -181 OFFCURVE",
"129 -152 CURVE SMOOTH",
"129 -108 OFFCURVE",
"161 -85 OFFCURVE",
"236 -96 CURVE"
);
},
{
closed = 1;
nodes = (
"168 129 OFFCURVE",
"189 110 OFFCURVE",
"189 82 CURVE SMOOTH",
"189 55 OFFCURVE",
"168 35 OFFCURVE",
"142 35 CURVE SMOOTH",
"114 35 OFFCURVE",
"93 55 OFFCURVE",
"93 82 CURVE SMOOTH",
"93 110 OFFCURVE",
"114 129 OFFCURVE",
"142 129 CURVE SMOOTH"
);
},
{
closed = 1;
nodes = (
"562 419 LINE SMOOTH",
"562 459 OFFCURVE",
"590 462 OFFCURVE",
"590 481 CURVE SMOOTH",
"590 486 OFFCURVE",
"588 494 OFFCURVE",
"578 503 CURVE SMOOTH",
"561 518 OFFCURVE",
"550 515 OFFCURVE",
"544 507 CURVE",
"494 566 OFFCURVE",
"436 603 OFFCURVE",
"331 603 CURVE SMOOTH",
"199 603 OFFCURVE",
"88 518 OFFCURVE",
"72 419 CURVE",
"183 355 LINE",
"176 344 OFFCURVE",
"175 319 OFFCURVE",
"175 295 CURVE SMOOTH",
"175 166 LINE",
"164 171 OFFCURVE",
"151 174 OFFCURVE",
"136 174 CURVE SMOOTH",
"81 174 OFFCURVE",
"43 135 OFFCURVE",
"43 82 CURVE SMOOTH",
"43 29 OFFCURVE",
"83 -10 OFFCURVE",
"142 -10 CURVE SMOOTH",
"201 -10 OFFCURVE",
"239 33 OFFCURVE",
"239 85 CURVE SMOOTH",
"239 95 OFFCURVE",
"237 110 OFFCURVE",
"233 120 CURVE",
"233 294 LINE SMOOTH",
"233 342 OFFCURVE",
"244 379 OFFCURVE",
"298 403 CURVE",
"270 442 LINE",
"249 437 OFFCURVE",
"219 412 OFFCURVE",
"207 397 CURVE",
"132 441 LINE",
"154 500 OFFCURVE",
"233 552 OFFCURVE",
"332 552 CURVE SMOOTH",
"420 552 OFFCURVE",
"476 517 OFFCURVE",
"512 462 CURVE",
"505 451 OFFCURVE",
"504 436 OFFCURVE",
"504 419 CURVE SMOOTH",
"504 -68 LINE SMOOTH",
"504 -121 OFFCURVE",
"492 -153 OFFCURVE",
"447 -177 CURVE",
"418 -116 OFFCURVE",
"364 -74 OFFCURVE",
"291 -55 CURVE",
"291 -12 LINE",
"235 -12 LINE",
"235 -51 LINE",
"153 -41 OFFCURVE",
"79 -76 OFFCURVE",
"79 -151 CURVE SMOOTH",
"79 -210 OFFCURVE",
"118 -249 OFFCURVE",
"178 -249 CURVE SMOOTH",
"259 -249 OFFCURVE",
"292 -185 OFFCURVE",
"292 -118 CURVE SMOOTH",
"292 -104 LINE",
"345 -116 OFFCURVE",
"380 -149 OFFCURVE",
"407 -200 CURVE",
"394 -211 OFFCURVE",
"390 -225 OFFCURVE",
"398 -238 CURVE SMOOTH",
"406 -252 OFFCURVE",
"423 -254 OFFCURVE",
"438 -247 CURVE SMOOTH",
"508 -214 OFFCURVE",
"562 -159 OFFCURVE",
"562 -68 CURVE SMOOTH"
);
}
);
width = 645;
}
);
note = "doChada-thai.short";
},
{
color = 4;
glyphname = "toPatak-thai";
lastChange = "2018-02-20 06:15:29 +0000";
layers = (
{
layerId = "0B1DFD06-3317-40CA-B510-4969A0718C16";
paths = (
{
closed = 1;
nodes = (
"168 129 OFFCURVE",
"189 110 OFFCURVE",
"189 82 CURVE SMOOTH",
"189 55 OFFCURVE",
"168 35 OFFCURVE",
"142 35 CURVE SMOOTH",
"114 35 OFFCURVE",
"93 55 OFFCURVE",
"93 82 CURVE SMOOTH",
"93 110 OFFCURVE",
"114 129 OFFCURVE",
"142 129 CURVE SMOOTH"
);
},
{
closed = 1;
nodes = (
"200 -231 LINE SMOOTH",
"200 -290 OFFCURVE",
"186 -314 OFFCURVE",
"142 -314 CURVE SMOOTH",
"109 -314 OFFCURVE",
"93 -291 OFFCURVE",
"93 -262 CURVE SMOOTH",
"93 -218 OFFCURVE",
"125 -195 OFFCURVE",
"200 -206 CURVE"
);
},
{
closed = 1;
nodes = (
"255 -108 LINE",
"199 -108 LINE",
"199 -161 LINE",
"117 -151 OFFCURVE",
"43 -186 OFFCURVE",
"43 -261 CURVE SMOOTH",
"43 -320 OFFCURVE",
"82 -359 OFFCURVE",
"142 -359 CURVE SMOOTH",
"223 -359 OFFCURVE",
"256 -302 OFFCURVE",
"256 -228 CURVE SMOOTH",
"256 -217 LINE",
"284 -232 OFFCURVE",
"302 -255 OFFCURVE",
"311 -311 CURVE",
"303 -323 LINE SMOOTH",
"295 -334 OFFCURVE",
"295 -344 OFFCURVE",
"307 -353 CURVE SMOOTH",
"318 -362 OFFCURVE",
"330 -361 OFFCURVE",
"339 -349 CURVE SMOOTH",
"370 -305 LINE SMOOTH",
"378 -293 OFFCURVE",
"384 -289 OFFCURVE",
"393 -289 CURVE SMOOTH",
"402 -289 OFFCURVE",
"406 -294 OFFCURVE",
"416 -305 CURVE SMOOTH",
"442 -334 LINE SMOOTH",
"455 -348 OFFCURVE",
"472 -359 OFFCURVE",
"496 -359 CURVE SMOOTH",
"544 -359 OFFCURVE",
"562 -324 OFFCURVE",
"562 -274 CURVE SMOOTH",
"562 419 LINE SMOOTH",
"562 459 OFFCURVE",
"590 462 OFFCURVE",
"590 481 CURVE SMOOTH",
"590 486 OFFCURVE",
"588 494 OFFCURVE",
"578 503 CURVE SMOOTH",
"561 518 OFFCURVE",
"550 515 OFFCURVE",
"544 507 CURVE",
"494 566 OFFCURVE",
"436 603 OFFCURVE",
"331 603 CURVE SMOOTH",
"199 603 OFFCURVE",
"88 518 OFFCURVE",
"72 419 CURVE",
"183 355 LINE",
"176 344 OFFCURVE",
"175 319 OFFCURVE",
"175 295 CURVE SMOOTH",
"175 166 LINE",
"164 171 OFFCURVE",
"151 174 OFFCURVE",
"136 174 CURVE SMOOTH",
"81 174 OFFCURVE",
"43 135 OFFCURVE",
"43 82 CURVE SMOOTH",
"43 29 OFFCURVE",
"83 -10 OFFCURVE",
"142 -10 CURVE SMOOTH",
"201 -10 OFFCURVE",
"239 33 OFFCURVE",
"239 85 CURVE SMOOTH",
"239 95 OFFCURVE",
"237 110 OFFCURVE",
"233 120 CURVE",
"233 294 LINE SMOOTH",
"233 342 OFFCURVE",
"244 379 OFFCURVE",
"298 403 CURVE",
"270 442 LINE",
"249 437 OFFCURVE",
"219 412 OFFCURVE",
"207 397 CURVE",
"132 441 LINE",
"154 500 OFFCURVE",
"233 552 OFFCURVE",
"332 552 CURVE SMOOTH",
"420 552 OFFCURVE",
"476 517 OFFCURVE",
"512 462 CURVE",
"505 451 OFFCURVE",
"504 436 OFFCURVE",
"504 419 CURVE SMOOTH",
"504 -291 LINE SMOOTH",
"504 -306 OFFCURVE",
"498 -314 OFFCURVE",
"489 -314 CURVE SMOOTH",
"482 -314 OFFCURVE",
"474 -310 OFFCURVE",
"465 -299 CURVE SMOOTH",
"432 -262 LINE SMOOTH",
"423 -252 OFFCURVE",
"411 -244 OFFCURVE",
"393 -244 CURVE SMOOTH",
"373 -244 OFFCURVE",
"359 -255 OFFCURVE",
"344 -276 CURVE",
"331 -221 OFFCURVE",
"305 -191 OFFCURVE",
"255 -168 CURVE"
);
}
);
width = 645;
}
);
note = uni0E0F;
unicode = 0E0F;
},
{
color = 4;
glyphname = "toPatak-thai.short";
lastChange = "2018-02-20 06:24:31 +0000";
layers = (
{
layerId = "0B1DFD06-3317-40CA-B510-4969A0718C16";
paths = (
{
closed = 1;
nodes = (
"168 129 OFFCURVE",
"189 110 OFFCURVE",
"189 82 CURVE SMOOTH",
"189 55 OFFCURVE",
"168 35 OFFCURVE",
"142 35 CURVE SMOOTH",
"114 35 OFFCURVE",
"93 55 OFFCURVE",
"93 82 CURVE SMOOTH",
"93 110 OFFCURVE",
"114 129 OFFCURVE",
"142 129 CURVE SMOOTH"
);
},
{
closed = 1;
nodes = (
"200 -131 LINE SMOOTH",
"200 -182 OFFCURVE",
"186 -205 OFFCURVE",
"142 -205 CURVE SMOOTH",
"109 -205 OFFCURVE",
"93 -188 OFFCURVE",
"93 -159 CURVE SMOOTH",
"93 -115 OFFCURVE",
"125 -95 OFFCURVE",
"200 -106 CURVE"
);
},
{
closed = 1;
nodes = (
"255 -25 LINE",
"199 -25 LINE",
"199 -61 LINE",
"117 -51 OFFCURVE",
"43 -83 OFFCURVE",
"43 -158 CURVE SMOOTH",
"43 -217 OFFCURVE",
"82 -250 OFFCURVE",
"142 -250 CURVE SMOOTH",
"223 -250 OFFCURVE",
"256 -193 OFFCURVE",
"256 -128 CURVE SMOOTH",
"256 -117 LINE",
"284 -132 OFFCURVE",
"302 -148 OFFCURVE",
"311 -202 CURVE",
"303 -214 LINE SMOOTH",
"295 -225 OFFCURVE",
"295 -235 OFFCURVE",
"307 -244 CURVE SMOOTH",
"318 -253 OFFCURVE",
"330 -252 OFFCURVE",
"339 -240 CURVE SMOOTH",
"370 -196 LINE SMOOTH",
"378 -184 OFFCURVE",
"384 -180 OFFCURVE",
"393 -180 CURVE SMOOTH",
"402 -180 OFFCURVE",
"406 -185 OFFCURVE",
"416 -196 CURVE SMOOTH",
"442 -225 LINE SMOOTH",
"455 -239 OFFCURVE",
"472 -250 OFFCURVE",
"496 -250 CURVE SMOOTH",
"544 -250 OFFCURVE",
"562 -215 OFFCURVE",
"562 -165 CURVE SMOOTH",
"562 419 LINE SMOOTH",
"562 459 OFFCURVE",
"590 462 OFFCURVE",
"590 481 CURVE SMOOTH",
"590 486 OFFCURVE",
"588 494 OFFCURVE",
"578 503 CURVE SMOOTH",
"561 518 OFFCURVE",
"550 515 OFFCURVE",
"544 507 CURVE",
"494 566 OFFCURVE",
"436 603 OFFCURVE",
"331 603 CURVE SMOOTH",
"199 603 OFFCURVE",
"88 518 OFFCURVE",
"72 419 CURVE",
"183 355 LINE",
"176 344 OFFCURVE",
"175 319 OFFCURVE",
"175 295 CURVE SMOOTH",
"175 166 LINE",
"164 171 OFFCURVE",
"151 174 OFFCURVE",
"136 174 CURVE SMOOTH",
"81 174 OFFCURVE",
"43 135 OFFCURVE",
"43 82 CURVE SMOOTH",
"43 29 OFFCURVE",
"83 -10 OFFCURVE",
"142 -10 CURVE SMOOTH",
"201 -10 OFFCURVE",
"239 33 OFFCURVE",
"239 85 CURVE SMOOTH",
"239 95 OFFCURVE",
"237 110 OFFCURVE",
"233 120 CURVE",
"233 294 LINE SMOOTH",
"233 342 OFFCURVE",
"244 379 OFFCURVE",
"298 403 CURVE",
"270 442 LINE",
"249 437 OFFCURVE",
"219 412 OFFCURVE",
"207 397 CURVE",
"132 441 LINE",
"154 500 OFFCURVE",
"233 552 OFFCURVE",
"332 552 CURVE SMOOTH",
"420 552 OFFCURVE",
"476 517 OFFCURVE",
"512 462 CURVE",
"505 451 OFFCURVE",
"504 436 OFFCURVE",
"504 419 CURVE SMOOTH",
"504 -182 LINE SMOOTH",
"504 -197 OFFCURVE",
"498 -205 OFFCURVE",
"489 -205 CURVE SMOOTH",
"482 -205 OFFCURVE",
"474 -201 OFFCURVE",
"465 -190 CURVE SMOOTH",
"432 -153 LINE SMOOTH",
"423 -143 OFFCURVE",
"411 -135 OFFCURVE",
"393 -135 CURVE SMOOTH",
"373 -135 OFFCURVE",
"359 -146 OFFCURVE",
"344 -167 CURVE",
"331 -116 OFFCURVE",
"305 -91 OFFCURVE",
"255 -68 CURVE"
);
}
);
width = 645;
}
);
note = "toPatak-thai.short";
},
{
color = 4;
glyphname = "ru_lakkhangyao-thai";
lastChange = "2018-02-20 06:21:19 +0000";
layers = (
{
layerId = "0B1DFD06-3317-40CA-B510-4969A0718C16";
paths = (
{
closed = 1;
nodes = (
"146 359 LINE",
"139 348 OFFCURVE",
"133 328 OFFCURVE",
"133 304 CURVE SMOOTH",
"133 86 LINE SMOOTH",
"133 33 OFFCURVE",
"172 -10 OFFCURVE",
"230 -10 CURVE SMOOTH",
"289 -10 OFFCURVE",
"329 29 OFFCURVE",
"329 82 CURVE SMOOTH",
"329 135 OFFCURVE",
"296 174 OFFCURVE",
"236 174 CURVE SMOOTH",
"222 174 OFFCURVE",
"204 169 OFFCURVE",
"191 163 CURVE",
"191 303 LINE SMOOTH",
"191 351 OFFCURVE",
"207 383 OFFCURVE",
"261 407 CURVE",
"233 446 LINE",
"212 441 OFFCURVE",
"182 418 OFFCURVE",
"170 403 CURVE",
"113 440 LINE",
"135 499 OFFCURVE",
"205 552 OFFCURVE",
"314 552 CURVE SMOOTH",
"402 552 OFFCURVE",
"458 517 OFFCURVE",
"494 462 CURVE",
"487 451 OFFCURVE",
"486 436 OFFCURVE",
"486 419 CURVE SMOOTH",
"486 -359 LINE",
"544 -359 LINE",
"544 411 LINE SMOOTH",
"544 487 OFFCURVE",
"606 552 OFFCURVE",
"708 552 CURVE SMOOTH",
"778 552 OFFCURVE",
"831 528 OFFCURVE",
"865 476 CURVE",
"858 465 OFFCURVE",
"855 447 OFFCURVE",
"855 430 CURVE SMOOTH",
"855 -359 LINE",
"913 -359 LINE",
"913 430 LINE SMOOTH",
"913 470 OFFCURVE",
"941 473 OFFCURVE",
"941 492 CURVE SMOOTH",
"941 497 OFFCURVE",
"939 505 OFFCURVE",
"929 514 CURVE SMOOTH",
"912 529 OFFCURVE",
"901 526 OFFCURVE",
"895 518 CURVE",
"855 573 OFFCURVE",
"792 603 OFFCURVE",
"707 603 CURVE SMOOTH",
"626 603 OFFCURVE",
"570.125 568.387 OFFCURVE",
"524.829 508.376 CURVE",
"475.093 566.575 OFFCURVE",
"417.181 603 OFFCURVE",
"313 603 CURVE SMOOTH",
"171 603 OFFCURVE",
"70 518 OFFCURVE",
"54 419 CURVE"
);
},
{
closed = 1;
nodes = (
"183 110 OFFCURVE",
"204 129 OFFCURVE",
"230 129 CURVE SMOOTH",
"258 129 OFFCURVE",
"279 110 OFFCURVE",
"279 82 CURVE SMOOTH",
"279 55 OFFCURVE",
"258 35 OFFCURVE",
"230 35 CURVE SMOOTH",
"204 35 OFFCURVE",
"183 55 OFFCURVE",
"183 82 CURVE SMOOTH"
);
}
);
width = 967;
}
);
note = "ru_lakkhangyao-thai";
},
{
color = 4;
glyphname = "lu_lakkhangyao-thai";
lastChange = "2018-02-20 06:22:52 +0000";
layers = (
{
layerId = "0B1DFD06-3317-40CA-B510-4969A0718C16";
paths = (
{
closed = 1;
nodes = (
"150 129 OFFCURVE",
"171 110 OFFCURVE",
"171 82 CURVE SMOOTH",
"171 55 OFFCURVE",
"150 35 OFFCURVE",
"124 35 CURVE SMOOTH",
"96 35 OFFCURVE",
"75 55 OFFCURVE",
"75 82 CURVE SMOOTH",
"75 110 OFFCURVE",
"96 129 OFFCURVE",
"124 129 CURVE SMOOTH"
);
},
{
closed = 1;
nodes = (
"544 487 OFFCURVE",
"607 552 OFFCURVE",
"709 552 CURVE SMOOTH",
"779 552 OFFCURVE",
"832 528 OFFCURVE",
"866 476 CURVE",
"859 465 OFFCURVE",
"856 447 OFFCURVE",
"856 430 CURVE SMOOTH",
"856 -359 LINE",
"914 -359 LINE",
"914 430 LINE SMOOTH",
"914 470 OFFCURVE",
"942 473 OFFCURVE",
"942 492 CURVE SMOOTH",
"942 497 OFFCURVE",
"940 505 OFFCURVE",
"930 514 CURVE SMOOTH",
"913 529 OFFCURVE",
"902 526 OFFCURVE",
"896 518 CURVE",
"856 573 OFFCURVE",
"793 603 OFFCURVE",
"708 603 CURVE SMOOTH",
"627 603 OFFCURVE",
"571 568 OFFCURVE",
"526 508 CURVE",
"476 567 OFFCURVE",
"418 603 OFFCURVE",
"313 603 CURVE SMOOTH",
"181 603 OFFCURVE",
"70 518 OFFCURVE",
"54 419 CURVE",
"165 355 LINE",
"158 344 OFFCURVE",
"157 319 OFFCURVE",
"157 295 CURVE SMOOTH",
"157 166 LINE",
"146 171 OFFCURVE",
"133 174 OFFCURVE",
"118 174 CURVE SMOOTH",
"63 174 OFFCURVE",
"25 135 OFFCURVE",
"25 82 CURVE SMOOTH",
"25 29 OFFCURVE",
"65 -10 OFFCURVE",
"124 -10 CURVE SMOOTH",
"183 -10 OFFCURVE",
"221 33 OFFCURVE",
"221 85 CURVE SMOOTH",
"221 95 OFFCURVE",
"219 110 OFFCURVE",
"215 120 CURVE",
"215 294 LINE SMOOTH",
"215 342 OFFCURVE",
"226 379 OFFCURVE",
"280 403 CURVE",
"252 442 LINE",
"231 437 OFFCURVE",
"201 412 OFFCURVE",
"189 397 CURVE",
"114 441 LINE",
"136 500 OFFCURVE",
"215 552 OFFCURVE",
"314 552 CURVE SMOOTH",
"402 552 OFFCURVE",
"458 517 OFFCURVE",
"494 462 CURVE",
"487 451 OFFCURVE",
"486 436 OFFCURVE",
"486 419 CURVE SMOOTH",
"486 -359 LINE",
"544 -359 LINE",
"544 411 LINE SMOOTH"
);
}
);
width = 988;
}
);
note = "lu_lakkhangyao-thai";
},
{
color = 4;
glyphname = "yoYing-thai";
lastChange = "2018-02-13 06:38:44 +0000";
layers = (
{
layerId = "0B1DFD06-3317-40CA-B510-4969A0718C16";
paths = (
{
closed = 1;
nodes = (
"146 359 LINE",
"139 348 OFFCURVE",
"133 328 OFFCURVE",
"133 304 CURVE SMOOTH",
"133 86 LINE SMOOTH",
"133 33 OFFCURVE",
"172 -10 OFFCURVE",
"230 -10 CURVE SMOOTH",
"289 -10 OFFCURVE",
"329 29 OFFCURVE",
"329 82 CURVE SMOOTH",
"329 135 OFFCURVE",
"296 174 OFFCURVE",
"236 174 CURVE SMOOTH",
"222 174 OFFCURVE",
"204 169 OFFCURVE",
"191 163 CURVE",
"191 303 LINE SMOOTH",
"191 351 OFFCURVE",
"207 383 OFFCURVE",
"261 407 CURVE",
"233 446 LINE",
"212 441 OFFCURVE",
"182 418 OFFCURVE",
"170 403 CURVE",
"113 440 LINE",
"135 499 OFFCURVE",
"199 552 OFFCURVE",
"308 552 CURVE SMOOTH",
"396 552 OFFCURVE",
"446 517 OFFCURVE",
"482 462 CURVE",
"475 451 OFFCURVE",
"474 436 OFFCURVE",
"474 419 CURVE SMOOTH",
"474 92 LINE SMOOTH",
"474 68 OFFCURVE",
"467 55 OFFCURVE",
"449 42 CURVE SMOOTH",
"435 32 OFFCURVE",
"433 24 OFFCURVE",
"443 7 CURVE SMOOTH",
"452 -9 OFFCURVE",
"461 -14 OFFCURVE",
"472 -8 CURVE SMOOTH",
"481 -3 OFFCURVE",
"492 0 OFFCURVE",
"504 0 CURVE SMOOTH",
"773.98 0 LINE",
"772.842 -112.006 OFFCURVE",
"723.698 -196.035 OFFCURVE",
"614 -199 CURVE",
"613 -197 LINE",
"636 -179 OFFCURVE",
"646 -154 OFFCURVE",
"646 -131 CURVE",
"645 -88 OFFCURVE",
"614 -46 OFFCURVE",
"555 -46 CURVE SMOOTH",
"501 -46 OFFCURVE",
"465 -86 OFFCURVE",
"465 -137 CURVE SMOOTH",
"465 -205 OFFCURVE",
"537 -243 OFFCURVE",
"609 -243 CURVE SMOOTH",
"749 -243 OFFCURVE",
"830 -148 OFFCURVE",
"830 0 CURVE SMOOTH",
"830 593 LINE",
"772 593 LINE",
"772 49 LINE",
"518 49 LINE",
"529 63 OFFCURVE",
"531 77 OFFCURVE",
"531 93 CURVE SMOOTH",
"531 419 LINE SMOOTH",
"531 459 OFFCURVE",
"560 462 OFFCURVE",
"560 481 CURVE SMOOTH",
"560 486 OFFCURVE",
"558 494 OFFCURVE",
"548 503 CURVE SMOOTH",
"531 518 OFFCURVE",
"520 515 OFFCURVE",
"514 507 CURVE",
"464 566 OFFCURVE",
"412 603 OFFCURVE",
"307 603 CURVE SMOOTH",
"165 603 OFFCURVE",
"70 518 OFFCURVE",
"54 419 CURVE"
);
},
{
closed = 1;
nodes = (
"183 110 OFFCURVE",
"204 129 OFFCURVE",
"230 129 CURVE SMOOTH",
"258 129 OFFCURVE",
"279 110 OFFCURVE",
"279 82 CURVE SMOOTH",
"279 55 OFFCURVE",
"258 35 OFFCURVE",
"230 35 CURVE SMOOTH",
"204 35 OFFCURVE",
"183 55 OFFCURVE",
"183 82 CURVE SMOOTH"
);
},
{
closed = 1;
nodes = (
"512 -112 OFFCURVE",
"530 -93 OFFCURVE",
"555 -93 CURVE SMOOTH",
"582 -93 OFFCURVE",
"599 -111 OFFCURVE",
"599 -137 CURVE SMOOTH",
"599 -161 OFFCURVE",
"580 -180 OFFCURVE",
"555 -180 CURVE SMOOTH",
"531 -180 OFFCURVE",
"512 -161 OFFCURVE",
"512 -137 CURVE SMOOTH"
);
}
);
width = 908;
}
);
note = uni0E0D;
unicode = 0E0D;
},
{
color = 4;
glyphname = "yoYing-thai.less";
lastChange = "2018-02-13 05:55:42 +0000";
layers = (
{
layerId = "0B1DFD06-3317-40CA-B510-4969A0718C16";
paths = (
{
closed = 1;
nodes = (
"258 129 OFFCURVE",
"279 110 OFFCURVE",
"279 82 CURVE SMOOTH",
"279 55 OFFCURVE",
"258 35 OFFCURVE",
"230 35 CURVE SMOOTH",
"204 35 OFFCURVE",
"183 55 OFFCURVE",
"183 82 CURVE SMOOTH",
"183 110 OFFCURVE",
"204 129 OFFCURVE",
"230 129 CURVE SMOOTH"
);
},
{
closed = 1;
nodes = (
"531 459 OFFCURVE",
"560 462 OFFCURVE",
"560 481 CURVE SMOOTH",
"560 486 OFFCURVE",
"558 494 OFFCURVE",
"548 503 CURVE SMOOTH",
"531 518 OFFCURVE",
"520 515 OFFCURVE",
"514 507 CURVE",
"464 566 OFFCURVE",
"412 603 OFFCURVE",
"307 603 CURVE SMOOTH",
"165 603 OFFCURVE",
"70 518 OFFCURVE",
"54 419 CURVE",
"146 359 LINE",
"139 348 OFFCURVE",
"133 328 OFFCURVE",
"133 304 CURVE SMOOTH",
"133 86 LINE SMOOTH",
"133 33 OFFCURVE",
"172 -10 OFFCURVE",
"230 -10 CURVE SMOOTH",
"289 -10 OFFCURVE",
"329 29 OFFCURVE",
"329 82 CURVE SMOOTH",
"329 135 OFFCURVE",
"296 174 OFFCURVE",
"236 174 CURVE SMOOTH",
"222 174 OFFCURVE",
"204 169 OFFCURVE",
"191 163 CURVE",
"191 303 LINE SMOOTH",
"191 351 OFFCURVE",
"207 383 OFFCURVE",
"261 407 CURVE",
"233 446 LINE",
"212 441 OFFCURVE",
"182 418 OFFCURVE",
"170 403 CURVE",
"113 440 LINE",
"135 499 OFFCURVE",
"199 552 OFFCURVE",
"308 552 CURVE SMOOTH",
"396 552 OFFCURVE",
"446 517 OFFCURVE",
"482 462 CURVE",
"475 451 OFFCURVE",
"474 436 OFFCURVE",
"474 419 CURVE SMOOTH",
"474 92 LINE SMOOTH",
"474 68 OFFCURVE",
"467 55 OFFCURVE",
"449 42 CURVE SMOOTH",
"435 32 OFFCURVE",
"433 24 OFFCURVE",
"443 7 CURVE SMOOTH",
"452 -9 OFFCURVE",
"461 -14 OFFCURVE",
"472 -8 CURVE SMOOTH",
"481 -3 OFFCURVE",
"492 0 OFFCURVE",
"504 0 CURVE SMOOTH",
"775 0 LINE SMOOTH",
"822 0 OFFCURVE",
"830 28 OFFCURVE",
"830 69 CURVE SMOOTH",
"830 593 LINE",
"772 593 LINE",
"772 49 LINE",
"518 49 LINE",
"529 63 OFFCURVE",
"531 77 OFFCURVE",
"531 93 CURVE SMOOTH",
"531 419 LINE SMOOTH"
);
}
);
width = 908;
}
);
note = "yoYing-thai.less";
},
{
color = 4;
glyphname = "khoKhai-thai";
lastChange = "2018-02-13 05:13:26 +0000";
layers = (
{
layerId = "0B1DFD06-3317-40CA-B510-4969A0718C16";
paths = (
{
closed = 1;
nodes = (
"498 593 LINE",
"440 593 LINE",
"440 49 LINE",
"219 49 LINE",
"230 63 OFFCURVE",
"232 77 OFFCURVE",
"232 93 CURVE SMOOTH",
"232 181 LINE SMOOTH",
"232 273 OFFCURVE",
"372 322 OFFCURVE",
"372 465 CURVE SMOOTH",
"372 540 OFFCURVE",
"320 603 OFFCURVE",
"232 603 CURVE SMOOTH",
"135 603 OFFCURVE",
"68 547 OFFCURVE",
"68 465 CURVE SMOOTH",
"68 409 OFFCURVE",
"112 367 OFFCURVE",
"167 367 CURVE SMOOTH",
"227 367 OFFCURVE",
"267 409 OFFCURVE",
"267 465 CURVE SMOOTH",
"267 505 OFFCURVE",
"238 538 OFFCURVE",
"189 544 CURVE",
"189 547 LINE",
"200 551 OFFCURVE",
"220 554 OFFCURVE",
"234 554 CURVE SMOOTH",
"282 554 OFFCURVE",
"315 525 OFFCURVE",
"315 462 CURVE SMOOTH",
"315 325 OFFCURVE",
"174 300 OFFCURVE",
"174 179 CURVE SMOOTH",
"174 92 LINE SMOOTH",
"174 68 OFFCURVE",
"167 55 OFFCURVE",
"149 42 CURVE SMOOTH",
"135 32 OFFCURVE",
"133 24 OFFCURVE",
"143 7 CURVE SMOOTH",
"152 -9 OFFCURVE",
"161 -14 OFFCURVE",
"172 -8 CURVE SMOOTH",
"181 -3 OFFCURVE",
"192 0 OFFCURVE",
"204 0 CURVE SMOOTH",
"443 0 LINE SMOOTH",
"490 0 OFFCURVE",
"498 28 OFFCURVE",
"498 69 CURVE SMOOTH"
);
},
{
closed = 1;
nodes = (
"140 417 OFFCURVE",
"118 437 OFFCURVE",
"118 465 CURVE SMOOTH",
"118 492 OFFCURVE",
"140 514 OFFCURVE",
"167 514 CURVE SMOOTH",
"195 514 OFFCURVE",
"217 492 OFFCURVE",
"217 465 CURVE SMOOTH",
"217 437 OFFCURVE",
"195 417 OFFCURVE",
"167 417 CURVE SMOOTH"
);
}
);
width = 555;
}
);
note = uni0E02;
unicode = 0E02;
},
{
color = 4;
glyphname = "khoKhuat-thai";
lastChange = "2018-02-13 06:32:16 +0000";
layers = (
{
layerId = "0B1DFD06-3317-40CA-B510-4969A0718C16";
paths = (
{
closed = 1;
nodes = (
"231 306 OFFCURVE",
"383 398 OFFCURVE",
"383 476 CURVE SMOOTH",
"383 528 OFFCURVE",
"354 571 OFFCURVE",
"319 597 CURVE SMOOTH",
"314 601 OFFCURVE",
"306 603 OFFCURVE",
"299 603 CURVE SMOOTH",
"291 603 OFFCURVE",
"284 599 OFFCURVE",
"278 594 CURVE SMOOTH",
"232 554 LINE",
"209 584 OFFCURVE",
"181 603 OFFCURVE",
"141 603 CURVE SMOOTH",
"62 603 OFFCURVE",
"18 529 OFFCURVE",
"18 438 CURVE SMOOTH",
"18 366 OFFCURVE",
"51 306 OFFCURVE",
"123 306 CURVE SMOOTH",
"176 306 OFFCURVE",
"220 347 OFFCURVE",
"220 401 CURVE SMOOTH",
"220 454 OFFCURVE",
"179 492 OFFCURVE",
"125 492 CURVE SMOOTH",
"106 492 OFFCURVE",
"83 483 OFFCURVE",
"69 470 CURVE",
"68 470 LINE",
"73 512 OFFCURVE",
"97 555 OFFCURVE",
"141 555 CURVE SMOOTH",
"186 555 OFFCURVE",
"199 530 OFFCURVE",
"220 486 CURVE SMOOTH",
"226 473 OFFCURVE",
"235 472 OFFCURVE",
"250 478 CURVE SMOOTH",
"265 484 OFFCURVE",
"265 497 OFFCURVE",
"253 521 CURVE",
"291 552 LINE",
"313 538 OFFCURVE",
"327 512 OFFCURVE",
"327 476 CURVE SMOOTH",
"327 414 OFFCURVE",
"174 299 OFFCURVE",
"174 179 CURVE SMOOTH",
"174 92 LINE SMOOTH",
"174 68 OFFCURVE",
"167 55 OFFCURVE",
"149 42 CURVE SMOOTH",
"135 32 OFFCURVE",
"133 24 OFFCURVE",
"143 7 CURVE SMOOTH",
"152 -9 OFFCURVE",
"161 -14 OFFCURVE",
"172 -8 CURVE SMOOTH",
"181 -3 OFFCURVE",
"192 0 OFFCURVE",
"204 0 CURVE SMOOTH",
"443 0 LINE SMOOTH",
"490 0 OFFCURVE",
"498 28 OFFCURVE",
"498 69 CURVE SMOOTH",
"498 593 LINE",
"440 593 LINE",
"440 49 LINE",
"218 49 LINE",
"229 63 OFFCURVE",
"231 77 OFFCURVE",
"231 93 CURVE SMOOTH",
"231 175 LINE SMOOTH"
);
},
{
closed = 1;
nodes = (
"149 449 OFFCURVE",
"170 428 OFFCURVE",
"170 402 CURVE SMOOTH",
"170 375 OFFCURVE",
"149 354 OFFCURVE",
"123 354 CURVE SMOOTH",
"96 354 OFFCURVE",
"74 375 OFFCURVE",
"74 402 CURVE SMOOTH",
"74 428 OFFCURVE",
"96 449 OFFCURVE",
"123 449 CURVE SMOOTH"
);
}
);
width = 609;
}
);
note = uni0E03;
unicode = 0E03;
},
{
color = 4;
glyphname = "choChang-thai";
lastChange = "2018-02-13 05:13:49 +0000";
layers = (
{
layerId = "0B1DFD06-3317-40CA-B510-4969A0718C16";
paths = (
{
closed = 1;
nodes = (
"420 49 LINE",
"199 49 LINE",
"210 63 OFFCURVE",
"212 77 OFFCURVE",
"212 93 CURVE SMOOTH",
"212 191 LINE SMOOTH",
"212 289 OFFCURVE",
"327 325 OFFCURVE",
"327 456 CURVE SMOOTH",
"327 539 OFFCURVE",
"283 603 OFFCURVE",
"185 603 CURVE SMOOTH",
"93 603 OFFCURVE",
"23 540 OFFCURVE",
"23 465 CURVE SMOOTH",
"23 409 OFFCURVE",
"67 367 OFFCURVE",
"122 367 CURVE SMOOTH",
"182 367 OFFCURVE",
"222 407 OFFCURVE",
"222 463 CURVE SMOOTH",
"222 504 OFFCURVE",
"197 538 OFFCURVE",
"141 545 CURVE",
"141 548 LINE",
"153 551 OFFCURVE",
"170 555 OFFCURVE",
"188 555 CURVE SMOOTH",
"239 555 OFFCURVE",
"270 523 OFFCURVE",
"270 456 CURVE SMOOTH",
"270 332 OFFCURVE",
"154 312 OFFCURVE",
"154 189 CURVE SMOOTH",
"154 92 LINE SMOOTH",
"154 68 OFFCURVE",
"147 55 OFFCURVE",
"129 42 CURVE SMOOTH",
"115 32 OFFCURVE",
"113 24 OFFCURVE",
"123 7 CURVE SMOOTH",
"132 -9 OFFCURVE",
"141 -14 OFFCURVE",
"152 -8 CURVE SMOOTH",
"161 -3 OFFCURVE",
"172 0 OFFCURVE",
"184 0 CURVE SMOOTH",
"423 0 LINE SMOOTH",
"470 0 OFFCURVE",
"478 28 OFFCURVE",
"478 69 CURVE SMOOTH",
"478 328 LINE SMOOTH",
"478 400 OFFCURVE",
"472 429 OFFCURVE",
"408 447 CURVE",
"434 505 OFFCURVE",
"486 561 OFFCURVE",
"557 607 CURVE",
"524 651 LINE",
"441 602 OFFCURVE",
"393 525 OFFCURVE",
"356 450 CURVE SMOOTH",
"348 434 OFFCURVE",
"352 419 OFFCURVE",
"371 415 CURVE SMOOTH",
"417 405 OFFCURVE",
"420 385 OFFCURVE",
"420 329 CURVE SMOOTH"
);
},
{
closed = 1;
nodes = (
"95 417 OFFCURVE",
"73 437 OFFCURVE",
"73 465 CURVE SMOOTH",
"73 492 OFFCURVE",
"95 514 OFFCURVE",
"122 514 CURVE SMOOTH",
"150 514 OFFCURVE",
"172 492 OFFCURVE",
"172 465 CURVE SMOOTH",
"172 437 OFFCURVE",
"150 417 OFFCURVE",
"122 417 CURVE SMOOTH"
);
}
);
width = 560;
}
);
note = uni0E0A;
unicode = 0E0A;
},
{
color = 4;
glyphname = "soSo-thai";
lastChange = "2018-02-13 06:32:42 +0000";
layers = (
{
layerId = "0B1DFD06-3317-40CA-B510-4969A0718C16";
paths = (
{
closed = 1;
nodes = (
"211 306 OFFCURVE",
"346 381 OFFCURVE",
"346 467 CURVE SMOOTH",
"346 527 OFFCURVE",
"326 571 OFFCURVE",
"293 597 CURVE SMOOTH",
"288 601 OFFCURVE",
"280 603 OFFCURVE",
"273 603 CURVE SMOOTH",
"265 603 OFFCURVE",
"258 599 OFFCURVE",
"252 594 CURVE SMOOTH",
"206 554 LINE",
"183 584 OFFCURVE",
"159 603 OFFCURVE",
"119 603 CURVE SMOOTH",
"40 603 OFFCURVE",
"-4 529 OFFCURVE",
"-4 438 CURVE SMOOTH",
"-4 366 OFFCURVE",
"29 306 OFFCURVE",
"101 306 CURVE SMOOTH",
"154 306 OFFCURVE",
"198 347 OFFCURVE",
"198 401 CURVE SMOOTH",
"198 454 OFFCURVE",
"157 492 OFFCURVE",
"103 492 CURVE SMOOTH",
"84 492 OFFCURVE",
"61 483 OFFCURVE",
"47 470 CURVE",
"46 470 LINE",
"51 512 OFFCURVE",
"75 555 OFFCURVE",
"119 555 CURVE SMOOTH",
"164 555 OFFCURVE",
"174 530 OFFCURVE",
"194 486 CURVE SMOOTH",
"200 473 OFFCURVE",
"209 472 OFFCURVE",
"224 478 CURVE SMOOTH",
"239 484 OFFCURVE",
"239 497 OFFCURVE",
"227 521 CURVE",
"265 552 LINE",
"283 538 OFFCURVE",
"292 511 OFFCURVE",
"292 467 CURVE SMOOTH",
"292 394 OFFCURVE",
"154 305 OFFCURVE",
"154 179 CURVE SMOOTH",
"154 92 LINE SMOOTH",
"154 68 OFFCURVE",
"147 55 OFFCURVE",
"129 42 CURVE SMOOTH",
"115 32 OFFCURVE",
"113 24 OFFCURVE",
"123 7 CURVE SMOOTH",
"132 -9 OFFCURVE",
"141 -14 OFFCURVE",
"152 -8 CURVE SMOOTH",
"161 -3 OFFCURVE",
"172 0 OFFCURVE",
"184 0 CURVE SMOOTH",
"423 0 LINE SMOOTH",
"470 0 OFFCURVE",
"478 28 OFFCURVE",
"478 69 CURVE SMOOTH",
"478 328 LINE SMOOTH",
"478 400 OFFCURVE",
"471 429 OFFCURVE",
"422 447 CURVE",
"448 505 OFFCURVE",
"486 561 OFFCURVE",
"557 607 CURVE",
"524 651 LINE",
"445 598 OFFCURVE",
"401 524 OFFCURVE",
"370 450 CURVE SMOOTH",
"363 433 OFFCURVE",
"366 421 OFFCURVE",
"385 415 CURVE SMOOTH",
"416 405 OFFCURVE",
"420 385 OFFCURVE",
"420 329 CURVE SMOOTH",
"420 49 LINE",
"198 49 LINE",
"209 63 OFFCURVE",
"211 77 OFFCURVE",
"211 93 CURVE SMOOTH",
"211 175 LINE SMOOTH"
);
},
{
closed = 1;
nodes = (
"127 449 OFFCURVE",
"148 428 OFFCURVE",
"148 402 CURVE SMOOTH",
"148 375 OFFCURVE",
"127 354 OFFCURVE",
"101 354 CURVE SMOOTH",
"74 354 OFFCURVE",
"52 375 OFFCURVE",
"52 402 CURVE SMOOTH",
"52 428 OFFCURVE",
"74 449 OFFCURVE",
"101 449 CURVE SMOOTH"
);
}
);
width = 628;
}
);
note = uni0E0B;
unicode = 0E0B;
},
{
color = 4;
glyphname = "khoKhwai-thai";
lastChange = "2018-02-13 05:01:28 +0000";
layers = (
{
layerId = "0B1DFD06-3317-40CA-B510-4969A0718C16";
paths = (
{
closed = 1;
nodes = (
"373 305 OFFCURVE",
"352 285 OFFCURVE",
"326 285 CURVE SMOOTH",
"299 285 OFFCURVE",
"279 305 OFFCURVE",
"279 332 CURVE SMOOTH",
"279 358 OFFCURVE",
"299 379 OFFCURVE",
"326 379 CURVE SMOOTH",
"352 379 OFFCURVE",
"373 358 OFFCURVE",
"373 332 CURVE SMOOTH"
);
},
{
closed = 1;
nodes = (
"491 452 OFFCURVE",
"489 436 OFFCURVE",
"489 419 CURVE SMOOTH",
"489 0 LINE",
"547 0 LINE",
"547 419 LINE SMOOTH",
"547 459 OFFCURVE",
"575 462 OFFCURVE",
"575 481 CURVE SMOOTH",
"575 486 OFFCURVE",
"573 494 OFFCURVE",
"563 503 CURVE SMOOTH",
"546 518 OFFCURVE",
"535 515 OFFCURVE",
"529 507 CURVE",
"484 562 OFFCURVE",
"430 603 OFFCURVE",
"322 603 CURVE SMOOTH",
"179 603 OFFCURVE",
"83 511 OFFCURVE",
"83 372 CURVE SMOOTH",
"83 232 OFFCURVE",
"143 94 OFFCURVE",
"112 46 CURVE SMOOTH",
"98 25 OFFCURVE",
"101 16 OFFCURVE",
"117 5 CURVE SMOOTH",
"133 -6 OFFCURVE",
"146 -4 OFFCURVE",
"155 9 CURVE SMOOTH",
"223 112 OFFCURVE",
"239 180 OFFCURVE",
"261 268 CURVE",
"279 250 OFFCURVE",
"298 240 OFFCURVE",
"326 240 CURVE SMOOTH",
"379 240 OFFCURVE",
"423 279 OFFCURVE",
"423 332 CURVE SMOOTH",
"423 385 OFFCURVE",
"384 424 OFFCURVE",
"326 424 CURVE SMOOTH",
"284 424 OFFCURVE",
"246 402 OFFCURVE",
"230 358 CURVE SMOOTH",
"208 296 OFFCURVE",
"218 257 OFFCURVE",
"168 124 CURVE",
"164 124 LINE",
"159 215 OFFCURVE",
"142 262 OFFCURVE",
"142 372 CURVE SMOOTH",
"142 482 OFFCURVE",
"211 552 OFFCURVE",
"324 552 CURVE SMOOTH",
"409 552 OFFCURVE",
"460 518 OFFCURVE",
"498 463 CURVE"
);
}
);
width = 642;
}
);
note = uni0E04;
unicode = 0E04;
},
{
color = 4;
glyphname = "khoKhon-thai";
lastChange = "2018-02-12 11:40:43 +0000";
layers = (
{
layerId = "0B1DFD06-3317-40CA-B510-4969A0718C16";
paths = (
{
closed = 1;
nodes = (
"371 304 OFFCURVE",
"350 284 OFFCURVE",
"324 284 CURVE SMOOTH",
"297 284 OFFCURVE",
"277 304 OFFCURVE",
"277 331 CURVE SMOOTH",
"277 357 OFFCURVE",
"297 378 OFFCURVE",
"324 378 CURVE SMOOTH",
"350 378 OFFCURVE",
"371 357 OFFCURVE",
"371 331 CURVE SMOOTH"
);
},
{
closed = 1;
nodes = (
"221 112 OFFCURVE",
"237 179 OFFCURVE",
"259 267 CURVE",
"277 249 OFFCURVE",
"296 239 OFFCURVE",
"324 239 CURVE SMOOTH",
"377 239 OFFCURVE",
"421 278 OFFCURVE",
"421 331 CURVE SMOOTH",
"421 384 OFFCURVE",
"382 423 OFFCURVE",
"324 423 CURVE SMOOTH",
"282 423 OFFCURVE",
"244 401 OFFCURVE",
"228 357 CURVE SMOOTH",
"206 295 OFFCURVE",
"216 257 OFFCURVE",
"166 124 CURVE",
"164 124 LINE",
"159 215 OFFCURVE",
"142 262 OFFCURVE",
"142 372 CURVE SMOOTH",
"142 480 OFFCURVE",
"165 552 OFFCURVE",
"231 552 CURVE SMOOTH",
"269 552 OFFCURVE",
"284 530 OFFCURVE",
"304 494 CURVE SMOOTH",
"311 481 OFFCURVE",
"323 479 OFFCURVE",
"337 486 CURVE SMOOTH",
"353 494 OFFCURVE",
"355 504 OFFCURVE",
"349 514 CURVE",
"367 538 OFFCURVE",
"390 552 OFFCURVE",
"422 552 CURVE SMOOTH",
"461 552 OFFCURVE",
"484 530 OFFCURVE",
"496 487 CURVE",
"489 476 OFFCURVE",
"489 460 OFFCURVE",
"489 443 CURVE SMOOTH",
"489 0 LINE",
"547 0 LINE",
"547 443 LINE SMOOTH",
"547 483 OFFCURVE",
"575 486 OFFCURVE",
"575 505 CURVE SMOOTH",
"575 510 OFFCURVE",
"573 518 OFFCURVE",
"563 527 CURVE SMOOTH",
"546 542 OFFCURVE",
"537 540 OFFCURVE",
"531 532 CURVE",
"512 572 OFFCURVE",
"482 603 OFFCURVE",
"426 603 CURVE SMOOTH",
"381 603 OFFCURVE",
"346 577 OFFCURVE",
"325 545 CURVE",
"305 577 OFFCURVE",
"275 603 OFFCURVE",
"227 603 CURVE SMOOTH",
"127 603 OFFCURVE",
"83 508 OFFCURVE",
"83 372 CURVE SMOOTH",
"83 232 OFFCURVE",
"143 94 OFFCURVE",
"112 46 CURVE SMOOTH",
"98 25 OFFCURVE",
"100 16 OFFCURVE",
"116 5 CURVE SMOOTH",
"132 -6 OFFCURVE",
"143 -4 OFFCURVE",
"153 9 CURVE"
);
}
);
width = 642;
}
);
note = uni0E05;
unicode = 0E05;
},
